<ttFont>
    <TTGlyph name=".notdef" xMin="72" yMin="250" xMax="162" yMax="360">
      <contour>
        <pt x="162" y="250" on="1"/>
        <pt x="72" y="250" on="1"/>
        <pt x="72" y="360" on="1"/>
        <pt x="162" y="360" on="1"/>
      </contour>
    </TTGlyph>
    <TTGlyph name="A" xMin="7" yMin="0" xMax="609" yMax="700">
      <contour>
        <pt x="609" y="0" on="1"/>
        <pt x="509" y="0" on="1"/>
        <pt x="442" y="189" on="1"/>
        <pt x="174" y="189" on="1"/>
        <pt x="107" y="0" on="1"/>
        <pt x="7" y="0" on="1"/>
        <pt x="258" y="700" on="1"/>
        <pt x="358" y="700" on="1"/>
      </contour>
      <contour>
        <pt x="412" y="275" on="1"/>
        <pt x="308" y="567" on="1"/>
        <pt x="204" y="275" on="1"/>
      </contour>
    </TTGlyph>
    <TTGlyph name="A.sc" xMin="8" yMin="0" xMax="526" yMax="560">
      <contour>
        <pt x="526" y="0" on="1"/>
        <pt x="429" y="0" on="1"/>
        <pt x="374" y="141" on="1"/>
        <pt x="160" y="141" on="1"/>
        <pt x="106" y="0" on="1"/>
        <pt x="8" y="0" on="1"/>
        <pt x="221" y="560" on="1"/>
        <pt x="314" y="560" on="1"/>
      </contour>
      <contour>
        <pt x="343" y="229" on="1"/>
        <pt x="267" y="418" on="1"/>
        <pt x="191" y="229" on="1"/>
      </contour>
    </TTGlyph>
    <TTGlyph name="AE" xMin="-7" yMin="0" xMax="828" yMax="700">
      <contour>
        <pt x="828" y="0" on="1"/>
        <pt x="392" y="0" on="1"/>
        <pt x="392" y="180" on="1"/>
        <pt x="178" y="180" on="1"/>
        <pt x="86" y="0" on="1"/>
        <pt x="-7" y="0" on="1"/>
        <pt x="335" y="700" on="1"/>
        <pt x="818" y="700" on="1"/>
        <pt x="818" y="613" on="1"/>
        <pt x="506" y="613" on="1"/>
        <pt x="506" y="409" on="1"/>
        <pt x="747" y="409" on="1"/>
        <pt x="747" y="323" on="1"/>
        <pt x="506" y="323" on="1"/>
        <pt x="506" y="86" on="1"/>
        <pt x="828" y="86" on="1"/>
      </contour>
      <contour>
        <pt x="392" y="272" on="1"/>
        <pt x="392" y="611" on="1"/>
        <pt x="221" y="272" on="1"/>
      </contour>
    </TTGlyph>
    <TTGlyph name="AE.sc" xMin="-8" yMin="0" xMax="705" yMax="560">
      <contour>
        <pt x="705" y="0" on="1"/>
        <pt x="335" y="0" on="1"/>
        <pt x="335" y="138" on="1"/>
        <pt x="160" y="138" on="1"/>
        <pt x="86" y="0" on="1"/>
        <pt x="-8" y="0" on="1"/>
        <pt x="282" y="560" on="1"/>
        <pt x="697" y="560" on="1"/>
        <pt x="697" y="471" on="1"/>
        <pt x="438" y="471" on="1"/>
        <pt x="438" y="336" on="1"/>
        <pt x="638" y="336" on="1"/>
        <pt x="638" y="248" on="1"/>
        <pt x="438" y="248" on="1"/>
        <pt x="438" y="88" on="1"/>
        <pt x="705" y="88" on="1"/>
      </contour>
      <contour>
        <pt x="335" y="228" on="1"/>
        <pt x="335" y="469" on="1"/>
        <pt x="203" y="228" on="1"/>
      </contour>
    </TTGlyph>
    <TTGlyph name="Aacute" xMin="7" yMin="0" xMax="609" yMax="941">
      <component glyphName="A" x="0" y="0" flags="0x204"/>
      <component glyphName="acute" x="157" y="209" flags="0x4"/>
    </TTGlyph>
    <TTGlyph name="Acircumflex" xMin="7" yMin="0" xMax="609" yMax="954">
      <component glyphName="A" x="0" y="0" flags="0x204"/>
      <component glyphName="circumflex" x="86" y="209" flags="0x4"/>
    </TTGlyph>
    <TTGlyph name="Adieresis" xMin="7" yMin="0" xMax="609" yMax="909">
      <component glyphName="A" x="0" y="0" flags="0x204"/>
      <component glyphName="dieresis" x="98" y="209" flags="0x4"/>
    </TTGlyph>
    <TTGlyph name="Agrave" xMin="7" yMin="0" xMax="609" yMax="941">
      <component glyphName="A" x="0" y="0" flags="0x204"/>
      <component glyphName="grave" x="157" y="209" flags="0x4"/>
    </TTGlyph>
    <TTGlyph name="Aring" xMin="7" yMin="0" xMax="609" yMax="964">
      <component glyphName="A" x="0" y="0" flags="0x204"/>
      <component glyphName="ring" x="163" y="209" flags="0x4"/>
    </TTGlyph>
    <TTGlyph name="Atilde" xMin="7" yMin="0" xMax="609" yMax="911">
      <component glyphName="A" x="0" y="0" flags="0x204"/>
      <component glyphName="tilde" x="44" y="209" flags="0x4"/>
    </TTGlyph>
    <TTGlyph name="B" xMin="80" yMin="0" xMax="562" yMax="700">
      <contour>
        <pt x="320" y="0" on="1"/>
        <pt x="80" y="0" on="1"/>
        <pt x="80" y="700" on="1"/>
        <pt x="238" y="700" on="1"/>
        <pt x="303" y="700" on="0"/>
        <pt x="402" y="686" on="0"/>
        <pt x="468" y="647" on="0"/>
        <pt x="502" y="580" on="0"/>
        <pt x="502" y="527" on="1"/>
        <pt x="502" y="500" on="0"/>
        <pt x="499" y="460" on="0"/>
        <pt x="487" y="426" on="0"/>
        <pt x="464" y="393" on="0"/>
        <pt x="445" y="373" on="1"/>
        <pt x="510" y="348" on="0"/>
        <pt x="562" y="268" on="0"/>
        <pt x="562" y="208" on="1"/>
        <pt x="562" y="141" on="0"/>
        <pt x="519" y="59" on="0"/>
        <pt x="450" y="15" on="0"/>
        <pt x="363" y="0" on="0"/>
      </contour>
      <contour>
        <pt x="265" y="615" on="1"/>
        <pt x="175" y="615" on="1"/>
        <pt x="175" y="409" on="1"/>
        <pt x="293" y="409" on="1"/>
        <pt x="317" y="409" on="0"/>
        <pt x="357" y="416" on="0"/>
        <pt x="387" y="438" on="0"/>
        <pt x="404" y="482" on="0"/>
        <pt x="404" y="520" on="1"/>
        <pt x="404" y="553" on="0"/>
        <pt x="381" y="591" on="0"/>
        <pt x="343" y="610" on="0"/>
        <pt x="293" y="615" on="0"/>
      </contour>
      <contour>
        <pt x="323" y="323" on="1"/>
        <pt x="175" y="323" on="1"/>
        <pt x="175" y="86" on="1"/>
        <pt x="273" y="86" on="1"/>
        <pt x="318" y="86" on="0"/>
        <pt x="388" y="93" on="0"/>
        <pt x="437" y="117" on="0"/>
        <pt x="463" y="161" on="0"/>
        <pt x="463" y="199" on="1"/>
        <pt x="463" y="234" on="0"/>
        <pt x="443" y="281" on="0"/>
        <pt x="407" y="310" on="0"/>
        <pt x="355" y="323" on="0"/>
      </contour>
    </TTGlyph>
    <TTGlyph name="B.sc" xMin="74" yMin="0" xMax="498" yMax="560">
      <contour>
        <pt x="290" y="0" on="1"/>
        <pt x="74" y="0" on="1"/>
        <pt x="74" y="560" on="1"/>
        <pt x="220" y="560" on="1"/>
        <pt x="277" y="560" on="0"/>
        <pt x="362" y="548" on="0"/>
        <pt x="418" y="516" on="0"/>
        <pt x="446" y="461" on="0"/>
        <pt x="446" y="418" on="1"/>
        <pt x="446" y="338" on="0"/>
        <pt x="397" y="299" on="1"/>
        <pt x="451" y="280" on="0"/>
        <pt x="498" y="217" on="0"/>
        <pt x="498" y="165" on="1"/>
        <pt x="498" y="116" on="0"/>
        <pt x="462" y="52" on="0"/>
        <pt x="403" y="15" on="0"/>
        <pt x="328" y="0" on="0"/>
      </contour>
      <contour>
        <pt x="253" y="480" on="1"/>
        <pt x="167" y="480" on="1"/>
        <pt x="167" y="332" on="1"/>
        <pt x="270" y="332" on="1"/>
        <pt x="355" y="332" on="0"/>
        <pt x="355" y="406" on="1"/>
        <pt x="355" y="450" on="0"/>
        <pt x="303" y="480" on="0"/>
      </contour>
      <contour>
        <pt x="287" y="256" on="1"/>
        <pt x="167" y="256" on="1"/>
        <pt x="167" y="81" on="1"/>
        <pt x="262" y="81" on="1"/>
        <pt x="332" y="81" on="0"/>
        <pt x="401" y="117" on="0"/>
        <pt x="401" y="166" on="1"/>
        <pt x="401" y="256" on="0"/>
      </contour>
    </TTGlyph>
    <TTGlyph name="C" xMin="39" yMin="-14" xMax="583" yMax="714">
      <contour>
        <pt x="390" y="-14" on="1"/>
        <pt x="313" y="-14" on="0"/>
        <pt x="184" y="38" on="0"/>
        <pt x="91" y="134" on="0"/>
        <pt x="39" y="268" on="0"/>
        <pt x="39" y="350" on="1"/>
        <pt x="39" y="431" on="0"/>
        <pt x="91" y="565" on="0"/>
        <pt x="184" y="661" on="0"/>
        <pt x="312" y="714" on="0"/>
        <pt x="389" y="714" on="1"/>
        <pt x="496" y="714" on="0"/>
        <pt x="583" y="673" on="1"/>
        <pt x="573" y="585" on="1"/>
        <pt x="516" y="605" on="1"/>
        <pt x="459" y="628" on="0"/>
        <pt x="389" y="628" on="1"/>
        <pt x="330" y="628" on="0"/>
        <pt x="239" y="586" on="0"/>
        <pt x="176" y="512" on="0"/>
        <pt x="143" y="410" on="0"/>
        <pt x="143" y="350" on="1"/>
        <pt x="143" y="291" on="0"/>
        <pt x="175" y="189" on="0"/>
        <pt x="238" y="114" on="0"/>
        <pt x="331" y="72" on="0"/>
        <pt x="391" y="72" on="1"/>
        <pt x="406" y="72" on="0"/>
        <pt x="434" y="74" on="0"/>
        <pt x="449" y="77" on="1"/>
        <pt x="474" y="82" on="1"/>
        <pt x="482" y="83" on="0"/>
        <pt x="501" y="90" on="1"/>
        <pt x="524" y="97" on="1"/>
        <pt x="529" y="98" on="0"/>
        <pt x="550" y="106" on="1"/>
        <pt x="573" y="114" on="1"/>
        <pt x="583" y="26" on="1"/>
        <pt x="496" y="-14" on="0"/>
      </contour>
    </TTGlyph>
    <TTGlyph name="C.sc" xMin="39" yMin="-11" xMax="501" yMax="571">
      <contour>
        <pt x="335" y="-11" on="1"/>
        <pt x="270" y="-11" on="0"/>
        <pt x="161" y="31" on="0"/>
        <pt x="83" y="107" on="0"/>
        <pt x="39" y="215" on="0"/>
        <pt x="39" y="280" on="1"/>
        <pt x="39" y="345" on="0"/>
        <pt x="83" y="452" on="0"/>
        <pt x="161" y="529" on="0"/>
        <pt x="270" y="571" on="0"/>
        <pt x="335" y="571" on="1"/>
        <pt x="432" y="571" on="0"/>
        <pt x="501" y="538" on="1"/>
        <pt x="491" y="451" on="1"/>
        <pt x="400" y="483" on="0"/>
        <pt x="335" y="483" on="1"/>
        <pt x="288" y="483" on="0"/>
        <pt x="216" y="453" on="0"/>
        <pt x="167" y="400" on="0"/>
        <pt x="141" y="325" on="0"/>
        <pt x="141" y="280" on="1"/>
        <pt x="141" y="235" on="0"/>
        <pt x="167" y="160" on="0"/>
        <pt x="216" y="107" on="0"/>
        <pt x="289" y="77" on="0"/>
        <pt x="336" y="77" on="1"/>
        <pt x="400" y="77" on="0"/>
        <pt x="491" y="109" on="1"/>
        <pt x="501" y="21" on="1"/>
        <pt x="428" y="-11" on="0"/>
      </contour>
    </TTGlyph>
    <TTGlyph name="Ccaron" xMin="39" yMin="-14" xMax="583" yMax="949">
      <component glyphName="C" x="0" y="0" flags="0x204"/>
      <component glyphName="caron" x="178" y="209" flags="0x4"/>
    </TTGlyph>
    <TTGlyph name="Ccedilla" xMin="39" yMin="-192" xMax="583" yMax="714">
      <component glyphName="C" x="0" y="0" flags="0x204"/>
      <component glyphName="cedilla" x="96" y="0" flags="0x4"/>
    </TTGlyph>
    <TTGlyph name="D" xMin="80" yMin="0" xMax="687" yMax="700">
      <contour>
        <pt x="339" y="0" on="1"/>
        <pt x="80" y="0" on="1"/>
        <pt x="80" y="700" on="1"/>
        <pt x="339" y="700" on="1"/>
        <pt x="415" y="700" on="0"/>
        <pt x="543" y="652" on="0"/>
        <pt x="636" y="561" on="0"/>
        <pt x="687" y="431" on="0"/>
        <pt x="687" y="350" on="1"/>
        <pt x="687" y="269" on="0"/>
        <pt x="636" y="139" on="0"/>
        <pt x="545" y="49" on="0"/>
        <pt x="417" y="0" on="0"/>
      </contour>
      <contour>
        <pt x="339" y="614" on="1"/>
        <pt x="175" y="614" on="1"/>
        <pt x="175" y="86" on="1"/>
        <pt x="339" y="86" on="1"/>
        <pt x="397" y="86" on="0"/>
        <pt x="488" y="123" on="0"/>
        <pt x="551" y="192" on="0"/>
        <pt x="583" y="290" on="0"/>
        <pt x="583" y="350" on="1"/>
        <pt x="583" y="410" on="0"/>
        <pt x="551" y="508" on="0"/>
        <pt x="488" y="577" on="0"/>
        <pt x="397" y="614" on="0"/>
      </contour>
    </TTGlyph>
    <TTGlyph name="D.sc" xMin="74" yMin="0" xMax="590" yMax="560">
      <contour>
        <pt x="295" y="0" on="1"/>
        <pt x="74" y="0" on="1"/>
        <pt x="74" y="560" on="1"/>
        <pt x="295" y="560" on="1"/>
        <pt x="359" y="560" on="0"/>
        <pt x="469" y="521" on="0"/>
        <pt x="547" y="449" on="0"/>
        <pt x="590" y="345" on="0"/>
        <pt x="590" y="280" on="1"/>
        <pt x="590" y="214" on="0"/>
        <pt x="546" y="110" on="0"/>
        <pt x="468" y="38" on="0"/>
        <pt x="359" y="0" on="0"/>
      </contour>
      <contour>
        <pt x="295" y="472" on="1"/>
        <pt x="167" y="472" on="1"/>
        <pt x="167" y="88" on="1"/>
        <pt x="295" y="88" on="1"/>
        <pt x="389" y="88" on="0"/>
        <pt x="488" y="190" on="0"/>
        <pt x="488" y="280" on="1"/>
        <pt x="488" y="370" on="0"/>
        <pt x="389" y="472" on="0"/>
      </contour>
    </TTGlyph>
    <TTGlyph name="E" xMin="80" yMin="0" xMax="516" yMax="700">
      <contour>
        <pt x="516" y="0" on="1"/>
        <pt x="80" y="0" on="1"/>
        <pt x="80" y="700" on="1"/>
        <pt x="507" y="700" on="1"/>
        <pt x="507" y="614" on="1"/>
        <pt x="175" y="614" on="1"/>
        <pt x="175" y="409" on="1"/>
        <pt x="439" y="409" on="1"/>
        <pt x="439" y="323" on="1"/>
        <pt x="175" y="323" on="1"/>
        <pt x="175" y="86" on="1"/>
        <pt x="516" y="86" on="1"/>
      </contour>
    </TTGlyph>
    <TTGlyph name="E.sc" xMin="74" yMin="0" xMax="453" yMax="560">
      <contour>
        <pt x="453" y="0" on="1"/>
        <pt x="74" y="0" on="1"/>
        <pt x="74" y="560" on="1"/>
        <pt x="445" y="560" on="1"/>
        <pt x="445" y="472" on="1"/>
        <pt x="169" y="472" on="1"/>
        <pt x="169" y="336" on="1"/>
        <pt x="386" y="336" on="1"/>
        <pt x="386" y="248" on="1"/>
        <pt x="169" y="248" on="1"/>
        <pt x="169" y="88" on="1"/>
        <pt x="453" y="88" on="1"/>
      </contour>
    </TTGlyph>
    <TTGlyph name="Eacute" xMin="80" yMin="0" xMax="516" yMax="941">
      <component glyphName="E" x="0" y="0" flags="0x204"/>
      <component glyphName="acute" x="125" y="209" flags="0x4"/>
    </TTGlyph>
    <TTGlyph name="Ecircumflex" xMin="80" yMin="0" xMax="516" yMax="954">
      <component glyphName="E" x="0" y="0" flags="0x204"/>
      <component glyphName="circumflex" x="53" y="209" flags="0x4"/>
    </TTGlyph>
    <TTGlyph name="Edieresis" xMin="80" yMin="0" xMax="516" yMax="909">
      <component glyphName="E" x="0" y="0" flags="0x204"/>
      <component glyphName="dieresis" x="65" y="209" flags="0x4"/>
    </TTGlyph>
    <TTGlyph name="Egrave" xMin="80" yMin="0" xMax="516" yMax="941">
      <component glyphName="E" x="0" y="0" flags="0x204"/>
      <component glyphName="grave" x="126" y="209" flags="0x4"/>
    </TTGlyph>
    <TTGlyph name="Eth" xMin="-11" yMin="0" xMax="687" yMax="700">
      <contour>
        <pt x="342" y="0" on="1"/>
        <pt x="86" y="0" on="1"/>
        <pt x="86" y="313" on="1"/>
        <pt x="-11" y="313" on="1"/>
        <pt x="-11" y="377" on="1"/>
        <pt x="86" y="377" on="1"/>
        <pt x="86" y="700" on="1"/>
        <pt x="342" y="700" on="1"/>
        <pt x="418" y="700" on="0"/>
        <pt x="545" y="651" on="0"/>
        <pt x="637" y="561" on="0"/>
        <pt x="687" y="431" on="0"/>
        <pt x="687" y="350" on="1"/>
        <pt x="687" y="269" on="0"/>
        <pt x="637" y="140" on="0"/>
        <pt x="547" y="49" on="0"/>
        <pt x="420" y="0" on="0"/>
      </contour>
      <contour>
        <pt x="342" y="614" on="1"/>
        <pt x="176" y="614" on="1"/>
        <pt x="176" y="377" on="1"/>
        <pt x="309" y="377" on="1"/>
        <pt x="309" y="313" on="1"/>
        <pt x="176" y="313" on="1"/>
        <pt x="176" y="87" on="1"/>
        <pt x="342" y="87" on="1"/>
        <pt x="460" y="87" on="0"/>
        <pt x="585" y="227" on="0"/>
        <pt x="585" y="350" on="1"/>
        <pt x="585" y="411" on="0"/>
        <pt x="553" y="509" on="0"/>
        <pt x="492" y="577" on="0"/>
        <pt x="401" y="614" on="0"/>
      </contour>
    </TTGlyph>
    <TTGlyph name="Euro" xMin="33" yMin="17" xMax="646" yMax="683">
      <contour>
        <pt x="174" y="215" on="1"/>
        <pt x="33" y="215" on="1"/>
        <pt x="57" y="284" on="1"/>
        <pt x="156" y="284" on="1"/>
        <pt x="154" y="303" on="0"/>
        <pt x="152" y="336" on="0"/>
        <pt x="152" y="350" on="1"/>
        <pt x="152" y="369" on="1"/>
        <pt x="63" y="369" on="1"/>
        <pt x="85" y="438" on="1"/>
        <pt x="161" y="438" on="1"/>
        <pt x="175" y="495" on="0"/>
        <pt x="232" y="586" on="0"/>
        <pt x="312" y="649" on="0"/>
        <pt x="413" y="683" on="0"/>
        <pt x="470" y="683" on="1"/>
        <pt x="574" y="683" on="0"/>
        <pt x="646" y="649" on="1"/>
        <pt x="634" y="551" on="1"/>
        <pt x="543" y="589" on="0"/>
        <pt x="470" y="589" on="1"/>
        <pt x="324" y="589" on="0"/>
        <pt x="278" y="438" on="1"/>
        <pt x="536" y="438" on="1"/>
        <pt x="512" y="369" on="1"/>
        <pt x="268" y="369" on="1"/>
        <pt x="268" y="350" on="1"/>
        <pt x="268" y="333" on="0"/>
        <pt x="271" y="300" on="0"/>
        <pt x="273" y="284" on="1"/>
        <pt x="516" y="284" on="1"/>
        <pt x="492" y="215" on="1"/>
        <pt x="294" y="215" on="1"/>
        <pt x="353" y="111" on="0"/>
        <pt x="470" y="111" on="1"/>
        <pt x="543" y="111" on="0"/>
        <pt x="634" y="149" on="1"/>
        <pt x="646" y="51" on="1"/>
        <pt x="574" y="17" on="0"/>
        <pt x="470" y="17" on="1"/>
        <pt x="368" y="17" on="0"/>
        <pt x="212" y="121" on="0"/>
      </contour>
    </TTGlyph>
    <TTGlyph name="F" xMin="80" yMin="0" xMax="507" yMax="700">
      <contour>
        <pt x="507" y="614" on="1"/>
        <pt x="175" y="614" on="1"/>
        <pt x="175" y="409" on="1"/>
        <pt x="431" y="409" on="1"/>
        <pt x="431" y="323" on="1"/>
        <pt x="175" y="323" on="1"/>
        <pt x="175" y="0" on="1"/>
        <pt x="80" y="0" on="1"/>
        <pt x="80" y="700" on="1"/>
        <pt x="507" y="700" on="1"/>
      </contour>
    </TTGlyph>
    <TTGlyph name="F.sc" xMin="74" yMin="0" xMax="438" yMax="560">
      <contour>
        <pt x="438" y="472" on="1"/>
        <pt x="167" y="472" on="1"/>
        <pt x="167" y="336" on="1"/>
        <pt x="377" y="336" on="1"/>
        <pt x="377" y="248" on="1"/>
        <pt x="167" y="248" on="1"/>
        <pt x="167" y="0" on="1"/>
        <pt x="74" y="0" on="1"/>
        <pt x="74" y="560" on="1"/>
        <pt x="438" y="560" on="1"/>
      </contour>
    </TTGlyph>
    <TTGlyph name="G" xMin="39" yMin="-14" xMax="621" yMax="714">
      <contour>
        <pt x="382" y="-14" on="1"/>
        <pt x="308" y="-14" on="0"/>
        <pt x="182" y="39" on="0"/>
        <pt x="90" y="135" on="0"/>
        <pt x="39" y="269" on="0"/>
        <pt x="39" y="351" on="1"/>
        <pt x="39" y="433" on="0"/>
        <pt x="91" y="567" on="0"/>
        <pt x="184" y="662" on="0"/>
        <pt x="313" y="714" on="0"/>
        <pt x="390" y="714" on="1"/>
        <pt x="508" y="714" on="0"/>
        <pt x="598" y="674" on="1"/>
        <pt x="589" y="591" on="1"/>
        <pt x="484" y="628" on="0"/>
        <pt x="393" y="628" on="1"/>
        <pt x="332" y="628" on="0"/>
        <pt x="238" y="587" on="0"/>
        <pt x="175" y="514" on="0"/>
        <pt x="143" y="411" on="0"/>
        <pt x="143" y="350" on="1"/>
        <pt x="143" y="287" on="0"/>
        <pt x="177" y="184" on="0"/>
        <pt x="244" y="112" on="0"/>
        <pt x="343" y="72" on="0"/>
        <pt x="409" y="72" on="1"/>
        <pt x="481" y="72" on="0"/>
        <pt x="526" y="91" on="1"/>
        <pt x="526" y="265" on="1"/>
        <pt x="416" y="265" on="1"/>
        <pt x="416" y="351" on="1"/>
        <pt x="621" y="351" on="1"/>
        <pt x="621" y="39" on="1"/>
        <pt x="601" y="28" on="0"/>
        <pt x="542" y="9" on="0"/>
        <pt x="477" y="-6" on="0"/>
        <pt x="410" y="-14" on="0"/>
      </contour>
    </TTGlyph>
    <TTGlyph name="G.sc" xMin="39" yMin="-11" xMax="534" yMax="571">
      <contour>
        <pt x="330" y="-11" on="1"/>
        <pt x="267" y="-11" on="0"/>
        <pt x="160" y="31" on="0"/>
        <pt x="83" y="107" on="0"/>
        <pt x="39" y="215" on="0"/>
        <pt x="39" y="281" on="1"/>
        <pt x="39" y="346" on="0"/>
        <pt x="82" y="453" on="0"/>
        <pt x="161" y="529" on="0"/>
        <pt x="271" y="571" on="0"/>
        <pt x="337" y="571" on="1"/>
        <pt x="439" y="571" on="0"/>
        <pt x="514" y="539" on="1"/>
        <pt x="505" y="452" on="1"/>
        <pt x="418" y="483" on="0"/>
        <pt x="339" y="483" on="1"/>
        <pt x="241" y="483" on="0"/>
        <pt x="141" y="372" on="0"/>
        <pt x="141" y="282" on="1"/>
        <pt x="141" y="188" on="0"/>
        <pt x="246" y="77" on="0"/>
        <pt x="349" y="77" on="1"/>
        <pt x="398" y="77" on="0"/>
        <pt x="440" y="88" on="1"/>
        <pt x="440" y="202" on="1"/>
        <pt x="359" y="202" on="1"/>
        <pt x="359" y="281" on="1"/>
        <pt x="534" y="281" on="1"/>
        <pt x="534" y="31" on="1"/>
        <pt x="517" y="23" on="0"/>
        <pt x="468" y="8" on="0"/>
        <pt x="412" y="-4" on="0"/>
        <pt x="355" y="-11" on="0"/>
      </contour>
    </TTGlyph>
    <TTGlyph name="H" xMin="80" yMin="0" xMax="666" yMax="700">
      <contour>
        <pt x="666" y="0" on="1"/>
        <pt x="571" y="0" on="1"/>
        <pt x="571" y="321" on="1"/>
        <pt x="175" y="321" on="1"/>
        <pt x="175" y="0" on="1"/>
        <pt x="80" y="0" on="1"/>
        <pt x="80" y="700" on="1"/>
        <pt x="175" y="700" on="1"/>
        <pt x="175" y="411" on="1"/>
        <pt x="571" y="411" on="1"/>
        <pt x="571" y="700" on="1"/>
        <pt x="666" y="700" on="1"/>
      </contour>
    </TTGlyph>
    <TTGlyph name="H.sc" xMin="74" yMin="0" xMax="572" yMax="560">
      <contour>
        <pt x="572" y="0" on="1"/>
        <pt x="479" y="0" on="1"/>
        <pt x="479" y="248" on="1"/>
        <pt x="167" y="248" on="1"/>
        <pt x="167" y="0" on="1"/>
        <pt x="74" y="0" on="1"/>
        <pt x="74" y="560" on="1"/>
        <pt x="167" y="560" on="1"/>
        <pt x="167" y="337" on="1"/>
        <pt x="479" y="337" on="1"/>
        <pt x="479" y="560" on="1"/>
        <pt x="572" y="560" on="1"/>
      </contour>
    </TTGlyph>
    <TTGlyph name="I" xMin="80" yMin="0" xMax="175" yMax="700">
      <contour>
        <pt x="175" y="0" on="1"/>
        <pt x="80" y="0" on="1"/>
        <pt x="80" y="700" on="1"/>
        <pt x="175" y="700" on="1"/>
      </contour>
    </TTGlyph>
    <TTGlyph name="I.sc" xMin="74" yMin="0" xMax="167" yMax="560">
      <contour>
        <pt x="167" y="0" on="1"/>
        <pt x="74" y="0" on="1"/>
        <pt x="74" y="560" on="1"/>
        <pt x="167" y="560" on="1"/>
      </contour>
    </TTGlyph>
    <TTGlyph name="Iacute" xMin="36" yMin="0" xMax="223" yMax="941">
      <component glyphName="I" x="0" y="0" flags="0x204"/>
      <component glyphName="acute" x="-22" y="209" flags="0x4"/>
    </TTGlyph>
    <TTGlyph name="Icircumflex" xMin="-16" yMin="0" xMax="278" yMax="954">
      <component glyphName="I" x="0" y="0" flags="0x204"/>
      <component glyphName="circumflex" x="-92" y="209" flags="0x4"/>
    </TTGlyph>
    <TTGlyph name="Idieresis" xMin="5" yMin="0" xMax="253" yMax="909">
      <component glyphName="I" x="0" y="0" flags="0x204"/>
      <component glyphName="dieresis" x="-82" y="209" flags="0x4"/>
    </TTGlyph>
    <TTGlyph name="Igrave" xMin="35" yMin="0" xMax="222" yMax="941">
      <component glyphName="I" x="0" y="0" flags="0x204"/>
      <component glyphName="grave" x="-23" y="209" flags="0x4"/>
    </TTGlyph>
    <TTGlyph name="J" xMin="-17" yMin="-172" xMax="175" yMax="700">
      <contour>
        <pt x="9" y="-172" on="1"/>
        <pt x="-7" y="-172" on="1"/>
        <pt x="-17" y="-116" on="1"/>
        <pt x="-13" y="-116" on="1"/>
        <pt x="14" y="-116" on="0"/>
        <pt x="50" y="-104" on="0"/>
        <pt x="71" y="-77" on="0"/>
        <pt x="80" y="-34" on="0"/>
        <pt x="80" y="-3" on="1"/>
        <pt x="80" y="700" on="1"/>
        <pt x="175" y="700" on="1"/>
        <pt x="175" y="-32" on="1"/>
        <pt x="175" y="-172" on="0"/>
      </contour>
    </TTGlyph>
    <TTGlyph name="J.sc" xMin="-2" yMin="-138" xMax="167" yMax="560">
      <contour>
        <pt x="28" y="-138" on="1"/>
        <pt x="7" y="-138" on="1"/>
        <pt x="-2" y="-72" on="1"/>
        <pt x="10" y="-72" on="1"/>
        <pt x="47" y="-72" on="0"/>
        <pt x="74" y="-38" on="0"/>
        <pt x="74" y="1" on="1"/>
        <pt x="74" y="560" on="1"/>
        <pt x="167" y="560" on="1"/>
        <pt x="167" y="-22" on="1"/>
        <pt x="167" y="-138" on="0"/>
      </contour>
    </TTGlyph>
    <TTGlyph name="K" xMin="80" yMin="0" xMax="573" yMax="700">
      <contour>
        <pt x="573" y="0" on="1"/>
        <pt x="473" y="0" on="1"/>
        <pt x="214" y="371" on="1"/>
        <pt x="473" y="700" on="1"/>
        <pt x="573" y="700" on="1"/>
        <pt x="314" y="371" on="1"/>
      </contour>
      <contour>
        <pt x="175" y="0" on="1"/>
        <pt x="80" y="0" on="1"/>
        <pt x="80" y="700" on="1"/>
        <pt x="175" y="700" on="1"/>
      </contour>
    </TTGlyph>
    <TTGlyph name="K.sc" xMin="74" yMin="0" xMax="512" yMax="560">
      <contour>
        <pt x="512" y="0" on="1"/>
        <pt x="410" y="0" on="1"/>
        <pt x="195" y="296" on="1"/>
        <pt x="410" y="560" on="1"/>
        <pt x="512" y="560" on="1"/>
        <pt x="297" y="296" on="1"/>
      </contour>
      <contour>
        <pt x="167" y="0" on="1"/>
        <pt x="74" y="0" on="1"/>
        <pt x="74" y="560" on="1"/>
        <pt x="167" y="560" on="1"/>
      </contour>
    </TTGlyph>
    <TTGlyph name="L" xMin="80" yMin="0" xMax="496" yMax="700">
      <contour>
        <pt x="496" y="0" on="1"/>
        <pt x="80" y="0" on="1"/>
        <pt x="80" y="700" on="1"/>
        <pt x="175" y="700" on="1"/>
        <pt x="175" y="86" on="1"/>
        <pt x="496" y="86" on="1"/>
      </contour>
    </TTGlyph>
    <TTGlyph name="L.sc" xMin="74" yMin="0" xMax="428" yMax="560">
      <contour>
        <pt x="428" y="0" on="1"/>
        <pt x="74" y="0" on="1"/>
        <pt x="74" y="560" on="1"/>
        <pt x="167" y="560" on="1"/>
        <pt x="167" y="88" on="1"/>
        <pt x="428" y="88" on="1"/>
      </contour>
    </TTGlyph>
    <TTGlyph name="M" xMin="48" yMin="0" xMax="764" yMax="700">
      <contour>
        <pt x="764" y="0" on="1"/>
        <pt x="664" y="0" on="1"/>
        <pt x="598" y="529" on="1"/>
        <pt x="408" y="166" on="1"/>
        <pt x="214" y="529" on="1"/>
        <pt x="148" y="0" on="1"/>
        <pt x="48" y="0" on="1"/>
        <pt x="142" y="700" on="1"/>
        <pt x="223" y="700" on="1"/>
        <pt x="407" y="353" on="1"/>
        <pt x="589" y="700" on="1"/>
        <pt x="671" y="700" on="1"/>
      </contour>
    </TTGlyph>
    <TTGlyph name="M.sc" xMin="46" yMin="0" xMax="666" yMax="560">
      <contour>
        <pt x="666" y="0" on="1"/>
        <pt x="568" y="0" on="1"/>
        <pt x="514" y="392" on="1"/>
        <pt x="357" y="123" on="1"/>
        <pt x="198" y="392" on="1"/>
        <pt x="144" y="0" on="1"/>
        <pt x="46" y="0" on="1"/>
        <pt x="127" y="560" on="1"/>
        <pt x="205" y="560" on="1"/>
        <pt x="357" y="297" on="1"/>
        <pt x="507" y="560" on="1"/>
        <pt x="585" y="560" on="1"/>
      </contour>
    </TTGlyph>
    <TTGlyph name="N" xMin="80" yMin="0" xMax="624" yMax="700">
      <contour>
        <pt x="624" y="0" on="1"/>
        <pt x="543" y="0" on="1"/>
        <pt x="175" y="553" on="1"/>
        <pt x="175" y="0" on="1"/>
        <pt x="80" y="0" on="1"/>
        <pt x="80" y="700" on="1"/>
        <pt x="183" y="700" on="1"/>
        <pt x="528" y="176" on="1"/>
        <pt x="528" y="700" on="1"/>
        <pt x="624" y="700" on="1"/>
      </contour>
    </TTGlyph>
    <TTGlyph name="N.sc" xMin="74" yMin="0" xMax="540" yMax="560">
      <contour>
        <pt x="540" y="0" on="1"/>
        <pt x="462" y="0" on="1"/>
        <pt x="167" y="405" on="1"/>
        <pt x="167" y="0" on="1"/>
        <pt x="74" y="0" on="1"/>
        <pt x="74" y="560" on="1"/>
        <pt x="170" y="560" on="1"/>
        <pt x="446" y="178" on="1"/>
        <pt x="446" y="560" on="1"/>
        <pt x="540" y="560" on="1"/>
      </contour>
    </TTGlyph>
    <TTGlyph name="Ntilde" xMin="80" yMin="0" xMax="624" yMax="911">
      <component glyphName="N" x="0" y="0" flags="0x204"/>
      <component glyphName="tilde" x="87" y="209" flags="0x4"/>
    </TTGlyph>
    <TTGlyph name="O" xMin="39" yMin="-14" xMax="729" yMax="714">
      <contour>
        <pt x="632" y="85" on="1"/>
        <pt x="536" y="-14" on="0"/>
        <pt x="384" y="-14" on="1"/>
        <pt x="308" y="-14" on="0"/>
        <pt x="181" y="38" on="0"/>
        <pt x="90" y="133" on="0"/>
        <pt x="39" y="267" on="0"/>
        <pt x="39" y="350" on="1"/>
        <pt x="39" y="433" on="0"/>
        <pt x="91" y="567" on="0"/>
        <pt x="182" y="662" on="0"/>
        <pt x="309" y="714" on="0"/>
        <pt x="384" y="714" on="1"/>
        <pt x="459" y="714" on="0"/>
        <pt x="586" y="662" on="0"/>
        <pt x="678" y="566" on="0"/>
        <pt x="729" y="432" on="0"/>
        <pt x="729" y="350" on="1"/>
        <pt x="729" y="185" on="0"/>
      </contour>
      <contour>
        <pt x="562" y="550" on="1"/>
        <pt x="500" y="628" on="0"/>
        <pt x="384" y="628" on="1"/>
        <pt x="326" y="628" on="0"/>
        <pt x="236" y="586" on="0"/>
        <pt x="175" y="512" on="0"/>
        <pt x="143" y="410" on="0"/>
        <pt x="143" y="350" on="1"/>
        <pt x="143" y="290" on="0"/>
        <pt x="175" y="188" on="0"/>
        <pt x="236" y="114" on="0"/>
        <pt x="326" y="72" on="0"/>
        <pt x="384" y="72" on="1"/>
        <pt x="442" y="72" on="0"/>
        <pt x="532" y="114" on="0"/>
        <pt x="594" y="189" on="0"/>
        <pt x="625" y="290" on="0"/>
        <pt x="625" y="350" on="1"/>
        <pt x="625" y="472" on="0"/>
      </contour>
    </TTGlyph>
    <TTGlyph name="O.sc" xMin="39" yMin="-11" xMax="626" yMax="571">
      <contour>
        <pt x="543" y="69" on="1"/>
        <pt x="460" y="-11" on="0"/>
        <pt x="332" y="-11" on="1"/>
        <pt x="268" y="-11" on="0"/>
        <pt x="160" y="31" on="0"/>
        <pt x="82" y="107" on="0"/>
        <pt x="39" y="215" on="0"/>
        <pt x="39" y="280" on="1"/>
        <pt x="39" y="345" on="0"/>
        <pt x="82" y="452" on="0"/>
        <pt x="160" y="529" on="0"/>
        <pt x="268" y="571" on="0"/>
        <pt x="332" y="571" on="1"/>
        <pt x="396" y="571" on="0"/>
        <pt x="504" y="529" on="0"/>
        <pt x="582" y="452" on="0"/>
        <pt x="626" y="345" on="0"/>
        <pt x="626" y="280" on="1"/>
        <pt x="626" y="149" on="0"/>
      </contour>
      <contour>
        <pt x="473" y="427" on="1"/>
        <pt x="423" y="483" on="0"/>
        <pt x="332" y="483" on="1"/>
        <pt x="286" y="483" on="0"/>
        <pt x="215" y="454" on="0"/>
        <pt x="166" y="400" on="0"/>
        <pt x="141" y="325" on="0"/>
        <pt x="141" y="280" on="1"/>
        <pt x="141" y="235" on="0"/>
        <pt x="166" y="160" on="0"/>
        <pt x="215" y="106" on="0"/>
        <pt x="286" y="77" on="0"/>
        <pt x="332" y="77" on="1"/>
        <pt x="378" y="77" on="0"/>
        <pt x="449" y="107" on="0"/>
        <pt x="498" y="160" on="0"/>
        <pt x="523" y="235" on="0"/>
        <pt x="523" y="280" on="1"/>
        <pt x="523" y="371" on="0"/>
      </contour>
    </TTGlyph>
    <TTGlyph name="OE" xMin="40" yMin="-14" xMax="1034" yMax="714">
      <contour>
        <pt x="1034" y="0" on="1"/>
        <pt x="624" y="0" on="1"/>
        <pt x="624" y="83" on="1"/>
        <pt x="555" y="30" on="0"/>
        <pt x="440" y="-14" on="0"/>
        <pt x="378" y="-14" on="1"/>
        <pt x="303" y="-14" on="0"/>
        <pt x="179" y="38" on="0"/>
        <pt x="89" y="134" on="0"/>
        <pt x="40" y="268" on="0"/>
        <pt x="40" y="350" on="1"/>
        <pt x="40" y="432" on="0"/>
        <pt x="90" y="567" on="0"/>
        <pt x="180" y="662" on="0"/>
        <pt x="304" y="714" on="0"/>
        <pt x="378" y="714" on="1"/>
        <pt x="440" y="714" on="0"/>
        <pt x="555" y="670" on="0"/>
        <pt x="624" y="617" on="1"/>
        <pt x="624" y="699" on="1"/>
        <pt x="1025" y="699" on="1"/>
        <pt x="1025" y="614" on="1"/>
        <pt x="715" y="614" on="1"/>
        <pt x="715" y="409" on="1"/>
        <pt x="953" y="409" on="1"/>
        <pt x="953" y="323" on="1"/>
        <pt x="715" y="323" on="1"/>
        <pt x="715" y="86" on="1"/>
        <pt x="1034" y="86" on="1"/>
      </contour>
      <contour>
        <pt x="378" y="628" on="1"/>
        <pt x="320" y="628" on="0"/>
        <pt x="231" y="587" on="0"/>
        <pt x="171" y="513" on="0"/>
        <pt x="140" y="411" on="0"/>
        <pt x="140" y="350" on="1"/>
        <pt x="140" y="290" on="0"/>
        <pt x="170" y="188" on="0"/>
        <pt x="230" y="114" on="0"/>
        <pt x="319" y="72" on="0"/>
        <pt x="378" y="72" on="1"/>
        <pt x="436" y="72" on="0"/>
        <pt x="525" y="114" on="0"/>
        <pt x="585" y="188" on="0"/>
        <pt x="615" y="290" on="0"/>
        <pt x="615" y="350" on="1"/>
        <pt x="615" y="411" on="0"/>
        <pt x="584" y="513" on="0"/>
        <pt x="524" y="587" on="0"/>
        <pt x="435" y="628" on="0"/>
      </contour>
    </TTGlyph>
    <TTGlyph name="OE.sc" xMin="39" yMin="-11" xMax="884" yMax="571">
      <contour>
        <pt x="884" y="0" on="1"/>
        <pt x="525" y="0" on="1"/>
        <pt x="525" y="52" on="1"/>
        <pt x="427" y="-11" on="0"/>
        <pt x="329" y="-11" on="1"/>
        <pt x="265" y="-11" on="0"/>
        <pt x="159" y="31" on="0"/>
        <pt x="82" y="107" on="0"/>
        <pt x="39" y="215" on="0"/>
        <pt x="39" y="280" on="1"/>
        <pt x="39" y="345" on="0"/>
        <pt x="82" y="452" on="0"/>
        <pt x="159" y="529" on="0"/>
        <pt x="265" y="571" on="0"/>
        <pt x="329" y="571" on="1"/>
        <pt x="427" y="571" on="0"/>
        <pt x="525" y="508" on="1"/>
        <pt x="525" y="560" on="1"/>
        <pt x="876" y="560" on="1"/>
        <pt x="876" y="472" on="1"/>
        <pt x="618" y="472" on="1"/>
        <pt x="618" y="336" on="1"/>
        <pt x="817" y="336" on="1"/>
        <pt x="817" y="248" on="1"/>
        <pt x="618" y="248" on="1"/>
        <pt x="618" y="88" on="1"/>
        <pt x="884" y="88" on="1"/>
      </contour>
      <contour>
        <pt x="469" y="427" on="1"/>
        <pt x="421" y="483" on="0"/>
        <pt x="329" y="483" on="1"/>
        <pt x="283" y="483" on="0"/>
        <pt x="212" y="454" on="0"/>
        <pt x="164" y="400" on="0"/>
        <pt x="139" y="325" on="0"/>
        <pt x="139" y="280" on="1"/>
        <pt x="139" y="235" on="0"/>
        <pt x="164" y="160" on="0"/>
        <pt x="212" y="106" on="0"/>
        <pt x="283" y="77" on="0"/>
        <pt x="329" y="77" on="1"/>
        <pt x="375" y="77" on="0"/>
        <pt x="446" y="107" on="0"/>
        <pt x="494" y="160" on="0"/>
        <pt x="518" y="235" on="0"/>
        <pt x="518" y="280" on="1"/>
        <pt x="518" y="372" on="0"/>
      </contour>
    </TTGlyph>
    <TTGlyph name="Oacute" xMin="39" yMin="-14" xMax="729" yMax="941">
      <component glyphName="O" x="0" y="0" flags="0x204"/>
      <component glyphName="acute" x="232" y="209" flags="0x4"/>
    </TTGlyph>
    <TTGlyph name="Ocircumflex" xMin="39" yMin="-14" xMax="729" yMax="954">
      <component glyphName="O" x="0" y="0" flags="0x204"/>
      <component glyphName="circumflex" x="161" y="209" flags="0x4"/>
    </TTGlyph>
    <TTGlyph name="Odieresis" xMin="39" yMin="-14" xMax="729" yMax="909">
      <component glyphName="O" x="0" y="0" flags="0x204"/>
      <component glyphName="dieresis" x="173" y="209" flags="0x4"/>
    </TTGlyph>
    <TTGlyph name="Ograve" xMin="39" yMin="-14" xMax="729" yMax="941">
      <component glyphName="O" x="0" y="0" flags="0x204"/>
      <component glyphName="grave" x="233" y="209" flags="0x4"/>
    </TTGlyph>
    <TTGlyph name="Oslash" xMin="39" yMin="-30" xMax="729" yMax="716">
      <contour>
        <pt x="383" y="-12" on="1"/>
        <pt x="292" y="-12" on="0"/>
        <pt x="207" y="31" on="1"/>
        <pt x="165" y="-30" on="1"/>
        <pt x="72" y="-30" on="1"/>
        <pt x="145" y="75" on="1"/>
        <pt x="39" y="188" on="0"/>
        <pt x="39" y="350" on="1"/>
        <pt x="39" y="433" on="0"/>
        <pt x="91" y="567" on="0"/>
        <pt x="182" y="662" on="0"/>
        <pt x="309" y="714" on="0"/>
        <pt x="384" y="714" on="1"/>
        <pt x="470" y="714" on="0"/>
        <pt x="556" y="672" on="1"/>
        <pt x="587" y="716" on="1"/>
        <pt x="679" y="716" on="1"/>
        <pt x="618" y="627" on="1"/>
        <pt x="729" y="516" on="0"/>
        <pt x="729" y="349" on="1"/>
        <pt x="729" y="268" on="0"/>
        <pt x="678" y="135" on="0"/>
        <pt x="587" y="40" on="0"/>
        <pt x="459" y="-12" on="0"/>
      </contour>
      <contour>
        <pt x="563" y="548" on="1"/>
        <pt x="260" y="105" on="1"/>
        <pt x="329" y="76" on="0"/>
        <pt x="384" y="76" on="1"/>
        <pt x="442" y="76" on="0"/>
        <pt x="531" y="117" on="0"/>
        <pt x="591" y="191" on="0"/>
        <pt x="621" y="292" on="0"/>
        <pt x="621" y="352" on="1"/>
        <pt x="621" y="478" on="0"/>
      </contour>
      <contour>
        <pt x="383" y="625" on="1"/>
        <pt x="326" y="625" on="0"/>
        <pt x="238" y="584" on="0"/>
        <pt x="178" y="510" on="0"/>
        <pt x="147" y="409" on="0"/>
        <pt x="147" y="349" on="1"/>
        <pt x="147" y="251" on="0"/>
        <pt x="202" y="156" on="1"/>
        <pt x="503" y="597" on="1"/>
        <pt x="437" y="625" on="0"/>
      </contour>
    </TTGlyph>
    <TTGlyph name="Otilde" xMin="39" yMin="-14" xMax="729" yMax="911">
      <component glyphName="O" x="0" y="0" flags="0x204"/>
      <component glyphName="tilde" x="119" y="209" flags="0x4"/>
    </TTGlyph>
    <TTGlyph name="P" xMin="80" yMin="0" xMax="548" yMax="700">
      <contour>
        <pt x="180" y="245" on="1"/>
        <pt x="180" y="0" on="1"/>
        <pt x="80" y="0" on="1"/>
        <pt x="80" y="700" on="1"/>
        <pt x="304" y="700" on="1"/>
        <pt x="353" y="700" on="0"/>
        <pt x="441" y="685" on="0"/>
        <pt x="508" y="638" on="0"/>
        <pt x="548" y="552" on="0"/>
        <pt x="548" y="482" on="1"/>
        <pt x="548" y="414" on="0"/>
        <pt x="507" y="323" on="0"/>
        <pt x="443" y="268" on="0"/>
        <pt x="367" y="245" on="0"/>
        <pt x="332" y="245" on="1"/>
      </contour>
      <contour>
        <pt x="180" y="615" on="1"/>
        <pt x="180" y="330" on="1"/>
        <pt x="314" y="330" on="1"/>
        <pt x="387" y="330" on="0"/>
        <pt x="449" y="407" on="0"/>
        <pt x="449" y="478" on="1"/>
        <pt x="449" y="515" on="0"/>
        <pt x="433" y="568" on="0"/>
        <pt x="395" y="600" on="0"/>
        <pt x="332" y="615" on="0"/>
        <pt x="286" y="615" on="1"/>
      </contour>
    </TTGlyph>
    <TTGlyph name="P.sc" xMin="74" yMin="0" xMax="483" yMax="560">
      <contour>
        <pt x="289" y="188" on="1"/>
        <pt x="170" y="188" on="1"/>
        <pt x="170" y="0" on="1"/>
        <pt x="74" y="0" on="1"/>
        <pt x="74" y="560" on="1"/>
        <pt x="254" y="560" on="1"/>
        <pt x="308" y="560" on="0"/>
        <pt x="394" y="545" on="0"/>
        <pt x="454" y="506" on="0"/>
        <pt x="483" y="438" on="0"/>
        <pt x="483" y="384" on="1"/>
        <pt x="483" y="328" on="0"/>
        <pt x="447" y="253" on="0"/>
        <pt x="391" y="208" on="0"/>
        <pt x="322" y="188" on="0"/>
      </contour>
      <contour>
        <pt x="260" y="481" on="1"/>
        <pt x="170" y="481" on="1"/>
        <pt x="170" y="274" on="1"/>
        <pt x="274" y="274" on="1"/>
        <pt x="334" y="274" on="0"/>
        <pt x="387" y="325" on="0"/>
        <pt x="387" y="382" on="1"/>
        <pt x="387" y="436" on="0"/>
        <pt x="332" y="481" on="0"/>
      </contour>
    </TTGlyph>
    <TTGlyph name="Q" xMin="39" yMin="-14" xMax="729" yMax="714">
      <contour>
        <pt x="715" y="62" on="1"/>
        <pt x="665" y="3" on="1"/>
        <pt x="600" y="57" on="1"/>
        <pt x="500" y="-14" on="0"/>
        <pt x="384" y="-14" on="1"/>
        <pt x="308" y="-14" on="0"/>
        <pt x="181" y="38" on="0"/>
        <pt x="90" y="133" on="0"/>
        <pt x="39" y="267" on="0"/>
        <pt x="39" y="350" on="1"/>
        <pt x="39" y="433" on="0"/>
        <pt x="91" y="567" on="0"/>
        <pt x="182" y="662" on="0"/>
        <pt x="309" y="714" on="0"/>
        <pt x="384" y="714" on="1"/>
        <pt x="459" y="714" on="0"/>
        <pt x="586" y="662" on="0"/>
        <pt x="678" y="566" on="0"/>
        <pt x="729" y="432" on="0"/>
        <pt x="729" y="350" on="1"/>
        <pt x="729" y="221" on="0"/>
        <pt x="655" y="111" on="1"/>
      </contour>
      <contour>
        <pt x="384" y="628" on="1"/>
        <pt x="325" y="628" on="0"/>
        <pt x="236" y="587" on="0"/>
        <pt x="174" y="513" on="0"/>
        <pt x="143" y="411" on="0"/>
        <pt x="143" y="350" on="1"/>
        <pt x="143" y="290" on="0"/>
        <pt x="174" y="188" on="0"/>
        <pt x="234" y="114" on="0"/>
        <pt x="324" y="72" on="0"/>
        <pt x="384" y="72" on="1"/>
        <pt x="480" y="72" on="0"/>
        <pt x="535" y="112" on="1"/>
        <pt x="432" y="196" on="1"/>
        <pt x="482" y="257" on="1"/>
        <pt x="587" y="164" on="1"/>
        <pt x="635" y="239" on="0"/>
        <pt x="635" y="350" on="1"/>
        <pt x="635" y="410" on="0"/>
        <pt x="601" y="511" on="0"/>
        <pt x="536" y="586" on="0"/>
        <pt x="443" y="628" on="0"/>
      </contour>
    </TTGlyph>
    <TTGlyph name="Q.sc" xMin="39" yMin="-11" xMax="626" yMax="571">
      <contour>
        <pt x="619" y="58" on="1"/>
        <pt x="567" y="-4" on="1"/>
        <pt x="510" y="40" on="1"/>
        <pt x="432" y="-11" on="0"/>
        <pt x="332" y="-11" on="1"/>
        <pt x="268" y="-11" on="0"/>
        <pt x="160" y="31" on="0"/>
        <pt x="82" y="107" on="0"/>
        <pt x="39" y="215" on="0"/>
        <pt x="39" y="280" on="1"/>
        <pt x="39" y="345" on="0"/>
        <pt x="82" y="452" on="0"/>
        <pt x="160" y="529" on="0"/>
        <pt x="268" y="571" on="0"/>
        <pt x="332" y="571" on="1"/>
        <pt x="396" y="571" on="0"/>
        <pt x="504" y="529" on="0"/>
        <pt x="582" y="452" on="0"/>
        <pt x="626" y="345" on="0"/>
        <pt x="626" y="280" on="1"/>
        <pt x="626" y="179" on="0"/>
        <pt x="567" y="99" on="1"/>
      </contour>
      <contour>
        <pt x="332" y="483" on="1"/>
        <pt x="286" y="483" on="0"/>
        <pt x="215" y="454" on="0"/>
        <pt x="166" y="400" on="0"/>
        <pt x="141" y="325" on="0"/>
        <pt x="141" y="280" on="1"/>
        <pt x="141" y="235" on="0"/>
        <pt x="166" y="160" on="0"/>
        <pt x="215" y="106" on="0"/>
        <pt x="286" y="77" on="0"/>
        <pt x="332" y="77" on="1"/>
        <pt x="397" y="77" on="0"/>
        <pt x="441" y="100" on="1"/>
        <pt x="361" y="160" on="1"/>
        <pt x="412" y="224" on="1"/>
        <pt x="495" y="159" on="1"/>
        <pt x="528" y="205" on="0"/>
        <pt x="528" y="280" on="1"/>
        <pt x="528" y="325" on="0"/>
        <pt x="502" y="400" on="0"/>
        <pt x="451" y="454" on="0"/>
        <pt x="378" y="483" on="0"/>
      </contour>
    </TTGlyph>
    <TTGlyph name="R" xMin="80" yMin="0" xMax="584" yMax="700">
      <contour>
        <pt x="584" y="0" on="1"/>
        <pt x="482" y="0" on="1"/>
        <pt x="327" y="273" on="1"/>
        <pt x="180" y="273" on="1"/>
        <pt x="180" y="0" on="1"/>
        <pt x="80" y="0" on="1"/>
        <pt x="80" y="700" on="1"/>
        <pt x="307" y="700" on="1"/>
        <pt x="365" y="700" on="0"/>
        <pt x="456" y="678" on="0"/>
        <pt x="517" y="629" on="0"/>
        <pt x="549" y="551" on="0"/>
        <pt x="549" y="495" on="1"/>
        <pt x="549" y="429" on="0"/>
        <pt x="482" y="326" on="0"/>
        <pt x="421" y="298" on="1"/>
      </contour>
      <contour>
        <pt x="306" y="623" on="1"/>
        <pt x="180" y="623" on="1"/>
        <pt x="180" y="365" on="1"/>
        <pt x="331" y="365" on="1"/>
        <pt x="355" y="365" on="0"/>
        <pt x="398" y="381" on="0"/>
        <pt x="431" y="413" on="0"/>
        <pt x="450" y="462" on="0"/>
        <pt x="450" y="495" on="1"/>
        <pt x="450" y="556" on="0"/>
        <pt x="378" y="623" on="0"/>
      </contour>
    </TTGlyph>
    <TTGlyph name="R.sc" xMin="74" yMin="0" xMax="515" yMax="560">
      <contour>
        <pt x="515" y="0" on="1"/>
        <pt x="416" y="0" on="1"/>
        <pt x="288" y="212" on="1"/>
        <pt x="170" y="212" on="1"/>
        <pt x="170" y="0" on="1"/>
        <pt x="74" y="0" on="1"/>
        <pt x="74" y="560" on="1"/>
        <pt x="278" y="560" on="1"/>
        <pt x="483" y="560" on="0"/>
        <pt x="483" y="398" on="1"/>
        <pt x="483" y="288" on="0"/>
        <pt x="378" y="236" on="1"/>
      </contour>
      <contour>
        <pt x="266" y="483" on="1"/>
        <pt x="170" y="483" on="1"/>
        <pt x="170" y="300" on="1"/>
        <pt x="276" y="300" on="1"/>
        <pt x="328" y="300" on="0"/>
        <pt x="386" y="348" on="0"/>
        <pt x="386" y="393" on="1"/>
        <pt x="386" y="483" on="0"/>
      </contour>
    </TTGlyph>
    <TTGlyph name="S" xMin="40" yMin="-14" xMax="553" yMax="714">
      <contour>
        <pt x="280" y="-14" on="1"/>
        <pt x="135" y="-14" on="0"/>
        <pt x="51" y="31" on="1"/>
        <pt x="64" y="142" on="1"/>
        <pt x="158" y="72" on="0"/>
        <pt x="282" y="72" on="1"/>
        <pt x="318" y="72" on="0"/>
        <pt x="379" y="85" on="0"/>
        <pt x="424" y="112" on="0"/>
        <pt x="449" y="153" on="0"/>
        <pt x="449" y="180" on="1"/>
        <pt x="449" y="208" on="0"/>
        <pt x="423" y="249" on="0"/>
        <pt x="376" y="281" on="0"/>
        <pt x="309" y="307" on="0"/>
        <pt x="268" y="321" on="1"/>
        <pt x="198" y="344" on="1"/>
        <pt x="113" y="372" on="0"/>
        <pt x="40" y="455" on="0"/>
        <pt x="40" y="512" on="1"/>
        <pt x="40" y="542" on="0"/>
        <pt x="64" y="613" on="0"/>
        <pt x="121" y="674" on="0"/>
        <pt x="218" y="714" on="0"/>
        <pt x="292" y="714" on="1"/>
        <pt x="322" y="714" on="0"/>
        <pt x="386" y="706" on="0"/>
        <pt x="445" y="693" on="0"/>
        <pt x="495" y="675" on="0"/>
        <pt x="512" y="666" on="1"/>
        <pt x="502" y="565" on="1"/>
        <pt x="376" y="628" on="0"/>
        <pt x="301" y="628" on="1"/>
        <pt x="272" y="628" on="0"/>
        <pt x="215" y="616" on="0"/>
        <pt x="171" y="590" on="0"/>
        <pt x="144" y="552" on="0"/>
        <pt x="144" y="525" on="1"/>
        <pt x="144" y="481" on="0"/>
        <pt x="219" y="432" on="0"/>
        <pt x="295" y="408" on="1"/>
        <pt x="316" y="401" on="0"/>
        <pt x="335" y="397" on="0"/>
        <pt x="353" y="392" on="0"/>
        <pt x="384" y="381" on="0"/>
        <pt x="418" y="366" on="1"/>
        <pt x="452" y="348" on="1"/>
        <pt x="465" y="341" on="0"/>
        <pt x="482" y="331" on="0"/>
        <pt x="487" y="326" on="1"/>
        <pt x="512" y="300" on="1"/>
        <pt x="535" y="276" on="0"/>
        <pt x="550" y="220" on="0"/>
        <pt x="553" y="181" on="1"/>
        <pt x="553" y="151" on="0"/>
        <pt x="535" y="84" on="0"/>
        <pt x="477" y="26" on="0"/>
        <pt x="370" y="-13" on="0"/>
      </contour>
    </TTGlyph>
    <TTGlyph name="S.sc" xMin="41" yMin="-11" xMax="477" yMax="571">
      <contour>
        <pt x="246" y="-11" on="1"/>
        <pt x="117" y="-11" on="0"/>
        <pt x="50" y="28" on="1"/>
        <pt x="62" y="135" on="1"/>
        <pt x="133" y="77" on="0"/>
        <pt x="248" y="77" on="1"/>
        <pt x="374" y="77" on="0"/>
        <pt x="374" y="147" on="1"/>
        <pt x="374" y="171" on="0"/>
        <pt x="345" y="205" on="0"/>
        <pt x="292" y="231" on="0"/>
        <pt x="217" y="254" on="0"/>
        <pt x="171" y="268" on="1"/>
        <pt x="123" y="289" on="1"/>
        <pt x="88" y="304" on="0"/>
        <pt x="41" y="358" on="0"/>
        <pt x="41" y="406" on="1"/>
        <pt x="41" y="437" on="0"/>
        <pt x="67" y="497" on="0"/>
        <pt x="119" y="543" on="0"/>
        <pt x="200" y="571" on="0"/>
        <pt x="256" y="571" on="1"/>
        <pt x="283" y="571" on="0"/>
        <pt x="338" y="564" on="0"/>
        <pt x="387" y="553" on="0"/>
        <pt x="429" y="538" on="0"/>
        <pt x="444" y="530" on="1"/>
        <pt x="434" y="434" on="1"/>
        <pt x="332" y="484" on="0"/>
        <pt x="262" y="484" on="1"/>
        <pt x="238" y="484" on="0"/>
        <pt x="193" y="476" on="0"/>
        <pt x="159" y="460" on="0"/>
        <pt x="139" y="434" on="0"/>
        <pt x="139" y="416" on="1"/>
        <pt x="139" y="392" on="0"/>
        <pt x="165" y="366" on="0"/>
        <pt x="218" y="346" on="0"/>
        <pt x="296" y="324" on="0"/>
        <pt x="349" y="304" on="1"/>
        <pt x="372" y="295" on="0"/>
        <pt x="418" y="271" on="0"/>
        <pt x="454" y="236" on="0"/>
        <pt x="477" y="185" on="0"/>
        <pt x="477" y="149" on="1"/>
        <pt x="477" y="125" on="0"/>
        <pt x="462" y="69" on="0"/>
        <pt x="413" y="21" on="0"/>
        <pt x="322" y="-11" on="0"/>
      </contour>
    </TTGlyph>
    <TTGlyph name="Scaron" xMin="40" yMin="-14" xMax="553" yMax="949">
      <component glyphName="S" x="0" y="0" flags="0x204"/>
      <component glyphName="caron" x="69" y="209" flags="0x4"/>
    </TTGlyph>
    <TTGlyph name="T" xMin="15" yMin="0" xMax="518" yMax="700">
      <contour>
        <pt x="518" y="614" on="1"/>
        <pt x="314" y="614" on="1"/>
        <pt x="314" y="0" on="1"/>
        <pt x="219" y="0" on="1"/>
        <pt x="219" y="614" on="1"/>
        <pt x="15" y="614" on="1"/>
        <pt x="15" y="700" on="1"/>
        <pt x="518" y="700" on="1"/>
      </contour>
    </TTGlyph>
    <TTGlyph name="T.sc" xMin="17" yMin="0" xMax="453" yMax="560">
      <contour>
        <pt x="453" y="472" on="1"/>
        <pt x="282" y="472" on="1"/>
        <pt x="282" y="0" on="1"/>
        <pt x="188" y="0" on="1"/>
        <pt x="188" y="472" on="1"/>
        <pt x="17" y="472" on="1"/>
        <pt x="17" y="560" on="1"/>
        <pt x="453" y="560" on="1"/>
      </contour>
    </TTGlyph>
    <TTGlyph name="Thorn" xMin="80" yMin="0" xMax="548" yMax="700">
      <contour>
        <pt x="180" y="125" on="1"/>
        <pt x="180" y="0" on="1"/>
        <pt x="80" y="0" on="1"/>
        <pt x="80" y="700" on="1"/>
        <pt x="180" y="700" on="1"/>
        <pt x="180" y="580" on="1"/>
        <pt x="304" y="580" on="1"/>
        <pt x="353" y="580" on="0"/>
        <pt x="441" y="565" on="0"/>
        <pt x="508" y="518" on="0"/>
        <pt x="548" y="432" on="0"/>
        <pt x="548" y="362" on="1"/>
        <pt x="548" y="294" on="0"/>
        <pt x="507" y="203" on="0"/>
        <pt x="443" y="148" on="0"/>
        <pt x="367" y="125" on="0"/>
        <pt x="332" y="125" on="1"/>
      </contour>
      <contour>
        <pt x="180" y="495" on="1"/>
        <pt x="180" y="210" on="1"/>
        <pt x="314" y="210" on="1"/>
        <pt x="387" y="210" on="0"/>
        <pt x="449" y="287" on="0"/>
        <pt x="449" y="358" on="1"/>
        <pt x="449" y="395" on="0"/>
        <pt x="433" y="448" on="0"/>
        <pt x="395" y="480" on="0"/>
        <pt x="332" y="495" on="0"/>
        <pt x="286" y="495" on="1"/>
      </contour>
    </TTGlyph>
    <TTGlyph name="U" xMin="72" yMin="-14" xMax="652" yMax="700">
      <contour>
        <pt x="72" y="297" on="1"/>
        <pt x="72" y="700" on="1"/>
        <pt x="167" y="700" on="1"/>
        <pt x="167" y="343" on="1"/>
        <pt x="167" y="292" on="0"/>
        <pt x="181" y="195" on="0"/>
        <pt x="222" y="118" on="0"/>
        <pt x="299" y="72" on="0"/>
        <pt x="362" y="72" on="1"/>
        <pt x="425" y="72" on="0"/>
        <pt x="502" y="120" on="0"/>
        <pt x="544" y="196" on="0"/>
        <pt x="557" y="293" on="0"/>
        <pt x="557" y="343" on="1"/>
        <pt x="557" y="700" on="1"/>
        <pt x="652" y="700" on="1"/>
        <pt x="652" y="297" on="1"/>
        <pt x="652" y="149" on="0"/>
        <pt x="507" y="-14" on="0"/>
        <pt x="362" y="-14" on="1"/>
        <pt x="217" y="-14" on="0"/>
        <pt x="72" y="149" on="0"/>
      </contour>
    </TTGlyph>
    <TTGlyph name="U.sc" xMin="67" yMin="-11" xMax="560" yMax="560">
      <contour>
        <pt x="314" y="-11" on="1"/>
        <pt x="191" y="-11" on="0"/>
        <pt x="67" y="122" on="0"/>
        <pt x="67" y="239" on="1"/>
        <pt x="67" y="560" on="1"/>
        <pt x="160" y="560" on="1"/>
        <pt x="160" y="274" on="1"/>
        <pt x="160" y="228" on="0"/>
        <pt x="174" y="155" on="0"/>
        <pt x="210" y="104" on="0"/>
        <pt x="269" y="77" on="0"/>
        <pt x="314" y="77" on="1"/>
        <pt x="361" y="77" on="0"/>
        <pt x="421" y="107" on="0"/>
        <pt x="455" y="160" on="0"/>
        <pt x="467" y="232" on="0"/>
        <pt x="467" y="274" on="1"/>
        <pt x="467" y="560" on="1"/>
        <pt x="560" y="560" on="1"/>
        <pt x="560" y="239" on="1"/>
        <pt x="560" y="121" on="0"/>
        <pt x="437" y="-11" on="0"/>
      </contour>
    </TTGlyph>
    <TTGlyph name="Uacute" xMin="72" yMin="-14" xMax="652" yMax="941">
      <component glyphName="U" x="0" y="0" flags="0x4"/>
      <component glyphName="acute" x="211" y="209" flags="0x4"/>
    </TTGlyph>
    <TTGlyph name="Ucircumflex" xMin="72" yMin="-14" xMax="652" yMax="954">
      <component glyphName="U" x="0" y="0" flags="0x4"/>
      <component glyphName="circumflex" x="139" y="209" flags="0x4"/>
    </TTGlyph>
    <TTGlyph name="Udieresis" xMin="72" yMin="-14" xMax="652" yMax="909">
      <component glyphName="U" x="0" y="0" flags="0x4"/>
      <component glyphName="dieresis" x="152" y="209" flags="0x4"/>
    </TTGlyph>
    <TTGlyph name="Ugrave" xMin="72" yMin="-14" xMax="652" yMax="941">
      <component glyphName="U" x="0" y="0" flags="0x4"/>
      <component glyphName="grave" x="211" y="209" flags="0x4"/>
    </TTGlyph>
    <TTGlyph name="V" xMin="4" yMin="0" xMax="640" yMax="700">
      <contour>
        <pt x="640" y="700" on="1"/>
        <pt x="372" y="0" on="1"/>
        <pt x="272" y="0" on="1"/>
        <pt x="4" y="700" on="1"/>
        <pt x="104" y="700" on="1"/>
        <pt x="323" y="109" on="1"/>
        <pt x="540" y="700" on="1"/>
      </contour>
    </TTGlyph>
    <TTGlyph name="V.sc" xMin="6" yMin="0" xMax="554" yMax="560">
      <contour>
        <pt x="554" y="560" on="1"/>
        <pt x="334" y="0" on="1"/>
        <pt x="228" y="0" on="1"/>
        <pt x="6" y="560" on="1"/>
        <pt x="104" y="560" on="1"/>
        <pt x="281" y="118" on="1"/>
        <pt x="456" y="560" on="1"/>
      </contour>
    </TTGlyph>
    <TTGlyph name="W" xMin="14" yMin="0" xMax="961" yMax="700">
      <contour>
        <pt x="961" y="700" on="1"/>
        <pt x="756" y="0" on="1"/>
        <pt x="651" y="0" on="1"/>
        <pt x="486" y="574" on="1"/>
        <pt x="315" y="0" on="1"/>
        <pt x="210" y="0" on="1"/>
        <pt x="14" y="700" on="1"/>
        <pt x="114" y="700" on="1"/>
        <pt x="269" y="108" on="1"/>
        <pt x="444" y="686" on="1"/>
        <pt x="530" y="686" on="1"/>
        <pt x="707" y="109" on="1"/>
        <pt x="861" y="700" on="1"/>
      </contour>
    </TTGlyph>
    <TTGlyph name="W.sc" xMin="17" yMin="0" xMax="822" yMax="560">
      <contour>
        <pt x="822" y="560" on="1"/>
        <pt x="648" y="0" on="1"/>
        <pt x="555" y="0" on="1"/>
        <pt x="419" y="404" on="1"/>
        <pt x="279" y="0" on="1"/>
        <pt x="184" y="0" on="1"/>
        <pt x="17" y="560" on="1"/>
        <pt x="115" y="560" on="1"/>
        <pt x="241" y="135" on="1"/>
        <pt x="382" y="556" on="1"/>
        <pt x="456" y="556" on="1"/>
        <pt x="601" y="142" on="1"/>
        <pt x="724" y="560" on="1"/>
      </contour>
    </TTGlyph>
    <TTGlyph name="X" xMin="9" yMin="0" xMax="594" yMax="700">
      <contour>
        <pt x="594" y="0" on="1"/>
        <pt x="494" y="0" on="1"/>
        <pt x="292" y="286" on="1"/>
        <pt x="109" y="0" on="1"/>
        <pt x="9" y="0" on="1"/>
        <pt x="244" y="349" on="1"/>
        <pt x="9" y="700" on="1"/>
        <pt x="119" y="700" on="1"/>
        <pt x="299" y="427" on="1"/>
        <pt x="493" y="700" on="1"/>
        <pt x="593" y="700" on="1"/>
        <pt x="343" y="361" on="1"/>
      </contour>
    </TTGlyph>
    <TTGlyph name="X.sc" xMin="14" yMin="0" xMax="529" yMax="560">
      <contour>
        <pt x="529" y="0" on="1"/>
        <pt x="425" y="0" on="1"/>
        <pt x="266" y="214" on="1"/>
        <pt x="117" y="0" on="1"/>
        <pt x="14" y="0" on="1"/>
        <pt x="218" y="279" on="1"/>
        <pt x="18" y="560" on="1"/>
        <pt x="126" y="560" on="1"/>
        <pt x="272" y="355" on="1"/>
        <pt x="420" y="560" on="1"/>
        <pt x="523" y="560" on="1"/>
        <pt x="318" y="290" on="1"/>
      </contour>
    </TTGlyph>
    <TTGlyph name="Y" xMin="-3" yMin="0" xMax="569" yMax="700">
      <contour>
        <pt x="569" y="700" on="1"/>
        <pt x="333" y="323" on="1"/>
        <pt x="333" y="0" on="1"/>
        <pt x="234" y="0" on="1"/>
        <pt x="234" y="323" on="1"/>
        <pt x="-3" y="700" on="1"/>
        <pt x="97" y="700" on="1"/>
        <pt x="283" y="409" on="1"/>
        <pt x="469" y="700" on="1"/>
      </contour>
    </TTGlyph>
    <TTGlyph name="Y.sc" xMin="1" yMin="0" xMax="503" yMax="560">
      <contour>
        <pt x="503" y="560" on="1"/>
        <pt x="300" y="252" on="1"/>
        <pt x="300" y="0" on="1"/>
        <pt x="204" y="0" on="1"/>
        <pt x="204" y="252" on="1"/>
        <pt x="1" y="560" on="1"/>
        <pt x="100" y="560" on="1"/>
        <pt x="252" y="335" on="1"/>
        <pt x="404" y="560" on="1"/>
      </contour>
    </TTGlyph>
    <TTGlyph name="Yacute" xMin="-3" yMin="0" xMax="569" yMax="941">
      <component glyphName="Y" x="0" y="0" flags="0x204"/>
      <component glyphName="acute" x="144" y="209" flags="0x4"/>
    </TTGlyph>
    <TTGlyph name="Ydieresis" xMin="-3" yMin="0" xMax="569" yMax="909">
      <component glyphName="Y" x="0" y="0" flags="0x204"/>
      <component glyphName="dieresis" x="85" y="209" flags="0x4"/>
    </TTGlyph>
    <TTGlyph name="Z" xMin="9" yMin="0" xMax="542" yMax="700">
      <contour>
        <pt x="542" y="700" on="1"/>
        <pt x="165" y="86" on="1"/>
        <pt x="497" y="86" on="1"/>
        <pt x="497" y="0" on="1"/>
        <pt x="9" y="0" on="1"/>
        <pt x="385" y="614" on="1"/>
        <pt x="54" y="614" on="1"/>
        <pt x="54" y="700" on="1"/>
      </contour>
    </TTGlyph>
    <TTGlyph name="Z.sc" xMin="15" yMin="0" xMax="468" yMax="560">
      <contour>
        <pt x="468" y="560" on="1"/>
        <pt x="169" y="88" on="1"/>
        <pt x="430" y="88" on="1"/>
        <pt x="430" y="0" on="1"/>
        <pt x="15" y="0" on="1"/>
        <pt x="314" y="472" on="1"/>
        <pt x="53" y="472" on="1"/>
        <pt x="53" y="560" on="1"/>
      </contour>
    </TTGlyph>
    <TTGlyph name="Zcaron" xMin="9" yMin="0" xMax="542" yMax="949">
      <component glyphName="Z" x="0" y="0" flags="0x204"/>
      <component glyphName="caron" x="60" y="209" flags="0x4"/>
    </TTGlyph>
    <TTGlyph name="a" xMin="24" yMin="-10" xMax="472" yMax="500">
      <contour>
        <pt x="472" y="62" on="1"/>
        <pt x="458" y="-10" on="1"/>
        <pt x="451" y="-10" on="1"/>
        <pt x="421" y="-10" on="0"/>
        <pt x="381" y="-3" on="0"/>
        <pt x="353" y="14" on="0"/>
        <pt x="334" y="42" on="0"/>
        <pt x="325" y="62" on="1"/>
        <pt x="263" y="-10" on="0"/>
        <pt x="175" y="-10" on="1"/>
        <pt x="106" y="-10" on="0"/>
        <pt x="24" y="69" on="0"/>
        <pt x="24" y="132" on="1"/>
        <pt x="24" y="183" on="0"/>
        <pt x="79" y="249" on="0"/>
        <pt x="164" y="289" on="0"/>
        <pt x="268" y="306" on="0"/>
        <pt x="317" y="307" on="1"/>
        <pt x="317" y="373" on="0"/>
        <pt x="266" y="420" on="0"/>
        <pt x="210" y="420" on="1"/>
        <pt x="146" y="420" on="0"/>
        <pt x="81" y="376" on="1"/>
        <pt x="68" y="449" on="1"/>
        <pt x="134" y="500" on="0"/>
        <pt x="234" y="500" on="1"/>
        <pt x="281" y="500" on="0"/>
        <pt x="347" y="475" on="0"/>
        <pt x="388" y="420" on="0"/>
        <pt x="407" y="330" on="0"/>
        <pt x="407" y="265" on="1"/>
        <pt x="407" y="165" on="1"/>
        <pt x="407" y="107" on="0"/>
        <pt x="427" y="62" on="0"/>
        <pt x="463" y="62" on="1"/>
      </contour>
      <contour>
        <pt x="317" y="128" on="1"/>
        <pt x="317" y="245" on="1"/>
        <pt x="209" y="241" on="0"/>
        <pt x="116" y="192" on="0"/>
        <pt x="116" y="137" on="1"/>
        <pt x="116" y="62" on="0"/>
        <pt x="192" y="62" on="1"/>
        <pt x="228" y="62" on="0"/>
        <pt x="295" y="98" on="0"/>
      </contour>
    </TTGlyph>
    <TTGlyph name="aacute" xMin="24" yMin="-10" xMax="472" yMax="732">
      <component glyphName="a" x="0" y="0" flags="0x204"/>
      <component glyphName="acute" x="88" y="0" flags="0x4"/>
    </TTGlyph>
    <TTGlyph name="acircumflex" xMin="24" yMin="-10" xMax="472" yMax="745">
      <component glyphName="a" x="0" y="0" flags="0x204"/>
      <component glyphName="circumflex" x="17" y="0" flags="0x4"/>
    </TTGlyph>
    <TTGlyph name="acute" xMin="58" yMin="596" xMax="245" yMax="732">
      <contour>
        <pt x="245" y="660" on="1"/>
        <pt x="58" y="596" on="1"/>
        <pt x="58" y="637" on="1"/>
        <pt x="245" y="732" on="1"/>
      </contour>
    </TTGlyph>
    <TTGlyph name="adieresis" xMin="24" yMin="-10" xMax="472" yMax="700">
      <component glyphName="a" x="0" y="0" flags="0x204"/>
      <component glyphName="dieresis" x="29" y="0" flags="0x4"/>
    </TTGlyph>
    <TTGlyph name="ae" xMin="22" yMin="-14" xMax="768" yMax="500">
      <contour>
        <pt x="764" y="245" on="1"/>
        <pt x="428" y="245" on="1"/>
        <pt x="428" y="155" on="0"/>
        <pt x="518" y="62" on="0"/>
        <pt x="593" y="62" on="1"/>
        <pt x="611" y="62" on="0"/>
        <pt x="637" y="65" on="0"/>
        <pt x="666" y="74" on="0"/>
        <pt x="701" y="88" on="0"/>
        <pt x="727" y="99" on="1"/>
        <pt x="744" y="30" on="1"/>
        <pt x="657" y="-10" on="0"/>
        <pt x="581" y="-10" on="1"/>
        <pt x="433" y="-10" on="0"/>
        <pt x="380" y="103" on="1"/>
        <pt x="354" y="46" on="0"/>
        <pt x="244" y="-14" on="0"/>
        <pt x="172" y="-14" on="1"/>
        <pt x="97" y="-14" on="0"/>
        <pt x="22" y="55" on="0"/>
        <pt x="22" y="118" on="1"/>
        <pt x="22" y="292" on="0"/>
        <pt x="323" y="307" on="1"/>
        <pt x="314" y="368" on="0"/>
        <pt x="261" y="420" on="0"/>
        <pt x="205" y="420" on="1"/>
        <pt x="152" y="420" on="0"/>
        <pt x="83" y="391" on="1"/>
        <pt x="75" y="461" on="1"/>
        <pt x="159" y="500" on="0"/>
        <pt x="231" y="500" on="1"/>
        <pt x="251" y="500" on="0"/>
        <pt x="301" y="489" on="0"/>
        <pt x="348" y="462" on="0"/>
        <pt x="384" y="416" on="0"/>
        <pt x="390" y="380" on="1"/>
        <pt x="400" y="411" on="0"/>
        <pt x="437" y="456" on="0"/>
        <pt x="486" y="486" on="0"/>
        <pt x="545" y="500" on="0"/>
        <pt x="577" y="500" on="1"/>
        <pt x="665" y="500" on="0"/>
        <pt x="768" y="396" on="0"/>
        <pt x="768" y="300" on="1"/>
        <pt x="768" y="289" on="0"/>
        <pt x="766" y="261" on="0"/>
      </contour>
      <contour>
        <pt x="573" y="420" on="1"/>
        <pt x="466" y="420" on="0"/>
        <pt x="436" y="307" on="1"/>
        <pt x="682" y="307" on="1"/>
        <pt x="682" y="420" on="0"/>
      </contour>
      <contour>
        <pt x="331" y="245" on="1"/>
        <pt x="295" y="245" on="0"/>
        <pt x="219" y="233" on="0"/>
        <pt x="155" y="204" on="0"/>
        <pt x="114" y="159" on="0"/>
        <pt x="114" y="126" on="1"/>
        <pt x="114" y="62" on="0"/>
        <pt x="192" y="62" on="1"/>
        <pt x="220" y="62" on="0"/>
        <pt x="271" y="79" on="0"/>
        <pt x="310" y="113" on="0"/>
        <pt x="333" y="164" on="0"/>
        <pt x="333" y="198" on="1"/>
        <pt x="333" y="212" on="0"/>
        <pt x="332" y="236" on="0"/>
      </contour>
    </TTGlyph>
    <TTGlyph name="agrave" xMin="24" yMin="-10" xMax="472" yMax="732">
      <component glyphName="a" x="0" y="0" flags="0x204"/>
      <component glyphName="grave" x="89" y="0" flags="0x4"/>
    </TTGlyph>
    <TTGlyph name="ampersand" xMin="36" yMin="-23" xMax="593" yMax="703">
      <contour>
        <pt x="593" y="0" on="1"/>
        <pt x="501" y="0" on="1"/>
        <pt x="457" y="46" on="1"/>
        <pt x="413" y="8" on="0"/>
        <pt x="327" y="-23" on="0"/>
        <pt x="269" y="-23" on="1"/>
        <pt x="209" y="-23" on="0"/>
        <pt x="122" y="4" on="0"/>
        <pt x="64" y="53" on="0"/>
        <pt x="36" y="121" on="0"/>
        <pt x="36" y="162" on="1"/>
        <pt x="36" y="277" on="0"/>
        <pt x="162" y="366" on="1"/>
        <pt x="87" y="457" on="0"/>
        <pt x="87" y="536" on="1"/>
        <pt x="87" y="575" on="0"/>
        <pt x="118" y="636" on="0"/>
        <pt x="171" y="680" on="0"/>
        <pt x="242" y="703" on="0"/>
        <pt x="282" y="703" on="1"/>
        <pt x="354" y="703" on="0"/>
        <pt x="425" y="634" on="0"/>
        <pt x="425" y="577" on="1"/>
        <pt x="425" y="458" on="0"/>
        <pt x="261" y="356" on="1"/>
        <pt x="451" y="161" on="1"/>
        <pt x="483" y="202" on="0"/>
        <pt x="490" y="351" on="1"/>
        <pt x="571" y="351" on="1"/>
        <pt x="567" y="195" on="0"/>
        <pt x="506" y="100" on="1"/>
      </contour>
      <contour>
        <pt x="270" y="634" on="1"/>
        <pt x="227" y="634" on="0"/>
        <pt x="168" y="582" on="0"/>
        <pt x="168" y="534" on="1"/>
        <pt x="168" y="473" on="0"/>
        <pt x="223" y="406" on="1"/>
        <pt x="276" y="447" on="1"/>
        <pt x="296" y="464" on="1"/>
        <pt x="325" y="489" on="0"/>
        <pt x="349" y="533" on="0"/>
        <pt x="349" y="559" on="1"/>
        <pt x="349" y="595" on="0"/>
        <pt x="306" y="634" on="0"/>
      </contour>
      <contour>
        <pt x="412" y="105" on="1"/>
        <pt x="204" y="313" on="1"/>
        <pt x="123" y="256" on="0"/>
        <pt x="123" y="169" on="1"/>
        <pt x="123" y="114" on="0"/>
        <pt x="198" y="45" on="0"/>
        <pt x="271" y="45" on="1"/>
        <pt x="359" y="45" on="0"/>
      </contour>
    </TTGlyph>
    <TTGlyph name="aring" xMin="24" yMin="-10" xMax="472" yMax="755">
      <component glyphName="a" x="0" y="0" flags="0x204"/>
      <component glyphName="ring" x="95" y="0" flags="0x4"/>
    </TTGlyph>
    <TTGlyph name="asciicircum" xMin="49" yMin="437" xMax="461" yMax="759">
      <contour>
        <pt x="461" y="437" on="1"/>
        <pt x="255" y="653" on="1"/>
        <pt x="49" y="437" on="1"/>
        <pt x="49" y="543" on="1"/>
        <pt x="255" y="759" on="1"/>
        <pt x="461" y="543" on="1"/>
      </contour>
    </TTGlyph>
    <TTGlyph name="asciitilde" xMin="54" yMin="179" xMax="400" yMax="282">
      <contour>
        <pt x="293" y="179" on="1"/>
        <pt x="281" y="179" on="0"/>
        <pt x="247" y="195" on="0"/>
        <pt x="203" y="214" on="0"/>
        <pt x="171" y="230" on="0"/>
        <pt x="161" y="230" on="1"/>
        <pt x="108" y="230" on="0"/>
        <pt x="90" y="181" on="1"/>
        <pt x="54" y="190" on="1"/>
        <pt x="60" y="212" on="0"/>
        <pt x="82" y="246" on="0"/>
        <pt x="110" y="269" on="0"/>
        <pt x="142" y="280" on="0"/>
        <pt x="157" y="280" on="1"/>
        <pt x="170" y="280" on="0"/>
        <pt x="206" y="265" on="0"/>
        <pt x="252" y="246" on="0"/>
        <pt x="284" y="231" on="0"/>
        <pt x="297" y="231" on="1"/>
        <pt x="339" y="231" on="0"/>
        <pt x="366" y="282" on="1"/>
        <pt x="400" y="273" on="1"/>
        <pt x="389" y="230" on="0"/>
        <pt x="331" y="179" on="0"/>
      </contour>
    </TTGlyph>
    <TTGlyph name="asterisk" xMin="33" yMin="424" xMax="393" yMax="749">
      <contour>
        <pt x="315" y="427" on="1"/>
        <pt x="213" y="560" on="1"/>
        <pt x="113" y="424" on="1"/>
        <pt x="81" y="456" on="1"/>
        <pt x="189" y="573" on="1"/>
        <pt x="33" y="638" on="1"/>
        <pt x="56" y="679" on="1"/>
        <pt x="204" y="593" on="1"/>
        <pt x="191" y="749" on="1"/>
        <pt x="237" y="749" on="1"/>
        <pt x="221" y="593" on="1"/>
        <pt x="370" y="679" on="1"/>
        <pt x="393" y="637" on="1"/>
        <pt x="235" y="574" on="1"/>
        <pt x="348" y="459" on="1"/>
      </contour>
    </TTGlyph>
    <TTGlyph name="at" xMin="49" yMin="-87" xMax="675" yMax="553">
      <contour>
        <pt x="545" y="379" on="1"/>
        <pt x="494" y="432" on="0"/>
        <pt x="423" y="432" on="1"/>
        <pt x="377" y="432" on="0"/>
        <pt x="286" y="382" on="0"/>
        <pt x="214" y="303" on="0"/>
        <pt x="169" y="202" on="0"/>
        <pt x="169" y="151" on="1"/>
        <pt x="169" y="103" on="0"/>
        <pt x="213" y="40" on="0"/>
        <pt x="264" y="40" on="1"/>
        <pt x="285" y="40" on="0"/>
        <pt x="335" y="57" on="0"/>
        <pt x="383" y="88" on="0"/>
        <pt x="426" y="130" on="0"/>
        <pt x="440" y="156" on="1"/>
        <pt x="440" y="155" on="0"/>
        <pt x="439" y="146" on="0"/>
        <pt x="438" y="136" on="0"/>
        <pt x="437" y="126" on="0"/>
        <pt x="437" y="125" on="1"/>
        <pt x="437" y="93" on="0"/>
        <pt x="463" y="42" on="0"/>
        <pt x="492" y="42" on="1"/>
        <pt x="507" y="42" on="0"/>
        <pt x="543" y="53" on="0"/>
        <pt x="579" y="71" on="0"/>
        <pt x="613" y="94" on="0"/>
        <pt x="625" y="106" on="1"/>
        <pt x="601" y="63" on="0"/>
        <pt x="531" y="-8" on="0"/>
        <pt x="445" y="-59" on="0"/>
        <pt x="348" y="-87" on="0"/>
        <pt x="297" y="-87" on="1"/>
        <pt x="240" y="-87" on="0"/>
        <pt x="148" y="-52" on="0"/>
        <pt x="83" y="14" on="0"/>
        <pt x="49" y="110" on="0"/>
        <pt x="49" y="170" on="1"/>
        <pt x="49" y="250" on="0"/>
        <pt x="109" y="390" on="0"/>
        <pt x="213" y="493" on="0"/>
        <pt x="349" y="553" on="0"/>
        <pt x="426" y="553" on="1"/>
        <pt x="484" y="553" on="0"/>
        <pt x="577" y="517" on="0"/>
        <pt x="641" y="451" on="0"/>
        <pt x="675" y="357" on="0"/>
        <pt x="675" y="299" on="1"/>
        <pt x="675" y="273" on="0"/>
        <pt x="670" y="217" on="0"/>
        <pt x="654" y="166" on="0"/>
        <pt x="621" y="124" on="0"/>
        <pt x="593" y="111" on="1"/>
        <pt x="554" y="94" on="0"/>
        <pt x="527" y="94" on="1"/>
        <pt x="490" y="94" on="0"/>
        <pt x="490" y="147" on="1"/>
        <pt x="490" y="160" on="0"/>
        <pt x="500" y="208" on="0"/>
        <pt x="516" y="269" on="0"/>
        <pt x="535" y="341" on="0"/>
      </contour>
      <contour>
        <pt x="424" y="371" on="1"/>
        <pt x="471" y="371" on="0"/>
        <pt x="478" y="349" on="1"/>
        <pt x="472" y="310" on="0"/>
        <pt x="431" y="225" on="0"/>
        <pt x="377" y="153" on="0"/>
        <pt x="318" y="106" on="0"/>
        <pt x="293" y="106" on="1"/>
        <pt x="271" y="106" on="0"/>
        <pt x="249" y="142" on="0"/>
        <pt x="249" y="170" on="1"/>
        <pt x="249" y="209" on="0"/>
        <pt x="283" y="282" on="0"/>
        <pt x="336" y="337" on="0"/>
        <pt x="397" y="371" on="0"/>
      </contour>
    </TTGlyph>
    <TTGlyph name="atilde" xMin="24" yMin="-10" xMax="472" yMax="702">
      <component glyphName="a" x="0" y="0" flags="0x204"/>
      <component glyphName="tilde" x="-28" y="0" flags="0x4"/>
    </TTGlyph>
    <TTGlyph name="b" xMin="60" yMin="-10" xMax="523" yMax="750">
      <contour>
        <pt x="301" y="-10" on="1"/>
        <pt x="283" y="-10" on="0"/>
        <pt x="241" y="0" on="0"/>
        <pt x="199" y="18" on="0"/>
        <pt x="162" y="45" on="0"/>
        <pt x="150" y="62" on="1"/>
        <pt x="140" y="0" on="1"/>
        <pt x="60" y="0" on="1"/>
        <pt x="60" y="750" on="1"/>
        <pt x="150" y="750" on="1"/>
        <pt x="150" y="437" on="1"/>
        <pt x="202" y="500" on="0"/>
        <pt x="302" y="500" on="1"/>
        <pt x="351" y="500" on="0"/>
        <pt x="433" y="459" on="0"/>
        <pt x="491" y="389" on="0"/>
        <pt x="523" y="296" on="0"/>
        <pt x="523" y="245" on="1"/>
        <pt x="523" y="192" on="0"/>
        <pt x="489" y="99" on="0"/>
        <pt x="429" y="30" on="0"/>
        <pt x="348" y="-10" on="0"/>
      </contour>
      <contour>
        <pt x="291" y="420" on="1"/>
        <pt x="262" y="420" on="0"/>
        <pt x="209" y="397" on="0"/>
        <pt x="169" y="352" on="0"/>
        <pt x="145" y="287" on="0"/>
        <pt x="145" y="245" on="1"/>
        <pt x="145" y="202" on="0"/>
        <pt x="168" y="136" on="0"/>
        <pt x="208" y="92" on="0"/>
        <pt x="261" y="70" on="0"/>
        <pt x="291" y="70" on="1"/>
        <pt x="323" y="70" on="0"/>
        <pt x="375" y="98" on="0"/>
        <pt x="411" y="146" on="0"/>
        <pt x="431" y="210" on="0"/>
        <pt x="431" y="245" on="1"/>
        <pt x="431" y="282" on="0"/>
        <pt x="411" y="346" on="0"/>
        <pt x="374" y="393" on="0"/>
        <pt x="322" y="420" on="0"/>
      </contour>
    </TTGlyph>
    <TTGlyph name="backslash" xMin="35" yMin="-85" xMax="506" yMax="700">
      <contour>
        <pt x="506" y="-85" on="1"/>
        <pt x="413" y="-85" on="1"/>
        <pt x="35" y="700" on="1"/>
        <pt x="128" y="700" on="1"/>
      </contour>
    </TTGlyph>
    <TTGlyph name="bar" xMin="70" yMin="-209" xMax="159" yMax="750">
      <contour>
        <pt x="159" y="-209" on="1"/>
        <pt x="70" y="-209" on="1"/>
        <pt x="70" y="750" on="1"/>
        <pt x="159" y="750" on="1"/>
      </contour>
    </TTGlyph>
    <TTGlyph name="braceleft" xMin="19" yMin="-135" xMax="297" yMax="750">
      <contour>
        <pt x="83" y="14" on="1"/>
        <pt x="83" y="21" on="0"/>
        <pt x="85" y="61" on="0"/>
        <pt x="88" y="107" on="0"/>
        <pt x="91" y="149" on="0"/>
        <pt x="91" y="159" on="1"/>
        <pt x="91" y="213" on="0"/>
        <pt x="59" y="282" on="0"/>
        <pt x="19" y="307" on="1"/>
        <pt x="57" y="333" on="0"/>
        <pt x="91" y="402" on="0"/>
        <pt x="91" y="456" on="1"/>
        <pt x="91" y="466" on="0"/>
        <pt x="88" y="508" on="0"/>
        <pt x="85" y="553" on="0"/>
        <pt x="83" y="593" on="0"/>
        <pt x="83" y="600" on="1"/>
        <pt x="83" y="671" on="0"/>
        <pt x="180" y="746" on="0"/>
        <pt x="297" y="750" on="1"/>
        <pt x="297" y="681" on="1"/>
        <pt x="244" y="680" on="0"/>
        <pt x="187" y="660" on="0"/>
        <pt x="161" y="620" on="0"/>
        <pt x="156" y="556" on="0"/>
        <pt x="156" y="510" on="1"/>
        <pt x="156" y="505" on="0"/>
        <pt x="157" y="481" on="0"/>
        <pt x="158" y="454" on="0"/>
        <pt x="159" y="430" on="0"/>
        <pt x="159" y="424" on="1"/>
        <pt x="159" y="406" on="0"/>
        <pt x="152" y="375" on="0"/>
        <pt x="134" y="348" on="0"/>
        <pt x="102" y="322" on="0"/>
        <pt x="76" y="307" on="1"/>
        <pt x="102" y="293" on="0"/>
        <pt x="135" y="268" on="0"/>
        <pt x="153" y="243" on="0"/>
        <pt x="159" y="215" on="0"/>
        <pt x="159" y="199" on="1"/>
        <pt x="159" y="194" on="0"/>
        <pt x="158" y="169" on="0"/>
        <pt x="157" y="140" on="0"/>
        <pt x="156" y="112" on="0"/>
        <pt x="156" y="105" on="1"/>
        <pt x="156" y="51" on="0"/>
        <pt x="164" y="-13" on="0"/>
        <pt x="193" y="-49" on="0"/>
        <pt x="249" y="-63" on="0"/>
        <pt x="297" y="-66" on="1"/>
        <pt x="297" y="-135" on="1"/>
        <pt x="182" y="-131" on="0"/>
        <pt x="83" y="-58" on="0"/>
      </contour>
    </TTGlyph>
    <TTGlyph name="braceright" xMin="2" yMin="-135" xMax="280" yMax="750">
      <contour>
        <pt x="216" y="14" on="1"/>
        <pt x="216" y="-58" on="0"/>
        <pt x="117" y="-131" on="0"/>
        <pt x="2" y="-135" on="1"/>
        <pt x="2" y="-66" on="1"/>
        <pt x="56" y="-65" on="0"/>
        <pt x="114" y="-45" on="0"/>
        <pt x="139" y="-3" on="0"/>
        <pt x="143" y="61" on="0"/>
        <pt x="143" y="105" on="1"/>
        <pt x="143" y="112" on="0"/>
        <pt x="142" y="139" on="0"/>
        <pt x="141" y="168" on="0"/>
        <pt x="140" y="193" on="0"/>
        <pt x="140" y="199" on="1"/>
        <pt x="140" y="216" on="0"/>
        <pt x="147" y="244" on="0"/>
        <pt x="165" y="268" on="0"/>
        <pt x="197" y="293" on="0"/>
        <pt x="223" y="307" on="1"/>
        <pt x="197" y="322" on="0"/>
        <pt x="165" y="348" on="0"/>
        <pt x="147" y="375" on="0"/>
        <pt x="140" y="406" on="0"/>
        <pt x="140" y="424" on="1"/>
        <pt x="140" y="430" on="0"/>
        <pt x="141" y="454" on="0"/>
        <pt x="142" y="481" on="0"/>
        <pt x="143" y="505" on="0"/>
        <pt x="143" y="510" on="1"/>
        <pt x="143" y="564" on="0"/>
        <pt x="135" y="628" on="0"/>
        <pt x="106" y="664" on="0"/>
        <pt x="50" y="678" on="0"/>
        <pt x="2" y="681" on="1"/>
        <pt x="2" y="750" on="1"/>
        <pt x="119" y="746" on="0"/>
        <pt x="216" y="671" on="0"/>
        <pt x="216" y="600" on="1"/>
        <pt x="216" y="593" on="0"/>
        <pt x="213" y="553" on="0"/>
        <pt x="210" y="508" on="0"/>
        <pt x="208" y="466" on="0"/>
        <pt x="208" y="456" on="1"/>
        <pt x="208" y="402" on="0"/>
        <pt x="242" y="333" on="0"/>
        <pt x="280" y="307" on="1"/>
        <pt x="240" y="282" on="0"/>
        <pt x="208" y="213" on="0"/>
        <pt x="208" y="159" on="1"/>
        <pt x="208" y="149" on="0"/>
        <pt x="210" y="107" on="0"/>
        <pt x="213" y="61" on="0"/>
        <pt x="216" y="21" on="0"/>
      </contour>
    </TTGlyph>
    <TTGlyph name="bracketleft" xMin="70" yMin="-135" xMax="327" yMax="750">
      <contour>
        <pt x="327" y="-135" on="1"/>
        <pt x="70" y="-135" on="1"/>
        <pt x="70" y="750" on="1"/>
        <pt x="327" y="750" on="1"/>
        <pt x="327" y="682" on="1"/>
        <pt x="153" y="682" on="1"/>
        <pt x="153" y="-67" on="1"/>
        <pt x="327" y="-67" on="1"/>
      </contour>
    </TTGlyph>
    <TTGlyph name="bracketright" xMin="0" yMin="-135" xMax="257" yMax="750">
      <contour>
        <pt x="0" y="750" on="1"/>
        <pt x="257" y="750" on="1"/>
        <pt x="257" y="-135" on="1"/>
        <pt x="0" y="-135" on="1"/>
        <pt x="0" y="-67" on="1"/>
        <pt x="174" y="-67" on="1"/>
        <pt x="174" y="682" on="1"/>
        <pt x="0" y="682" on="1"/>
      </contour>
    </TTGlyph>
    <TTGlyph name="brokenbar" xMin="72" yMin="-210" xMax="160" yMax="750">
      <contour>
        <pt x="160" y="308" on="1"/>
        <pt x="72" y="308" on="1"/>
        <pt x="72" y="750" on="1"/>
        <pt x="160" y="750" on="1"/>
      </contour>
      <contour>
        <pt x="160" y="-210" on="1"/>
        <pt x="72" y="-210" on="1"/>
        <pt x="72" y="163" on="1"/>
        <pt x="160" y="163" on="1"/>
      </contour>
    </TTGlyph>
    <TTGlyph name="bullet" xMin="44" yMin="169" xMax="262" yMax="387">
      <contour>
        <pt x="230" y="201" on="1"/>
        <pt x="213" y="184" on="0"/>
        <pt x="174" y="169" on="0"/>
        <pt x="153" y="169" on="1"/>
        <pt x="131" y="169" on="0"/>
        <pt x="92" y="187" on="0"/>
        <pt x="62" y="217" on="0"/>
        <pt x="44" y="256" on="0"/>
        <pt x="44" y="278" on="1"/>
        <pt x="44" y="300" on="0"/>
        <pt x="62" y="339" on="0"/>
        <pt x="92" y="369" on="0"/>
        <pt x="131" y="387" on="0"/>
        <pt x="153" y="387" on="1"/>
        <pt x="175" y="387" on="0"/>
        <pt x="214" y="369" on="0"/>
        <pt x="244" y="339" on="0"/>
        <pt x="262" y="300" on="0"/>
        <pt x="262" y="278" on="1"/>
        <pt x="262" y="257" on="0"/>
        <pt x="246" y="217" on="0"/>
      </contour>
    </TTGlyph>
    <TTGlyph name="c" xMin="33" yMin="-10" xMax="427" yMax="500">
      <contour>
        <pt x="277" y="-10" on="1"/>
        <pt x="218" y="-10" on="0"/>
        <pt x="128" y="29" on="0"/>
        <pt x="65" y="98" on="0"/>
        <pt x="33" y="191" on="0"/>
        <pt x="33" y="246" on="1"/>
        <pt x="33" y="302" on="0"/>
        <pt x="65" y="395" on="0"/>
        <pt x="126" y="463" on="0"/>
        <pt x="217" y="500" on="0"/>
        <pt x="276" y="500" on="1"/>
        <pt x="374" y="500" on="0"/>
        <pt x="427" y="471" on="1"/>
        <pt x="413" y="390" on="1"/>
        <pt x="351" y="420" on="0"/>
        <pt x="286" y="420" on="1"/>
        <pt x="205" y="420" on="0"/>
        <pt x="125" y="330" on="0"/>
        <pt x="125" y="246" on="1"/>
        <pt x="125" y="162" on="0"/>
        <pt x="205" y="69" on="0"/>
        <pt x="286" y="69" on="1"/>
        <pt x="352" y="69" on="0"/>
        <pt x="414" y="99" on="1"/>
        <pt x="426" y="27" on="1"/>
        <pt x="371" y="-10" on="0"/>
      </contour>
    </TTGlyph>
    <TTGlyph name="caron" xMin="76" yMin="600" xMax="370" yMax="740">
      <contour>
        <pt x="370" y="699" on="1"/>
        <pt x="223" y="600" on="1"/>
        <pt x="76" y="699" on="1"/>
        <pt x="76" y="740" on="1"/>
        <pt x="223" y="664" on="1"/>
        <pt x="370" y="740" on="1"/>
      </contour>
    </TTGlyph>
    <TTGlyph name="ccaron" xMin="33" yMin="-10" xMax="427" yMax="740">
      <component glyphName="c" x="0" y="0" flags="0x204"/>
      <component glyphName="caron" x="45" y="0" flags="0x4"/>
    </TTGlyph>
    <TTGlyph name="ccedilla" xMin="33" yMin="-192" xMax="427" yMax="500">
      <component glyphName="c" x="0" y="0" flags="0x204"/>
      <component glyphName="cedilla" x="48" y="0" flags="0x4"/>
    </TTGlyph>
    <TTGlyph name="cedilla" xMin="144" yMin="-192" xMax="278" yMax="-54">
      <contour>
        <pt x="278" y="-54" on="1"/>
        <pt x="190" y="-187" on="1"/>
        <pt x="144" y="-192" on="1"/>
        <pt x="212" y="-60" on="1"/>
      </contour>
    </TTGlyph>
    <TTGlyph name="cent" xMin="34" yMin="-31" xMax="426" yMax="748">
      <contour>
        <pt x="319" y="-31" on="1"/>
        <pt x="229" y="-31" on="1"/>
        <pt x="246" y="89" on="1"/>
        <pt x="200" y="95" on="0"/>
        <pt x="122" y="137" on="0"/>
        <pt x="66" y="203" on="0"/>
        <pt x="34" y="292" on="0"/>
        <pt x="34" y="346" on="1"/>
        <pt x="34" y="395" on="0"/>
        <pt x="62" y="484" on="0"/>
        <pt x="116" y="553" on="0"/>
        <pt x="195" y="599" on="0"/>
        <pt x="246" y="606" on="1"/>
        <pt x="229" y="748" on="1"/>
        <pt x="319" y="748" on="1"/>
        <pt x="303" y="608" on="1"/>
        <pt x="346" y="605" on="0"/>
        <pt x="403" y="590" on="0"/>
        <pt x="426" y="576" on="1"/>
        <pt x="418" y="498" on="1"/>
        <pt x="388" y="514" on="0"/>
        <pt x="326" y="531" on="0"/>
        <pt x="294" y="531" on="1"/>
        <pt x="253" y="531" on="0"/>
        <pt x="192" y="502" on="0"/>
        <pt x="151" y="452" on="0"/>
        <pt x="130" y="385" on="0"/>
        <pt x="130" y="347" on="1"/>
        <pt x="130" y="265" on="0"/>
        <pt x="218" y="165" on="0"/>
        <pt x="296" y="165" on="1"/>
        <pt x="357" y="165" on="0"/>
        <pt x="418" y="197" on="1"/>
        <pt x="426" y="119" on="1"/>
        <pt x="409" y="108" on="0"/>
        <pt x="361" y="90" on="0"/>
        <pt x="304" y="87" on="1"/>
      </contour>
    </TTGlyph>
    <TTGlyph name="circumflex" xMin="76" yMin="603" xMax="370" yMax="745">
      <contour>
        <pt x="370" y="603" on="1"/>
        <pt x="223" y="685" on="1"/>
        <pt x="76" y="603" on="1"/>
        <pt x="76" y="639" on="1"/>
        <pt x="223" y="745" on="1"/>
        <pt x="370" y="639" on="1"/>
      </contour>
    </TTGlyph>
    <TTGlyph name="colon" xMin="57" yMin="0" xMax="147" yMax="440">
      <contour>
        <pt x="147" y="354" on="1"/>
        <pt x="57" y="354" on="1"/>
        <pt x="57" y="440" on="1"/>
        <pt x="147" y="440" on="1"/>
      </contour>
      <contour>
        <pt x="147" y="0" on="1"/>
        <pt x="57" y="0" on="1"/>
        <pt x="57" y="86" on="1"/>
        <pt x="147" y="86" on="1"/>
      </contour>
    </TTGlyph>
    <TTGlyph name="comma" xMin="57" yMin="-109" xMax="158" yMax="86">
      <contour>
        <pt x="158" y="0" on="1"/>
        <pt x="80" y="-109" on="1"/>
        <pt x="57" y="-96" on="1"/>
        <pt x="92" y="-9" on="1"/>
        <pt x="58" y="0" on="1"/>
        <pt x="58" y="86" on="1"/>
        <pt x="158" y="86" on="1"/>
      </contour>
    </TTGlyph>
    <TTGlyph name="copyright" xMin="49" yMin="37" xMax="670" yMax="693">
      <contour>
        <pt x="49" y="365" on="1"/>
        <pt x="49" y="439" on="0"/>
        <pt x="95" y="560" on="0"/>
        <pt x="178" y="646" on="0"/>
        <pt x="292" y="693" on="0"/>
        <pt x="360" y="693" on="1"/>
        <pt x="428" y="693" on="0"/>
        <pt x="542" y="646" on="0"/>
        <pt x="624" y="559" on="0"/>
        <pt x="670" y="438" on="0"/>
        <pt x="670" y="365" on="1"/>
        <pt x="670" y="292" on="0"/>
        <pt x="624" y="172" on="0"/>
        <pt x="542" y="85" on="0"/>
        <pt x="428" y="37" on="0"/>
        <pt x="360" y="37" on="1"/>
        <pt x="292" y="37" on="0"/>
        <pt x="177" y="85" on="0"/>
        <pt x="95" y="171" on="0"/>
        <pt x="49" y="292" on="0"/>
      </contour>
      <contour>
        <pt x="360" y="648" on="1"/>
        <pt x="297" y="648" on="0"/>
        <pt x="201" y="607" on="0"/>
        <pt x="135" y="532" on="0"/>
        <pt x="101" y="428" on="0"/>
        <pt x="101" y="365" on="1"/>
        <pt x="101" y="302" on="0"/>
        <pt x="134" y="198" on="0"/>
        <pt x="200" y="123" on="0"/>
        <pt x="297" y="82" on="0"/>
        <pt x="360" y="82" on="1"/>
        <pt x="423" y="82" on="0"/>
        <pt x="519" y="124" on="0"/>
        <pt x="585" y="199" on="0"/>
        <pt x="618" y="303" on="0"/>
        <pt x="618" y="365" on="1"/>
        <pt x="618" y="427" on="0"/>
        <pt x="584" y="531" on="0"/>
        <pt x="519" y="606" on="0"/>
        <pt x="423" y="648" on="0"/>
      </contour>
      <contour>
        <pt x="369" y="197" on="1"/>
        <pt x="334" y="197" on="0"/>
        <pt x="276" y="221" on="0"/>
        <pt x="234" y="264" on="0"/>
        <pt x="211" y="325" on="0"/>
        <pt x="211" y="363" on="1"/>
        <pt x="211" y="401" on="0"/>
        <pt x="234" y="463" on="0"/>
        <pt x="276" y="506" on="0"/>
        <pt x="334" y="530" on="0"/>
        <pt x="369" y="530" on="1"/>
        <pt x="417" y="530" on="0"/>
        <pt x="459" y="511" on="1"/>
        <pt x="452" y="451" on="1"/>
        <pt x="407" y="470" on="0"/>
        <pt x="369" y="470" on="1"/>
        <pt x="324" y="470" on="0"/>
        <pt x="278" y="411" on="0"/>
        <pt x="278" y="363" on="1"/>
        <pt x="278" y="315" on="0"/>
        <pt x="324" y="256" on="0"/>
        <pt x="369" y="256" on="1"/>
        <pt x="406" y="256" on="0"/>
        <pt x="452" y="276" on="1"/>
        <pt x="459" y="217" on="1"/>
        <pt x="421" y="197" on="0"/>
      </contour>
    </TTGlyph>
    <TTGlyph name="currency" xMin="61" yMin="29" xMax="565" yMax="667">
      <contour>
        <pt x="564" y="53" on="1"/>
        <pt x="535" y="29" on="1"/>
        <pt x="456" y="132" on="1"/>
        <pt x="386" y="94" on="0"/>
        <pt x="313" y="94" on="1"/>
        <pt x="239" y="94" on="0"/>
        <pt x="170" y="132" on="1"/>
        <pt x="91" y="29" on="1"/>
        <pt x="63" y="53" on="1"/>
        <pt x="140" y="155" on="1"/>
        <pt x="61" y="237" on="0"/>
        <pt x="61" y="348" on="1"/>
        <pt x="61" y="458" on="0"/>
        <pt x="141" y="541" on="1"/>
        <pt x="63" y="643" on="1"/>
        <pt x="91" y="667" on="1"/>
        <pt x="169" y="564" on="1"/>
        <pt x="245" y="602" on="0"/>
        <pt x="313" y="602" on="1"/>
        <pt x="384" y="602" on="0"/>
        <pt x="456" y="563" on="1"/>
        <pt x="536" y="667" on="1"/>
        <pt x="564" y="643" on="1"/>
        <pt x="486" y="540" on="1"/>
        <pt x="565" y="458" on="0"/>
        <pt x="565" y="348" on="1"/>
        <pt x="565" y="240" on="0"/>
        <pt x="485" y="154" on="1"/>
      </contour>
      <contour>
        <pt x="432" y="486" on="1"/>
        <pt x="390" y="540" on="0"/>
        <pt x="313" y="540" on="1"/>
        <pt x="274" y="540" on="0"/>
        <pt x="214" y="511" on="0"/>
        <pt x="173" y="460" on="0"/>
        <pt x="151" y="390" on="0"/>
        <pt x="151" y="348" on="1"/>
        <pt x="151" y="306" on="0"/>
        <pt x="173" y="235" on="0"/>
        <pt x="214" y="184" on="0"/>
        <pt x="274" y="156" on="0"/>
        <pt x="313" y="156" on="1"/>
        <pt x="352" y="156" on="0"/>
        <pt x="412" y="185" on="0"/>
        <pt x="453" y="237" on="0"/>
        <pt x="475" y="307" on="0"/>
        <pt x="475" y="348" on="1"/>
        <pt x="475" y="433" on="0"/>
      </contour>
    </TTGlyph>
    <TTGlyph name="d" xMin="32" yMin="-10" xMax="495" yMax="750">
      <contour>
        <pt x="495" y="0" on="1"/>
        <pt x="415" y="0" on="1"/>
        <pt x="405" y="62" on="1"/>
        <pt x="393" y="45" on="0"/>
        <pt x="356" y="19" on="0"/>
        <pt x="315" y="0" on="0"/>
        <pt x="273" y="-10" on="0"/>
        <pt x="255" y="-10" on="1"/>
        <pt x="208" y="-10" on="0"/>
        <pt x="126" y="30" on="0"/>
        <pt x="66" y="99" on="0"/>
        <pt x="32" y="192" on="0"/>
        <pt x="32" y="245" on="1"/>
        <pt x="32" y="296" on="0"/>
        <pt x="64" y="389" on="0"/>
        <pt x="123" y="459" on="0"/>
        <pt x="205" y="500" on="0"/>
        <pt x="255" y="500" on="1"/>
        <pt x="354" y="500" on="0"/>
        <pt x="405" y="438" on="1"/>
        <pt x="405" y="750" on="1"/>
        <pt x="495" y="750" on="1"/>
      </contour>
      <contour>
        <pt x="262" y="420" on="1"/>
        <pt x="230" y="420" on="0"/>
        <pt x="179" y="394" on="0"/>
        <pt x="143" y="348" on="0"/>
        <pt x="124" y="284" on="0"/>
        <pt x="124" y="245" on="1"/>
        <pt x="124" y="209" on="0"/>
        <pt x="143" y="145" on="0"/>
        <pt x="178" y="98" on="0"/>
        <pt x="229" y="70" on="0"/>
        <pt x="262" y="70" on="1"/>
        <pt x="292" y="70" on="0"/>
        <pt x="347" y="91" on="0"/>
        <pt x="390" y="134" on="0"/>
        <pt x="415" y="199" on="0"/>
        <pt x="415" y="242" on="1"/>
        <pt x="415" y="284" on="0"/>
        <pt x="389" y="350" on="0"/>
        <pt x="346" y="396" on="0"/>
        <pt x="291" y="420" on="0"/>
      </contour>
    </TTGlyph>
    <TTGlyph name="dagger" xMin="35" yMin="0" xMax="389" yMax="607">
      <contour>
        <pt x="389" y="373" on="1"/>
        <pt x="231" y="403" on="1"/>
        <pt x="272" y="252" on="1"/>
        <pt x="241" y="0" on="1"/>
        <pt x="183" y="0" on="1"/>
        <pt x="152" y="252" on="1"/>
        <pt x="193" y="403" on="1"/>
        <pt x="35" y="373" on="1"/>
        <pt x="35" y="458" on="1"/>
        <pt x="191" y="427" on="1"/>
        <pt x="157" y="607" on="1"/>
        <pt x="267" y="607" on="1"/>
        <pt x="233" y="427" on="1"/>
        <pt x="389" y="458" on="1"/>
      </contour>
    </TTGlyph>
    <TTGlyph name="daggerdbl" xMin="53" yMin="-59" xMax="407" yMax="607">
      <contour>
        <pt x="407" y="88" on="1"/>
        <pt x="251" y="118" on="1"/>
        <pt x="285" y="-59" on="1"/>
        <pt x="175" y="-59" on="1"/>
        <pt x="209" y="118" on="1"/>
        <pt x="53" y="88" on="1"/>
        <pt x="53" y="172" on="1"/>
        <pt x="213" y="142" on="1"/>
        <pt x="170" y="274" on="1"/>
        <pt x="213" y="407" on="1"/>
        <pt x="53" y="377" on="1"/>
        <pt x="53" y="461" on="1"/>
        <pt x="209" y="431" on="1"/>
        <pt x="175" y="607" on="1"/>
        <pt x="285" y="607" on="1"/>
        <pt x="251" y="431" on="1"/>
        <pt x="407" y="461" on="1"/>
        <pt x="407" y="377" on="1"/>
        <pt x="247" y="407" on="1"/>
        <pt x="290" y="274" on="1"/>
        <pt x="247" y="142" on="1"/>
        <pt x="407" y="172" on="1"/>
      </contour>
    </TTGlyph>
    <TTGlyph name="degree" xMin="34" yMin="482" xMax="299" yMax="755">
      <contour>
        <pt x="263" y="520" on="1"/>
        <pt x="227" y="482" on="0"/>
        <pt x="166" y="482" on="1"/>
        <pt x="103" y="482" on="0"/>
        <pt x="34" y="559" on="0"/>
        <pt x="34" y="618" on="1"/>
        <pt x="34" y="648" on="0"/>
        <pt x="52" y="698" on="0"/>
        <pt x="87" y="734" on="0"/>
        <pt x="136" y="755" on="0"/>
        <pt x="166" y="755" on="1"/>
        <pt x="196" y="755" on="0"/>
        <pt x="246" y="734" on="0"/>
        <pt x="280" y="697" on="0"/>
        <pt x="299" y="647" on="0"/>
        <pt x="299" y="618" on="1"/>
        <pt x="299" y="559" on="0"/>
      </contour>
      <contour>
        <pt x="166" y="729" on="1"/>
        <pt x="145" y="729" on="0"/>
        <pt x="113" y="711" on="0"/>
        <pt x="90" y="681" on="0"/>
        <pt x="78" y="640" on="0"/>
        <pt x="78" y="618" on="1"/>
        <pt x="78" y="570" on="0"/>
        <pt x="127" y="508" on="0"/>
        <pt x="171" y="508" on="1"/>
        <pt x="192" y="508" on="0"/>
        <pt x="222" y="527" on="0"/>
        <pt x="243" y="558" on="0"/>
        <pt x="253" y="594" on="0"/>
        <pt x="253" y="618" on="1"/>
        <pt x="253" y="640" on="0"/>
        <pt x="242" y="680" on="0"/>
        <pt x="220" y="711" on="0"/>
        <pt x="188" y="729" on="0"/>
      </contour>
    </TTGlyph>
    <TTGlyph name="dieresis" xMin="87" yMin="600" xMax="335" yMax="700">
      <contour>
        <pt x="335" y="600" on="1"/>
        <pt x="265" y="600" on="1"/>
        <pt x="265" y="700" on="1"/>
        <pt x="335" y="700" on="1"/>
      </contour>
      <contour>
        <pt x="157" y="600" on="1"/>
        <pt x="87" y="600" on="1"/>
        <pt x="87" y="700" on="1"/>
        <pt x="157" y="700" on="1"/>
      </contour>
    </TTGlyph>
    <TTGlyph name="divide" xMin="66" yMin="20" xMax="526" yMax="534">
      <contour>
        <pt x="336" y="440" on="1"/>
        <pt x="247" y="440" on="1"/>
        <pt x="247" y="534" on="1"/>
        <pt x="336" y="534" on="1"/>
      </contour>
      <contour>
        <pt x="526" y="245" on="1"/>
        <pt x="66" y="245" on="1"/>
        <pt x="66" y="319" on="1"/>
        <pt x="526" y="319" on="1"/>
      </contour>
      <contour>
        <pt x="336" y="20" on="1"/>
        <pt x="247" y="20" on="1"/>
        <pt x="247" y="114" on="1"/>
        <pt x="336" y="114" on="1"/>
      </contour>
    </TTGlyph>
    <TTGlyph name="dollar" xMin="42" yMin="-32" xMax="478" yMax="748">
      <contour>
        <pt x="285" y="82" on="1"/>
        <pt x="300" y="-32" on="1"/>
        <pt x="211" y="-32" on="1"/>
        <pt x="228" y="81" on="1"/>
        <pt x="111" y="87" on="0"/>
        <pt x="52" y="119" on="1"/>
        <pt x="64" y="228" on="1"/>
        <pt x="134" y="170" on="0"/>
        <pt x="250" y="170" on="1"/>
        <pt x="360" y="170" on="0"/>
        <pt x="360" y="233" on="1"/>
        <pt x="360" y="262" on="0"/>
        <pt x="313" y="298" on="0"/>
        <pt x="242" y="324" on="0"/>
        <pt x="160" y="348" on="0"/>
        <pt x="89" y="382" on="0"/>
        <pt x="42" y="434" on="0"/>
        <pt x="42" y="476" on="1"/>
        <pt x="42" y="504" on="0"/>
        <pt x="63" y="557" on="0"/>
        <pt x="108" y="598" on="0"/>
        <pt x="179" y="626" on="0"/>
        <pt x="228" y="631" on="1"/>
        <pt x="211" y="748" on="1"/>
        <pt x="301" y="748" on="1"/>
        <pt x="285" y="631" on="1"/>
        <pt x="393" y="625" on="0"/>
        <pt x="446" y="594" on="1"/>
        <pt x="437" y="498" on="1"/>
        <pt x="335" y="546" on="0"/>
        <pt x="270" y="546" on="1"/>
        <pt x="149" y="546" on="0"/>
        <pt x="149" y="488" on="1"/>
        <pt x="149" y="461" on="0"/>
        <pt x="198" y="429" on="0"/>
        <pt x="271" y="406" on="0"/>
        <pt x="356" y="382" on="0"/>
        <pt x="429" y="344" on="0"/>
        <pt x="478" y="283" on="0"/>
        <pt x="478" y="234" on="1"/>
        <pt x="478" y="212" on="0"/>
        <pt x="464" y="163" on="0"/>
        <pt x="422" y="120" on="0"/>
        <pt x="346" y="87" on="0"/>
      </contour>
    </TTGlyph>
    <TTGlyph name="dotlessi" xMin="61" yMin="0" xMax="151" yMax="490">
      <contour>
        <pt x="151" y="0" on="1"/>
        <pt x="61" y="0" on="1"/>
        <pt x="61" y="490" on="1"/>
        <pt x="151" y="490" on="1"/>
      </contour>
    </TTGlyph>
    <TTGlyph name="e" xMin="31" yMin="-10" xMax="482" yMax="500">
      <contour>
        <pt x="478" y="245" on="1"/>
        <pt x="123" y="245" on="1"/>
        <pt x="139" y="70" on="0"/>
        <pt x="307" y="70" on="1"/>
        <pt x="382" y="70" on="0"/>
        <pt x="448" y="99" on="1"/>
        <pt x="460" y="28" on="1"/>
        <pt x="373" y="-10" on="0"/>
        <pt x="296" y="-10" on="1"/>
        <pt x="234" y="-10" on="0"/>
        <pt x="135" y="30" on="0"/>
        <pt x="67" y="99" on="0"/>
        <pt x="31" y="194" on="0"/>
        <pt x="31" y="249" on="1"/>
        <pt x="31" y="302" on="0"/>
        <pt x="65" y="394" on="0"/>
        <pt x="127" y="461" on="0"/>
        <pt x="216" y="500" on="0"/>
        <pt x="271" y="500" on="1"/>
        <pt x="318" y="500" on="0"/>
        <pt x="396" y="472" on="0"/>
        <pt x="451" y="418" on="0"/>
        <pt x="482" y="341" on="0"/>
        <pt x="482" y="293" on="1"/>
        <pt x="482" y="265" on="0"/>
      </contour>
      <contour>
        <pt x="269" y="420" on="1"/>
        <pt x="160" y="420" on="0"/>
        <pt x="131" y="307" on="1"/>
        <pt x="389" y="307" on="1"/>
        <pt x="389" y="361" on="0"/>
        <pt x="329" y="420" on="0"/>
      </contour>
    </TTGlyph>
    <TTGlyph name="eacute" xMin="31" yMin="-10" xMax="482" yMax="732">
      <component glyphName="e" x="0" y="0" flags="0x204"/>
      <component glyphName="acute" x="104" y="0" flags="0x4"/>
    </TTGlyph>
    <TTGlyph name="ecircumflex" xMin="31" yMin="-10" xMax="482" yMax="745">
      <component glyphName="e" x="0" y="0" flags="0x204"/>
      <component glyphName="circumflex" x="32" y="0" flags="0x4"/>
    </TTGlyph>
    <TTGlyph name="edieresis" xMin="31" yMin="-10" xMax="482" yMax="700">
      <component glyphName="e" x="0" y="0" flags="0x204"/>
      <component glyphName="dieresis" x="44" y="0" flags="0x4"/>
    </TTGlyph>
    <TTGlyph name="egrave" xMin="31" yMin="-10" xMax="482" yMax="732">
      <component glyphName="e" x="0" y="0" flags="0x204"/>
      <component glyphName="grave" x="103" y="0" flags="0x4"/>
    </TTGlyph>
    <TTGlyph name="eight" xMin="59" yMin="-14" xMax="549" yMax="713">
      <contour>
        <pt x="296" y="-14" on="1"/>
        <pt x="236" y="-14" on="0"/>
        <pt x="147" y="19" on="0"/>
        <pt x="88" y="75" on="0"/>
        <pt x="59" y="148" on="0"/>
        <pt x="59" y="189" on="1"/>
        <pt x="59" y="305" on="0"/>
        <pt x="193" y="376" on="1"/>
        <pt x="100" y="448" on="0"/>
        <pt x="100" y="540" on="1"/>
        <pt x="100" y="576" on="0"/>
        <pt x="124" y="640" on="0"/>
        <pt x="174" y="686" on="0"/>
        <pt x="252" y="713" on="0"/>
        <pt x="308" y="713" on="1"/>
        <pt x="362" y="713" on="0"/>
        <pt x="438" y="688" on="0"/>
        <pt x="487" y="645" on="0"/>
        <pt x="510" y="587" on="0"/>
        <pt x="510" y="555" on="1"/>
        <pt x="510" y="528" on="0"/>
        <pt x="499" y="487" on="0"/>
        <pt x="472" y="449" on="0"/>
        <pt x="427" y="411" on="0"/>
        <pt x="393" y="387" on="1"/>
        <pt x="474" y="359" on="0"/>
        <pt x="549" y="270" on="0"/>
        <pt x="549" y="198" on="1"/>
        <pt x="549" y="158" on="0"/>
        <pt x="516" y="82" on="0"/>
        <pt x="452" y="22" on="0"/>
        <pt x="357" y="-14" on="0"/>
      </contour>
      <contour>
        <pt x="187" y="534" on="1"/>
        <pt x="187" y="500" on="0"/>
        <pt x="247" y="440" on="0"/>
        <pt x="298" y="421" on="1"/>
        <pt x="356" y="438" on="0"/>
        <pt x="415" y="505" on="0"/>
        <pt x="415" y="545" on="1"/>
        <pt x="415" y="584" on="0"/>
        <pt x="357" y="628" on="0"/>
        <pt x="303" y="628" on="1"/>
        <pt x="249" y="628" on="0"/>
        <pt x="187" y="579" on="0"/>
      </contour>
      <contour>
        <pt x="306" y="338" on="1"/>
        <pt x="240" y="325" on="0"/>
        <pt x="163" y="252" on="0"/>
        <pt x="163" y="189" on="1"/>
        <pt x="163" y="131" on="0"/>
        <pt x="234" y="72" on="0"/>
        <pt x="300" y="72" on="1"/>
        <pt x="332" y="72" on="0"/>
        <pt x="386" y="91" on="0"/>
        <pt x="426" y="125" on="0"/>
        <pt x="448" y="172" on="0"/>
        <pt x="448" y="199" on="1"/>
        <pt x="448" y="250" on="0"/>
        <pt x="369" y="323" on="0"/>
      </contour>
    </TTGlyph>
    <TTGlyph name="ellipsis" xMin="57" yMin="0" xMax="619" yMax="86">
      <contour>
        <pt x="147" y="0" on="1"/>
        <pt x="57" y="0" on="1"/>
        <pt x="57" y="86" on="1"/>
        <pt x="147" y="86" on="1"/>
      </contour>
      <contour>
        <pt x="383" y="0" on="1"/>
        <pt x="293" y="0" on="1"/>
        <pt x="293" y="86" on="1"/>
        <pt x="383" y="86" on="1"/>
      </contour>
      <contour>
        <pt x="619" y="0" on="1"/>
        <pt x="529" y="0" on="1"/>
        <pt x="529" y="86" on="1"/>
        <pt x="619" y="86" on="1"/>
      </contour>
    </TTGlyph>
    <TTGlyph name="emdash" xMin="57" yMin="238" xMax="537" yMax="324">
      <contour>
        <pt x="537" y="238" on="1"/>
        <pt x="57" y="238" on="1"/>
        <pt x="57" y="324" on="1"/>
        <pt x="537" y="324" on="1"/>
      </contour>
    </TTGlyph>
    <TTGlyph name="endash" xMin="57" yMin="238" xMax="445" yMax="324">
      <contour>
        <pt x="445" y="238" on="1"/>
        <pt x="57" y="238" on="1"/>
        <pt x="57" y="324" on="1"/>
        <pt x="445" y="324" on="1"/>
      </contour>
    </TTGlyph>
    <TTGlyph name="equal" xMin="66" yMin="160" xMax="436" yMax="394">
      <contour>
        <pt x="436" y="318" on="1"/>
        <pt x="66" y="318" on="1"/>
        <pt x="66" y="394" on="1"/>
        <pt x="436" y="394" on="1"/>
      </contour>
      <contour>
        <pt x="436" y="160" on="1"/>
        <pt x="66" y="160" on="1"/>
        <pt x="66" y="236" on="1"/>
        <pt x="436" y="236" on="1"/>
      </contour>
    </TTGlyph>
    <TTGlyph name="eth" xMin="28" yMin="-12" xMax="484" yMax="710">
      <contour>
        <pt x="249" y="-12" on="1"/>
        <pt x="201" y="-12" on="0"/>
        <pt x="120" y="20" on="0"/>
        <pt x="61" y="77" on="0"/>
        <pt x="28" y="155" on="0"/>
        <pt x="28" y="201" on="1"/>
        <pt x="28" y="243" on="0"/>
        <pt x="56" y="324" on="0"/>
        <pt x="109" y="387" on="0"/>
        <pt x="188" y="426" on="0"/>
        <pt x="239" y="426" on="1"/>
        <pt x="325" y="426" on="0"/>
        <pt x="374" y="371" on="1"/>
        <pt x="370" y="395" on="0"/>
        <pt x="354" y="450" on="0"/>
        <pt x="331" y="503" on="0"/>
        <pt x="303" y="548" on="0"/>
        <pt x="288" y="560" on="1"/>
        <pt x="211" y="507" on="0"/>
        <pt x="147" y="498" on="1"/>
        <pt x="117" y="553" on="1"/>
        <pt x="182" y="562" on="0"/>
        <pt x="245" y="605" on="1"/>
        <pt x="185" y="659" on="0"/>
        <pt x="124" y="659" on="1"/>
        <pt x="156" y="701" on="1"/>
        <pt x="228" y="701" on="0"/>
        <pt x="305" y="646" on="1"/>
        <pt x="336" y="674" on="0"/>
        <pt x="364" y="710" on="1"/>
        <pt x="410" y="698" on="1"/>
        <pt x="387" y="665" on="0"/>
        <pt x="341" y="614" on="1"/>
        <pt x="373" y="585" on="0"/>
        <pt x="426" y="504" on="0"/>
        <pt x="463" y="410" on="0"/>
        <pt x="484" y="308" on="0"/>
        <pt x="484" y="257" on="1"/>
        <pt x="484" y="180" on="0"/>
        <pt x="441" y="76" on="0"/>
        <pt x="373" y="14" on="0"/>
        <pt x="289" y="-12" on="0"/>
      </contour>
      <contour>
        <pt x="254" y="343" on="1"/>
        <pt x="225" y="343" on="0"/>
        <pt x="179" y="322" on="0"/>
        <pt x="146" y="285" on="0"/>
        <pt x="128" y="237" on="0"/>
        <pt x="128" y="210" on="1"/>
        <pt x="128" y="180" on="0"/>
        <pt x="146" y="130" on="0"/>
        <pt x="179" y="92" on="0"/>
        <pt x="225" y="71" on="0"/>
        <pt x="253" y="71" on="1"/>
        <pt x="307" y="71" on="0"/>
        <pt x="373" y="148" on="0"/>
        <pt x="373" y="208" on="1"/>
        <pt x="373" y="268" on="0"/>
        <pt x="308" y="343" on="0"/>
      </contour>
    </TTGlyph>
    <TTGlyph name="exclam" xMin="59" yMin="0" xMax="183" yMax="750">
      <contour>
        <pt x="183" y="750" on="1"/>
        <pt x="153" y="200" on="1"/>
        <pt x="89" y="200" on="1"/>
        <pt x="59" y="750" on="1"/>
      </contour>
      <contour>
        <pt x="163" y="0" on="1"/>
        <pt x="79" y="0" on="1"/>
        <pt x="79" y="86" on="1"/>
        <pt x="163" y="86" on="1"/>
      </contour>
    </TTGlyph>
    <TTGlyph name="exclamdown" xMin="50" yMin="-250" xMax="174" yMax="500">
      <contour>
        <pt x="50" y="-250" on="1"/>
        <pt x="80" y="300" on="1"/>
        <pt x="144" y="300" on="1"/>
        <pt x="174" y="-250" on="1"/>
      </contour>
      <contour>
        <pt x="70" y="500" on="1"/>
        <pt x="154" y="500" on="1"/>
        <pt x="154" y="414" on="1"/>
        <pt x="70" y="414" on="1"/>
      </contour>
    </TTGlyph>
    <TTGlyph name="f" xMin="10" yMin="0" xMax="317" yMax="750">
      <contour>
        <pt x="317" y="420" on="1"/>
        <pt x="185" y="420" on="1"/>
        <pt x="185" y="0" on="1"/>
        <pt x="95" y="0" on="1"/>
        <pt x="95" y="420" on="1"/>
        <pt x="10" y="420" on="1"/>
        <pt x="22" y="490" on="1"/>
        <pt x="95" y="490" on="1"/>
        <pt x="95" y="614" on="1"/>
        <pt x="95" y="675" on="0"/>
        <pt x="154" y="750" on="0"/>
        <pt x="209" y="750" on="1"/>
        <pt x="273" y="750" on="0"/>
        <pt x="311" y="737" on="1"/>
        <pt x="297" y="661" on="1"/>
        <pt x="268" y="670" on="0"/>
        <pt x="237" y="670" on="1"/>
        <pt x="220" y="670" on="0"/>
        <pt x="200" y="663" on="0"/>
        <pt x="189" y="638" on="0"/>
        <pt x="185" y="590" on="0"/>
        <pt x="185" y="550" on="1"/>
        <pt x="185" y="490" on="1"/>
        <pt x="317" y="490" on="1"/>
      </contour>
    </TTGlyph>
    <TTGlyph name="five" xMin="51" yMin="-14" xMax="489" yMax="700">
      <contour>
        <pt x="220" y="-14" on="1"/>
        <pt x="198" y="-14" on="0"/>
        <pt x="144" y="-7" on="0"/>
        <pt x="94" y="5" on="0"/>
        <pt x="57" y="19" on="0"/>
        <pt x="51" y="25" on="1"/>
        <pt x="74" y="114" on="1"/>
        <pt x="146" y="72" on="0"/>
        <pt x="219" y="72" on="1"/>
        <pt x="254" y="72" on="0"/>
        <pt x="314" y="97" on="0"/>
        <pt x="359" y="140" on="0"/>
        <pt x="385" y="198" on="0"/>
        <pt x="385" y="232" on="1"/>
        <pt x="385" y="295" on="0"/>
        <pt x="286" y="355" on="0"/>
        <pt x="174" y="355" on="1"/>
        <pt x="89" y="355" on="1"/>
        <pt x="131" y="700" on="1"/>
        <pt x="449" y="700" on="1"/>
        <pt x="440" y="614" on="1"/>
        <pt x="207" y="614" on="1"/>
        <pt x="187" y="440" on="1"/>
        <pt x="268" y="440" on="0"/>
        <pt x="383" y="415" on="0"/>
        <pt x="455" y="365" on="0"/>
        <pt x="489" y="288" on="0"/>
        <pt x="489" y="236" on="1"/>
        <pt x="489" y="180" on="0"/>
        <pt x="445" y="88" on="0"/>
        <pt x="372" y="22" on="0"/>
        <pt x="274" y="-14" on="0"/>
      </contour>
    </TTGlyph>
    <TTGlyph name="florin" xMin="-34" yMin="-241" xMax="371" yMax="714">
      <contour>
        <pt x="371" y="703" on="1"/>
        <pt x="364" y="648" on="1"/>
        <pt x="351" y="656" on="0"/>
        <pt x="332" y="656" on="1"/>
        <pt x="302" y="656" on="0"/>
        <pt x="259" y="640" on="0"/>
        <pt x="229" y="601" on="0"/>
        <pt x="209" y="537" on="0"/>
        <pt x="201" y="490" on="1"/>
        <pt x="349" y="490" on="1"/>
        <pt x="343" y="434" on="1"/>
        <pt x="190" y="434" on="1"/>
        <pt x="104" y="-92" on="1"/>
        <pt x="98" y="-132" on="0"/>
        <pt x="71" y="-188" on="0"/>
        <pt x="39" y="-224" on="0"/>
        <pt x="5" y="-241" on="0"/>
        <pt x="-8" y="-241" on="1"/>
        <pt x="-21" y="-241" on="1"/>
        <pt x="-34" y="-178" on="1"/>
        <pt x="23" y="-166" on="0"/>
        <pt x="37" y="-77" on="1"/>
        <pt x="117" y="434" on="1"/>
        <pt x="23" y="434" on="1"/>
        <pt x="30" y="490" on="1"/>
        <pt x="126" y="490" on="1"/>
        <pt x="135" y="551" on="1"/>
        <pt x="141" y="590" on="0"/>
        <pt x="174" y="650" on="0"/>
        <pt x="223" y="692" on="0"/>
        <pt x="284" y="714" on="0"/>
        <pt x="319" y="714" on="1"/>
        <pt x="336" y="714" on="0"/>
      </contour>
    </TTGlyph>
    <TTGlyph name="four" xMin="14" yMin="0" xMax="500" yMax="700">
      <contour>
        <pt x="500" y="190" on="1"/>
        <pt x="415" y="190" on="1"/>
        <pt x="415" y="0" on="1"/>
        <pt x="315" y="0" on="1"/>
        <pt x="315" y="190" on="1"/>
        <pt x="14" y="190" on="1"/>
        <pt x="336" y="700" on="1"/>
        <pt x="415" y="700" on="1"/>
        <pt x="415" y="276" on="1"/>
        <pt x="500" y="276" on="1"/>
      </contour>
      <contour>
        <pt x="315" y="276" on="1"/>
        <pt x="315" y="530" on="1"/>
        <pt x="162" y="276" on="1"/>
      </contour>
    </TTGlyph>
    <TTGlyph name="g" xMin="26" yMin="-250" xMax="501" yMax="500">
      <contour>
        <pt x="255" y="-250" on="1"/>
        <pt x="197" y="-250" on="0"/>
        <pt x="111" y="-226" on="0"/>
        <pt x="54" y="-185" on="0"/>
        <pt x="26" y="-131" on="0"/>
        <pt x="26" y="-102" on="1"/>
        <pt x="26" y="-24" on="0"/>
        <pt x="113" y="8" on="1"/>
        <pt x="63" y="32" on="0"/>
        <pt x="63" y="70" on="1"/>
        <pt x="63" y="87" on="0"/>
        <pt x="90" y="128" on="0"/>
        <pt x="121" y="143" on="1"/>
        <pt x="36" y="204" on="0"/>
        <pt x="36" y="303" on="1"/>
        <pt x="36" y="345" on="0"/>
        <pt x="63" y="417" on="0"/>
        <pt x="114" y="470" on="0"/>
        <pt x="189" y="500" on="0"/>
        <pt x="236" y="500" on="1"/>
        <pt x="302" y="500" on="0"/>
        <pt x="361" y="464" on="1"/>
        <pt x="413" y="492" on="0"/>
        <pt x="480" y="492" on="1"/>
        <pt x="488" y="492" on="1"/>
        <pt x="477" y="432" on="1"/>
        <pt x="454" y="432" on="1"/>
        <pt x="423" y="432" on="0"/>
        <pt x="396" y="425" on="1"/>
        <pt x="441" y="371" on="0"/>
        <pt x="441" y="308" on="1"/>
        <pt x="441" y="269" on="0"/>
        <pt x="413" y="199" on="0"/>
        <pt x="362" y="145" on="0"/>
        <pt x="289" y="113" on="0"/>
        <pt x="243" y="113" on="1"/>
        <pt x="204" y="113" on="0"/>
        <pt x="173" y="122" on="1"/>
        <pt x="149" y="108" on="0"/>
        <pt x="149" y="92" on="1"/>
        <pt x="149" y="83" on="0"/>
        <pt x="160" y="70" on="0"/>
        <pt x="193" y="60" on="0"/>
        <pt x="252" y="49" on="0"/>
        <pt x="301" y="40" on="1"/>
        <pt x="334" y="34" on="0"/>
        <pt x="404" y="16" on="0"/>
        <pt x="461" y="-14" on="0"/>
        <pt x="499" y="-61" on="0"/>
        <pt x="501" y="-96" on="1"/>
        <pt x="501" y="-127" on="0"/>
        <pt x="467" y="-183" on="0"/>
        <pt x="404" y="-225" on="0"/>
        <pt x="312" y="-250" on="0"/>
      </contour>
      <contour>
        <pt x="237" y="428" on="1"/>
        <pt x="182" y="428" on="0"/>
        <pt x="122" y="361" on="0"/>
        <pt x="122" y="306" on="1"/>
        <pt x="122" y="249" on="0"/>
        <pt x="187" y="182" on="0"/>
        <pt x="239" y="182" on="1"/>
        <pt x="293" y="182" on="0"/>
        <pt x="355" y="254" on="0"/>
        <pt x="355" y="309" on="1"/>
        <pt x="355" y="366" on="0"/>
        <pt x="291" y="428" on="0"/>
      </contour>
      <contour>
        <pt x="279" y="-26" on="1"/>
        <pt x="262" y="-26" on="0"/>
        <pt x="190" y="-14" on="1"/>
        <pt x="156" y="-24" on="0"/>
        <pt x="112" y="-74" on="0"/>
        <pt x="112" y="-100" on="1"/>
        <pt x="112" y="-135" on="0"/>
        <pt x="190" y="-180" on="0"/>
        <pt x="259" y="-180" on="1"/>
        <pt x="331" y="-180" on="0"/>
        <pt x="410" y="-133" on="0"/>
        <pt x="410" y="-102" on="1"/>
        <pt x="410" y="-50" on="0"/>
      </contour>
    </TTGlyph>
    <TTGlyph name="germandbls" xMin="16" yMin="-136" xMax="551" yMax="750">
      <contour>
        <pt x="328" y="-10" on="1"/>
        <pt x="310" y="-10" on="0"/>
        <pt x="290" y="-8" on="0"/>
        <pt x="278" y="-7" on="1"/>
        <pt x="278" y="70" on="1"/>
        <pt x="320" y="70" on="0"/>
        <pt x="388" y="73" on="0"/>
        <pt x="434" y="86" on="0"/>
        <pt x="459" y="115" on="0"/>
        <pt x="459" y="142" on="1"/>
        <pt x="459" y="170" on="0"/>
        <pt x="434" y="217" on="0"/>
        <pt x="396" y="258" on="0"/>
        <pt x="352" y="293" on="0"/>
        <pt x="314" y="326" on="0"/>
        <pt x="289" y="356" on="0"/>
        <pt x="289" y="371" on="1"/>
        <pt x="289" y="389" on="0"/>
        <pt x="322" y="431" on="0"/>
        <pt x="363" y="482" on="0"/>
        <pt x="396" y="545" on="0"/>
        <pt x="396" y="584" on="1"/>
        <pt x="396" y="610" on="0"/>
        <pt x="380" y="643" on="0"/>
        <pt x="353" y="663" on="0"/>
        <pt x="317" y="670" on="0"/>
        <pt x="297" y="670" on="1"/>
        <pt x="243" y="670" on="0"/>
        <pt x="191" y="619" on="0"/>
        <pt x="191" y="548" on="1"/>
        <pt x="191" y="-136" on="1"/>
        <pt x="101" y="-136" on="1"/>
        <pt x="101" y="420" on="1"/>
        <pt x="16" y="420" on="1"/>
        <pt x="28" y="490" on="1"/>
        <pt x="101" y="490" on="1"/>
        <pt x="101" y="577" on="1"/>
        <pt x="101" y="619" on="0"/>
        <pt x="132" y="683" on="0"/>
        <pt x="186" y="727" on="0"/>
        <pt x="258" y="750" on="0"/>
        <pt x="299" y="750" on="1"/>
        <pt x="334" y="750" on="0"/>
        <pt x="402" y="732" on="0"/>
        <pt x="455" y="693" on="0"/>
        <pt x="487" y="631" on="0"/>
        <pt x="487" y="586" on="1"/>
        <pt x="487" y="541" on="0"/>
        <pt x="456" y="472" on="0"/>
        <pt x="420" y="422" on="0"/>
        <pt x="389" y="388" on="0"/>
        <pt x="389" y="378" on="1"/>
        <pt x="389" y="370" on="0"/>
        <pt x="413" y="347" on="0"/>
        <pt x="449" y="318" on="0"/>
        <pt x="491" y="280" on="0"/>
        <pt x="527" y="233" on="0"/>
        <pt x="551" y="177" on="0"/>
        <pt x="551" y="143" on="1"/>
        <pt x="551" y="101" on="0"/>
        <pt x="513" y="43" on="0"/>
        <pt x="451" y="7" on="0"/>
        <pt x="370" y="-10" on="0"/>
      </contour>
    </TTGlyph>
    <TTGlyph name="grave" xMin="58" yMin="596" xMax="245" yMax="732">
      <contour>
        <pt x="245" y="596" on="1"/>
        <pt x="58" y="660" on="1"/>
        <pt x="58" y="732" on="1"/>
        <pt x="245" y="637" on="1"/>
      </contour>
    </TTGlyph>
    <TTGlyph name="greater" xMin="60" yMin="78" xMax="371" yMax="490">
      <contour>
        <pt x="371" y="284" on="1"/>
        <pt x="155" y="78" on="1"/>
        <pt x="60" y="78" on="1"/>
        <pt x="276" y="284" on="1"/>
        <pt x="60" y="490" on="1"/>
        <pt x="155" y="490" on="1"/>
      </contour>
    </TTGlyph>
    <TTGlyph name="guillemotleft" xMin="15" yMin="78" xMax="523" yMax="490">
      <contour>
        <pt x="523" y="78" on="1"/>
        <pt x="422" y="78" on="1"/>
        <pt x="275" y="284" on="1"/>
        <pt x="422" y="490" on="1"/>
        <pt x="523" y="490" on="1"/>
        <pt x="375" y="284" on="1"/>
      </contour>
      <contour>
        <pt x="262" y="78" on="1"/>
        <pt x="162" y="78" on="1"/>
        <pt x="15" y="284" on="1"/>
        <pt x="162" y="490" on="1"/>
        <pt x="262" y="490" on="1"/>
        <pt x="115" y="284" on="1"/>
      </contour>
    </TTGlyph>
    <TTGlyph name="guillemotright" xMin="41" yMin="78" xMax="548" yMax="490">
      <contour>
        <pt x="548" y="284" on="1"/>
        <pt x="401" y="78" on="1"/>
        <pt x="301" y="78" on="1"/>
        <pt x="448" y="284" on="1"/>
        <pt x="301" y="490" on="1"/>
        <pt x="401" y="490" on="1"/>
      </contour>
      <contour>
        <pt x="289" y="284" on="1"/>
        <pt x="142" y="78" on="1"/>
        <pt x="41" y="78" on="1"/>
        <pt x="189" y="284" on="1"/>
        <pt x="41" y="490" on="1"/>
        <pt x="142" y="490" on="1"/>
      </contour>
    </TTGlyph>
    <TTGlyph name="guilsinglleft" xMin="14" yMin="78" xMax="282" yMax="490">
      <contour>
        <pt x="282" y="78" on="1"/>
        <pt x="173" y="78" on="1"/>
        <pt x="14" y="284" on="1"/>
        <pt x="173" y="490" on="1"/>
        <pt x="282" y="490" on="1"/>
        <pt x="123" y="284" on="1"/>
      </contour>
    </TTGlyph>
    <TTGlyph name="guilsinglright" xMin="41" yMin="78" xMax="309" yMax="490">
      <contour>
        <pt x="309" y="284" on="1"/>
        <pt x="150" y="78" on="1"/>
        <pt x="41" y="78" on="1"/>
        <pt x="200" y="284" on="1"/>
        <pt x="41" y="490" on="1"/>
        <pt x="150" y="490" on="1"/>
      </contour>
    </TTGlyph>
    <TTGlyph name="h" xMin="60" yMin="0" xMax="486" yMax="750">
      <contour>
        <pt x="486" y="0" on="1"/>
        <pt x="396" y="0" on="1"/>
        <pt x="396" y="262" on="1"/>
        <pt x="396" y="349" on="0"/>
        <pt x="344" y="420" on="0"/>
        <pt x="279" y="420" on="1"/>
        <pt x="191" y="420" on="0"/>
        <pt x="151" y="356" on="1"/>
        <pt x="151" y="0" on="1"/>
        <pt x="60" y="0" on="1"/>
        <pt x="60" y="750" on="1"/>
        <pt x="151" y="750" on="1"/>
        <pt x="151" y="437" on="1"/>
        <pt x="200" y="500" on="0"/>
        <pt x="293" y="500" on="1"/>
        <pt x="486" y="500" on="0"/>
        <pt x="486" y="262" on="1"/>
      </contour>
    </TTGlyph>
    <TTGlyph name="hyphen" xMin="57" yMin="238" xMax="367" yMax="324">
      <contour>
        <pt x="367" y="238" on="1"/>
        <pt x="57" y="238" on="1"/>
        <pt x="57" y="324" on="1"/>
        <pt x="367" y="324" on="1"/>
      </contour>
    </TTGlyph>
    <TTGlyph name="i" xMin="61" yMin="0" xMax="151" yMax="700">
      <contour>
        <pt x="151" y="600" on="1"/>
        <pt x="61" y="600" on="1"/>
        <pt x="61" y="700" on="1"/>
        <pt x="151" y="700" on="1"/>
      </contour>
      <contour>
        <pt x="151" y="0" on="1"/>
        <pt x="61" y="0" on="1"/>
        <pt x="61" y="490" on="1"/>
        <pt x="151" y="490" on="1"/>
      </contour>
    </TTGlyph>
    <TTGlyph name="iacute" xMin="14" yMin="0" xMax="201" yMax="732">
      <component glyphName="dotlessi" x="0" y="0" flags="0x204"/>
      <component glyphName="acute" x="-44" y="0" flags="0x4"/>
    </TTGlyph>
    <TTGlyph name="icircumflex" xMin="-39" yMin="0" xMax="255" yMax="745">
      <component glyphName="dotlessi" x="0" y="0" flags="0x204"/>
      <component glyphName="circumflex" x="-115" y="0" flags="0x4"/>
    </TTGlyph>
    <TTGlyph name="idieresis" xMin="-17" yMin="0" xMax="231" yMax="700">
      <component glyphName="dotlessi" x="0" y="0" flags="0x204"/>
      <component glyphName="dieresis" x="-104" y="0" flags="0x4"/>
    </TTGlyph>
    <TTGlyph name="igrave" xMin="13" yMin="0" xMax="200" yMax="732">
      <component glyphName="dotlessi" x="0" y="0" flags="0x204"/>
      <component glyphName="grave" x="-45" y="0" flags="0x4"/>
    </TTGlyph>
    <TTGlyph name="j" xMin="-12" yMin="-242" xMax="151" yMax="700">
      <contour>
        <pt x="28" y="-237" on="1"/>
        <pt x="-2" y="-242" on="1"/>
        <pt x="-12" y="-173" on="1"/>
        <pt x="10" y="-171" on="0"/>
        <pt x="38" y="-161" on="0"/>
        <pt x="54" y="-140" on="0"/>
        <pt x="61" y="-103" on="0"/>
        <pt x="61" y="-73" on="1"/>
        <pt x="61" y="490" on="1"/>
        <pt x="151" y="490" on="1"/>
        <pt x="151" y="-107" on="1"/>
        <pt x="151" y="-139" on="0"/>
        <pt x="131" y="-184" on="0"/>
        <pt x="98" y="-215" on="0"/>
        <pt x="53" y="-233" on="0"/>
      </contour>
      <contour>
        <pt x="151" y="600" on="1"/>
        <pt x="61" y="600" on="1"/>
        <pt x="61" y="700" on="1"/>
        <pt x="151" y="700" on="1"/>
      </contour>
    </TTGlyph>
    <TTGlyph name="k" xMin="60" yMin="0" xMax="445" yMax="750">
      <contour>
        <pt x="150" y="0" on="1"/>
        <pt x="60" y="0" on="1"/>
        <pt x="60" y="750" on="1"/>
        <pt x="150" y="750" on="1"/>
        <pt x="150" y="269" on="1"/>
        <pt x="330" y="490" on="1"/>
        <pt x="440" y="490" on="1"/>
        <pt x="238" y="264" on="1"/>
        <pt x="445" y="0" on="1"/>
        <pt x="335" y="0" on="1"/>
        <pt x="150" y="249" on="1"/>
      </contour>
    </TTGlyph>
    <TTGlyph name="l" xMin="60" yMin="-10" xMax="229" yMax="750">
      <contour>
        <pt x="229" y="62" on="1"/>
        <pt x="216" y="-10" on="1"/>
        <pt x="187" y="-10" on="1"/>
        <pt x="121" y="-10" on="0"/>
        <pt x="60" y="57" on="0"/>
        <pt x="60" y="108" on="1"/>
        <pt x="60" y="750" on="1"/>
        <pt x="150" y="750" on="1"/>
        <pt x="150" y="160" on="1"/>
        <pt x="150" y="129" on="0"/>
        <pt x="155" y="90" on="0"/>
        <pt x="171" y="69" on="0"/>
        <pt x="202" y="62" on="0"/>
      </contour>
    </TTGlyph>
    <TTGlyph name="less" xMin="33" yMin="78" xMax="344" yMax="490">
      <contour>
        <pt x="344" y="78" on="1"/>
        <pt x="249" y="78" on="1"/>
        <pt x="33" y="284" on="1"/>
        <pt x="249" y="490" on="1"/>
        <pt x="344" y="490" on="1"/>
        <pt x="128" y="284" on="1"/>
      </contour>
    </TTGlyph>
    <TTGlyph name="logicalnot" xMin="66" yMin="151" xMax="526" yMax="406">
      <contour>
        <pt x="526" y="151" on="1"/>
        <pt x="471" y="151" on="1"/>
        <pt x="471" y="346" on="1"/>
        <pt x="66" y="346" on="1"/>
        <pt x="66" y="406" on="1"/>
        <pt x="526" y="406" on="1"/>
      </contour>
    </TTGlyph>
    <TTGlyph name="m" xMin="61" yMin="0" xMax="821" yMax="500">
      <contour>
        <pt x="821" y="0" on="1"/>
        <pt x="731" y="0" on="1"/>
        <pt x="731" y="288" on="1"/>
        <pt x="731" y="357" on="0"/>
        <pt x="677" y="420" on="0"/>
        <pt x="616" y="420" on="1"/>
        <pt x="486" y="420" on="0"/>
        <pt x="486" y="284" on="1"/>
        <pt x="486" y="0" on="1"/>
        <pt x="396" y="0" on="1"/>
        <pt x="396" y="270" on="1"/>
        <pt x="396" y="354" on="0"/>
        <pt x="337" y="420" on="0"/>
        <pt x="281" y="420" on="1"/>
        <pt x="187" y="420" on="0"/>
        <pt x="151" y="356" on="1"/>
        <pt x="151" y="0" on="1"/>
        <pt x="61" y="0" on="1"/>
        <pt x="61" y="490" on="1"/>
        <pt x="131" y="490" on="1"/>
        <pt x="141" y="438" on="1"/>
        <pt x="181" y="474" on="0"/>
        <pt x="247" y="500" on="0"/>
        <pt x="288" y="500" on="1"/>
        <pt x="400" y="500" on="0"/>
        <pt x="454" y="402" on="1"/>
        <pt x="505" y="500" on="0"/>
        <pt x="633" y="500" on="1"/>
        <pt x="821" y="500" on="0"/>
        <pt x="821" y="289" on="1"/>
      </contour>
    </TTGlyph>
    <TTGlyph name="multiply" xMin="61" yMin="119" xMax="378" yMax="435">
      <contour>
        <pt x="378" y="155" on="1"/>
        <pt x="342" y="119" on="1"/>
        <pt x="219" y="242" on="1"/>
        <pt x="97" y="119" on="1"/>
        <pt x="61" y="155" on="1"/>
        <pt x="184" y="277" on="1"/>
        <pt x="61" y="399" on="1"/>
        <pt x="97" y="435" on="1"/>
        <pt x="219" y="312" on="1"/>
        <pt x="342" y="435" on="1"/>
        <pt x="378" y="399" on="1"/>
        <pt x="254" y="277" on="1"/>
      </contour>
    </TTGlyph>
    <TTGlyph name="n" xMin="61" yMin="0" xMax="503" yMax="500">
      <contour>
        <pt x="503" y="0" on="1"/>
        <pt x="413" y="0" on="1"/>
        <pt x="413" y="270" on="1"/>
        <pt x="413" y="349" on="0"/>
        <pt x="354" y="420" on="0"/>
        <pt x="285" y="420" on="1"/>
        <pt x="187" y="420" on="0"/>
        <pt x="151" y="356" on="1"/>
        <pt x="151" y="0" on="1"/>
        <pt x="61" y="0" on="1"/>
        <pt x="61" y="490" on="1"/>
        <pt x="131" y="490" on="1"/>
        <pt x="141" y="438" on="1"/>
        <pt x="211" y="500" on="0"/>
        <pt x="303" y="500" on="1"/>
        <pt x="503" y="500" on="0"/>
        <pt x="503" y="270" on="1"/>
      </contour>
    </TTGlyph>
    <TTGlyph name="nine" xMin="45" yMin="0" xMax="507" yMax="714">
      <contour>
        <pt x="288" y="714" on="1"/>
        <pt x="330" y="714" on="0"/>
        <pt x="409" y="690" on="0"/>
        <pt x="470" y="632" on="0"/>
        <pt x="507" y="535" on="0"/>
        <pt x="507" y="462" on="1"/>
        <pt x="507" y="352" on="0"/>
        <pt x="446" y="180" on="0"/>
        <pt x="357" y="62" on="0"/>
        <pt x="256" y="0" on="0"/>
        <pt x="216" y="0" on="1"/>
        <pt x="143" y="38" on="1"/>
        <pt x="184" y="57" on="0"/>
        <pt x="267" y="108" on="0"/>
        <pt x="337" y="179" on="0"/>
        <pt x="387" y="273" on="0"/>
        <pt x="396" y="336" on="1"/>
        <pt x="376" y="309" on="0"/>
        <pt x="300" y="279" on="0"/>
        <pt x="257" y="279" on="1"/>
        <pt x="157" y="279" on="0"/>
        <pt x="45" y="381" on="0"/>
        <pt x="45" y="481" on="1"/>
        <pt x="45" y="532" on="0"/>
        <pt x="81" y="617" on="0"/>
        <pt x="145" y="679" on="0"/>
        <pt x="234" y="714" on="0"/>
      </contour>
      <contour>
        <pt x="266" y="361" on="1"/>
        <pt x="296" y="361" on="0"/>
        <pt x="347" y="381" on="0"/>
        <pt x="385" y="418" on="0"/>
        <pt x="407" y="469" on="0"/>
        <pt x="407" y="501" on="1"/>
        <pt x="407" y="532" on="0"/>
        <pt x="386" y="581" on="0"/>
        <pt x="351" y="614" on="0"/>
        <pt x="303" y="631" on="0"/>
        <pt x="276" y="631" on="1"/>
        <pt x="243" y="631" on="0"/>
        <pt x="193" y="607" on="0"/>
        <pt x="159" y="567" on="0"/>
        <pt x="142" y="514" on="0"/>
        <pt x="142" y="486" on="1"/>
        <pt x="142" y="462" on="0"/>
        <pt x="155" y="416" on="0"/>
        <pt x="184" y="382" on="0"/>
        <pt x="231" y="361" on="0"/>
      </contour>
    </TTGlyph>
    <TTGlyph name="ntilde" xMin="61" yMin="0" xMax="503" yMax="702">
      <component glyphName="n" x="0" y="0" flags="0x204"/>
      <component glyphName="tilde" x="15" y="0" flags="0x4"/>
    </TTGlyph>
    <TTGlyph name="numbersign" xMin="33" yMin="-11" xMax="672" yMax="700">
      <contour>
        <pt x="672" y="507" on="1"/>
        <pt x="643" y="423" on="1"/>
        <pt x="527" y="423" on="1"/>
        <pt x="479" y="300" on="1"/>
        <pt x="607" y="300" on="1"/>
        <pt x="569" y="216" on="1"/>
        <pt x="447" y="216" on="1"/>
        <pt x="360" y="-11" on="1"/>
        <pt x="280" y="-11" on="1"/>
        <pt x="367" y="216" on="1"/>
        <pt x="234" y="216" on="1"/>
        <pt x="147" y="-11" on="1"/>
        <pt x="67" y="-11" on="1"/>
        <pt x="153" y="216" on="1"/>
        <pt x="33" y="216" on="1"/>
        <pt x="70" y="300" on="1"/>
        <pt x="185" y="300" on="1"/>
        <pt x="233" y="423" on="1"/>
        <pt x="107" y="423" on="1"/>
        <pt x="136" y="507" on="1"/>
        <pt x="265" y="507" on="1"/>
        <pt x="339" y="700" on="1"/>
        <pt x="419" y="700" on="1"/>
        <pt x="345" y="507" on="1"/>
        <pt x="478" y="507" on="1"/>
        <pt x="553" y="700" on="1"/>
        <pt x="633" y="700" on="1"/>
        <pt x="559" y="507" on="1"/>
      </contour>
      <contour>
        <pt x="446" y="423" on="1"/>
        <pt x="314" y="423" on="1"/>
        <pt x="266" y="300" on="1"/>
        <pt x="398" y="300" on="1"/>
      </contour>
    </TTGlyph>
    <TTGlyph name="o" xMin="32" yMin="-10" xMax="518" yMax="500">
      <contour>
        <pt x="452" y="62" on="1"/>
        <pt x="387" y="-10" on="0"/>
        <pt x="275" y="-10" on="1"/>
        <pt x="218" y="-10" on="0"/>
        <pt x="128" y="29" on="0"/>
        <pt x="65" y="97" on="0"/>
        <pt x="32" y="191" on="0"/>
        <pt x="32" y="245" on="1"/>
        <pt x="32" y="300" on="0"/>
        <pt x="66" y="393" on="0"/>
        <pt x="129" y="461" on="0"/>
        <pt x="219" y="500" on="0"/>
        <pt x="275" y="500" on="1"/>
        <pt x="331" y="500" on="0"/>
        <pt x="421" y="461" on="0"/>
        <pt x="484" y="392" on="0"/>
        <pt x="518" y="299" on="0"/>
        <pt x="518" y="245" on="1"/>
        <pt x="518" y="135" on="0"/>
      </contour>
      <contour>
        <pt x="386" y="374" on="1"/>
        <pt x="347" y="420" on="0"/>
        <pt x="275" y="420" on="1"/>
        <pt x="203" y="420" on="0"/>
        <pt x="124" y="329" on="0"/>
        <pt x="124" y="245" on="1"/>
        <pt x="124" y="161" on="0"/>
        <pt x="203" y="70" on="0"/>
        <pt x="275" y="70" on="1"/>
        <pt x="348" y="70" on="0"/>
        <pt x="426" y="164" on="0"/>
        <pt x="426" y="245" on="1"/>
        <pt x="426" y="328" on="0"/>
      </contour>
    </TTGlyph>
    <TTGlyph name="oacute" xMin="32" yMin="-10" xMax="518" yMax="732">
      <component glyphName="o" x="0" y="0" flags="0x204"/>
      <component glyphName="acute" x="123" y="0" flags="0x4"/>
    </TTGlyph>
    <TTGlyph name="ocircumflex" xMin="32" yMin="-10" xMax="518" yMax="745">
      <component glyphName="o" x="0" y="0" flags="0x204"/>
      <component glyphName="circumflex" x="52" y="0" flags="0x4"/>
    </TTGlyph>
    <TTGlyph name="odieresis" xMin="32" yMin="-10" xMax="518" yMax="700">
      <component glyphName="o" x="0" y="0" flags="0x204"/>
      <component glyphName="dieresis" x="64" y="0" flags="0x4"/>
    </TTGlyph>
    <TTGlyph name="oe" xMin="32" yMin="-10" xMax="872" yMax="500">
      <contour>
        <pt x="868" y="245" on="1"/>
        <pt x="525" y="245" on="1"/>
        <pt x="525" y="188" on="0"/>
        <pt x="557" y="117" on="0"/>
        <pt x="605" y="76" on="0"/>
        <pt x="660" y="62" on="0"/>
        <pt x="683" y="62" on="1"/>
        <pt x="767" y="62" on="0"/>
        <pt x="838" y="99" on="1"/>
        <pt x="848" y="22" on="1"/>
        <pt x="776" y="-10" on="0"/>
        <pt x="695" y="-10" on="1"/>
        <pt x="602" y="-10" on="0"/>
        <pt x="500" y="43" on="0"/>
        <pt x="477" y="97" on="1"/>
        <pt x="455" y="46" on="0"/>
        <pt x="345" y="-10" on="0"/>
        <pt x="278" y="-10" on="1"/>
        <pt x="221" y="-10" on="0"/>
        <pt x="130" y="30" on="0"/>
        <pt x="66" y="100" on="0"/>
        <pt x="32" y="195" on="0"/>
        <pt x="32" y="250" on="1"/>
        <pt x="32" y="304" on="0"/>
        <pt x="67" y="396" on="0"/>
        <pt x="132" y="462" on="0"/>
        <pt x="225" y="500" on="0"/>
        <pt x="282" y="500" on="1"/>
        <pt x="310" y="500" on="0"/>
        <pt x="369" y="487" on="0"/>
        <pt x="422" y="461" on="0"/>
        <pt x="462" y="423" on="0"/>
        <pt x="473" y="398" on="1"/>
        <pt x="486" y="422" on="0"/>
        <pt x="528" y="460" on="0"/>
        <pt x="577" y="486" on="0"/>
        <pt x="632" y="500" on="0"/>
        <pt x="659" y="500" on="1"/>
        <pt x="707" y="500" on="0"/>
        <pt x="786" y="472" on="0"/>
        <pt x="841" y="419" on="0"/>
        <pt x="872" y="344" on="0"/>
        <pt x="872" y="296" on="1"/>
        <pt x="872" y="265" on="0"/>
      </contour>
      <contour>
        <pt x="658" y="420" on="1"/>
        <pt x="551" y="420" on="0"/>
        <pt x="527" y="307" on="1"/>
        <pt x="780" y="307" on="1"/>
        <pt x="776" y="361" on="0"/>
        <pt x="712" y="420" on="0"/>
      </contour>
      <contour>
        <pt x="282" y="420" on="1"/>
        <pt x="204" y="420" on="0"/>
        <pt x="124" y="329" on="0"/>
        <pt x="124" y="245" on="1"/>
        <pt x="124" y="160" on="0"/>
        <pt x="203" y="70" on="0"/>
        <pt x="281" y="70" on="1"/>
        <pt x="356" y="70" on="0"/>
        <pt x="433" y="169" on="0"/>
        <pt x="433" y="248" on="1"/>
        <pt x="433" y="326" on="0"/>
        <pt x="354" y="420" on="0"/>
      </contour>
    </TTGlyph>
    <TTGlyph name="ograve" xMin="32" yMin="-10" xMax="518" yMax="732">
      <component glyphName="o" x="0" y="0" flags="0x204"/>
      <component glyphName="grave" x="123" y="0" flags="0x4"/>
    </TTGlyph>
    <TTGlyph name="one" xMin="34" yMin="0" xMax="254" yMax="700">
      <contour>
        <pt x="254" y="0" on="1"/>
        <pt x="154" y="0" on="1"/>
        <pt x="154" y="563" on="1"/>
        <pt x="100" y="518" on="0"/>
        <pt x="50" y="502" on="1"/>
        <pt x="34" y="591" on="1"/>
        <pt x="55" y="598" on="0"/>
        <pt x="98" y="621" on="0"/>
        <pt x="137" y="650" on="0"/>
        <pt x="170" y="683" on="0"/>
        <pt x="181" y="700" on="1"/>
        <pt x="254" y="700" on="1"/>
      </contour>
    </TTGlyph>
    <TTGlyph name="onehalf" xMin="36" yMin="-85" xMax="694" yMax="700">
      <component glyphName="uni00B9" x="13" y="0" flags="0x4"/>
      <component glyphName="slash" x="39" y="0" flags="0x4"/>
      <component glyphName="uni00B2" x="421" y="-320" flags="0x4"/>
    </TTGlyph>
    <TTGlyph name="onequarter" xMin="39" yMin="-85" xMax="683" yMax="700">
      <component glyphName="uni00B9" x="16" y="0" flags="0x4"/>
      <component glyphName="slash" x="42" y="0" flags="0x4"/>
      <component glyphName="uni2074" x="380" y="-319" flags="0x4"/>
    </TTGlyph>
    <TTGlyph name="ordfeminine" xMin="33" yMin="434" xMax="313" yMax="725">
      <contour>
        <pt x="313" y="495" on="1"/>
        <pt x="306" y="434" on="1"/>
        <pt x="279" y="434" on="1"/>
        <pt x="231" y="434" on="0"/>
        <pt x="212" y="465" on="1"/>
        <pt x="181" y="434" on="0"/>
        <pt x="120" y="434" on="1"/>
        <pt x="83" y="434" on="0"/>
        <pt x="33" y="480" on="0"/>
        <pt x="33" y="519" on="1"/>
        <pt x="33" y="548" on="0"/>
        <pt x="68" y="586" on="0"/>
        <pt x="120" y="609" on="0"/>
        <pt x="178" y="619" on="0"/>
        <pt x="201" y="620" on="1"/>
        <pt x="199" y="662" on="0"/>
        <pt x="148" y="662" on="1"/>
        <pt x="116" y="662" on="0"/>
        <pt x="65" y="642" on="1"/>
        <pt x="59" y="702" on="1"/>
        <pt x="113" y="725" on="0"/>
        <pt x="168" y="725" on="1"/>
        <pt x="277" y="725" on="0"/>
        <pt x="277" y="617" on="1"/>
        <pt x="277" y="537" on="1"/>
        <pt x="277" y="507" on="0"/>
        <pt x="286" y="495" on="0"/>
        <pt x="303" y="495" on="1"/>
      </contour>
      <contour>
        <pt x="202" y="507" on="1"/>
        <pt x="202" y="570" on="1"/>
        <pt x="167" y="569" on="0"/>
        <pt x="112" y="544" on="0"/>
        <pt x="112" y="522" on="1"/>
        <pt x="112" y="490" on="0"/>
        <pt x="152" y="490" on="1"/>
        <pt x="179" y="490" on="0"/>
      </contour>
    </TTGlyph>
    <TTGlyph name="ordmasculine" xMin="33" yMin="434" xMax="337" yMax="725">
      <contour>
        <pt x="295" y="476" on="1"/>
        <pt x="254" y="434" on="0"/>
        <pt x="185" y="434" on="1"/>
        <pt x="150" y="434" on="0"/>
        <pt x="94" y="457" on="0"/>
        <pt x="55" y="496" on="0"/>
        <pt x="33" y="549" on="0"/>
        <pt x="33" y="580" on="1"/>
        <pt x="33" y="610" on="0"/>
        <pt x="54" y="663" on="0"/>
        <pt x="93" y="702" on="0"/>
        <pt x="150" y="725" on="0"/>
        <pt x="185" y="725" on="1"/>
        <pt x="220" y="725" on="0"/>
        <pt x="276" y="702" on="0"/>
        <pt x="316" y="663" on="0"/>
        <pt x="337" y="610" on="0"/>
        <pt x="337" y="580" on="1"/>
        <pt x="337" y="519" on="0"/>
      </contour>
      <contour>
        <pt x="240" y="642" on="1"/>
        <pt x="220" y="666" on="0"/>
        <pt x="185" y="666" on="1"/>
        <pt x="150" y="666" on="0"/>
        <pt x="110" y="617" on="0"/>
        <pt x="110" y="580" on="1"/>
        <pt x="110" y="542" on="0"/>
        <pt x="150" y="494" on="0"/>
        <pt x="185" y="494" on="1"/>
        <pt x="220" y="494" on="0"/>
        <pt x="260" y="542" on="0"/>
        <pt x="260" y="580" on="1"/>
        <pt x="260" y="617" on="0"/>
      </contour>
    </TTGlyph>
    <TTGlyph name="oslash" xMin="33" yMin="-40" xMax="539" yMax="529">
      <contour>
        <pt x="286" y="-13" on="1"/>
        <pt x="253" y="-13" on="0"/>
        <pt x="200" y="-2" on="1"/>
        <pt x="181" y="-40" on="1"/>
        <pt x="110" y="-40" on="1"/>
        <pt x="142" y="26" on="1"/>
        <pt x="33" y="107" on="0"/>
        <pt x="33" y="244" on="1"/>
        <pt x="33" y="298" on="0"/>
        <pt x="68" y="392" on="0"/>
        <pt x="134" y="461" on="0"/>
        <pt x="227" y="501" on="0"/>
        <pt x="285" y="501" on="1"/>
        <pt x="321" y="501" on="0"/>
        <pt x="369" y="489" on="1"/>
        <pt x="388" y="529" on="1"/>
        <pt x="462" y="529" on="1"/>
        <pt x="428" y="463" on="1"/>
        <pt x="539" y="379" on="0"/>
        <pt x="539" y="243" on="1"/>
        <pt x="539" y="189" on="0"/>
        <pt x="504" y="95" on="0"/>
        <pt x="438" y="26" on="0"/>
        <pt x="344" y="-13" on="0"/>
      </contour>
      <contour>
        <pt x="395" y="393" on="1"/>
        <pt x="232" y="63" on="1"/>
        <pt x="274" y="57" on="0"/>
        <pt x="287" y="57" on="1"/>
        <pt x="324" y="57" on="0"/>
        <pt x="382" y="86" on="0"/>
        <pt x="421" y="136" on="0"/>
        <pt x="442" y="204" on="0"/>
        <pt x="442" y="243" on="1"/>
        <pt x="442" y="264" on="0"/>
        <pt x="436" y="310" on="0"/>
        <pt x="424" y="351" on="0"/>
        <pt x="407" y="384" on="0"/>
      </contour>
      <contour>
        <pt x="284" y="431" on="1"/>
        <pt x="248" y="431" on="0"/>
        <pt x="191" y="403" on="0"/>
        <pt x="151" y="353" on="0"/>
        <pt x="130" y="284" on="0"/>
        <pt x="130" y="243" on="1"/>
        <pt x="130" y="175" on="0"/>
        <pt x="176" y="95" on="1"/>
        <pt x="337" y="424" on="1"/>
        <pt x="299" y="431" on="0"/>
      </contour>
    </TTGlyph>
    <TTGlyph name="otilde" xMin="32" yMin="-10" xMax="518" yMax="702">
      <component glyphName="o" x="0" y="0" flags="0x204"/>
      <component glyphName="tilde" x="10" y="0" flags="0x4"/>
    </TTGlyph>
    <TTGlyph name="p" xMin="61" yMin="-242" xMax="524" yMax="500">
      <contour>
        <pt x="305" y="-10" on="1"/>
        <pt x="287" y="-10" on="0"/>
        <pt x="244" y="0" on="0"/>
        <pt x="202" y="18" on="0"/>
        <pt x="164" y="45" on="0"/>
        <pt x="151" y="62" on="1"/>
        <pt x="151" y="-242" on="1"/>
        <pt x="61" y="-242" on="1"/>
        <pt x="61" y="490" on="1"/>
        <pt x="131" y="490" on="1"/>
        <pt x="141" y="420" on="1"/>
        <pt x="175" y="461" on="0"/>
        <pt x="249" y="500" on="0"/>
        <pt x="306" y="500" on="1"/>
        <pt x="356" y="500" on="0"/>
        <pt x="436" y="459" on="0"/>
        <pt x="493" y="388" on="0"/>
        <pt x="524" y="296" on="0"/>
        <pt x="524" y="245" on="1"/>
        <pt x="524" y="190" on="0"/>
        <pt x="495" y="96" on="0"/>
        <pt x="440" y="28" on="0"/>
        <pt x="358" y="-10" on="0"/>
      </contour>
      <contour>
        <pt x="295" y="420" on="1"/>
        <pt x="266" y="420" on="0"/>
        <pt x="212" y="396" on="0"/>
        <pt x="171" y="351" on="0"/>
        <pt x="146" y="286" on="0"/>
        <pt x="146" y="245" on="1"/>
        <pt x="146" y="201" on="0"/>
        <pt x="170" y="136" on="0"/>
        <pt x="211" y="92" on="0"/>
        <pt x="265" y="70" on="0"/>
        <pt x="295" y="70" on="1"/>
        <pt x="326" y="70" on="0"/>
        <pt x="377" y="97" on="0"/>
        <pt x="413" y="143" on="0"/>
        <pt x="432" y="207" on="0"/>
        <pt x="432" y="245" on="1"/>
        <pt x="432" y="284" on="0"/>
        <pt x="413" y="348" on="0"/>
        <pt x="377" y="394" on="0"/>
        <pt x="326" y="420" on="0"/>
      </contour>
    </TTGlyph>
    <TTGlyph name="paragraph" xMin="33" yMin="0" xMax="580" yMax="700">
      <contour>
        <pt x="580" y="633" on="1"/>
        <pt x="505" y="633" on="1"/>
        <pt x="505" y="0" on="1"/>
        <pt x="457" y="0" on="1"/>
        <pt x="457" y="633" on="1"/>
        <pt x="356" y="633" on="1"/>
        <pt x="356" y="0" on="1"/>
        <pt x="315" y="0" on="1"/>
        <pt x="315" y="243" on="1"/>
        <pt x="245" y="247" on="0"/>
        <pt x="140" y="287" on="0"/>
        <pt x="69" y="350" on="0"/>
        <pt x="33" y="430" on="0"/>
        <pt x="33" y="474" on="1"/>
        <pt x="33" y="519" on="0"/>
        <pt x="71" y="601" on="0"/>
        <pt x="144" y="663" on="0"/>
        <pt x="252" y="700" on="0"/>
        <pt x="321" y="700" on="1"/>
        <pt x="580" y="700" on="1"/>
      </contour>
    </TTGlyph>
    <TTGlyph name="parenleft" xMin="42" yMin="-136" xMax="237" yMax="750">
      <contour>
        <pt x="237" y="-136" on="1"/>
        <pt x="158" y="-136" on="1"/>
        <pt x="128" y="-91" on="0"/>
        <pt x="84" y="2" on="0"/>
        <pt x="56" y="108" on="0"/>
        <pt x="42" y="232" on="0"/>
        <pt x="42" y="307" on="1"/>
        <pt x="42" y="383" on="0"/>
        <pt x="56" y="507" on="0"/>
        <pt x="85" y="613" on="0"/>
        <pt x="129" y="705" on="0"/>
        <pt x="158" y="750" on="1"/>
        <pt x="237" y="750" on="1"/>
        <pt x="114" y="550" on="0"/>
        <pt x="114" y="307" on="1"/>
        <pt x="114" y="63" on="0"/>
      </contour>
    </TTGlyph>
    <TTGlyph name="parenright" xMin="24" yMin="-136" xMax="219" yMax="750">
      <contour>
        <pt x="103" y="-136" on="1"/>
        <pt x="24" y="-136" on="1"/>
        <pt x="147" y="63" on="0"/>
        <pt x="147" y="307" on="1"/>
        <pt x="147" y="550" on="0"/>
        <pt x="24" y="750" on="1"/>
        <pt x="103" y="750" on="1"/>
        <pt x="132" y="705" on="0"/>
        <pt x="176" y="613" on="0"/>
        <pt x="205" y="507" on="0"/>
        <pt x="219" y="383" on="0"/>
        <pt x="219" y="307" on="1"/>
        <pt x="219" y="232" on="0"/>
        <pt x="205" y="108" on="0"/>
        <pt x="176" y="2" on="0"/>
        <pt x="133" y="-91" on="0"/>
      </contour>
    </TTGlyph>
    <TTGlyph name="percent" xMin="35" yMin="-14" xMax="805" yMax="705">
      <contour>
        <pt x="237" y="-12" on="1"/>
        <pt x="162" y="-12" on="1"/>
        <pt x="583" y="700" on="1"/>
        <pt x="657" y="700" on="1"/>
      </contour>
      <contour>
        <pt x="181" y="333" on="1"/>
        <pt x="117" y="333" on="0"/>
        <pt x="35" y="427" on="0"/>
        <pt x="35" y="515" on="1"/>
        <pt x="35" y="561" on="0"/>
        <pt x="59" y="632" on="0"/>
        <pt x="101" y="680" on="0"/>
        <pt x="156" y="705" on="0"/>
        <pt x="186" y="705" on="1"/>
        <pt x="217" y="705" on="0"/>
        <pt x="270" y="681" on="0"/>
        <pt x="309" y="635" on="0"/>
        <pt x="332" y="568" on="0"/>
        <pt x="332" y="524" on="1"/>
        <pt x="332" y="478" on="0"/>
        <pt x="309" y="407" on="0"/>
        <pt x="269" y="358" on="0"/>
        <pt x="214" y="333" on="0"/>
      </contour>
      <contour>
        <pt x="185" y="653" on="1"/>
        <pt x="166" y="653" on="0"/>
        <pt x="132" y="634" on="0"/>
        <pt x="106" y="598" on="0"/>
        <pt x="91" y="546" on="0"/>
        <pt x="91" y="515" on="1"/>
        <pt x="91" y="455" on="0"/>
        <pt x="145" y="385" on="0"/>
        <pt x="182" y="385" on="1"/>
        <pt x="222" y="385" on="0"/>
        <pt x="276" y="460" on="0"/>
        <pt x="276" y="524" on="1"/>
        <pt x="276" y="553" on="0"/>
        <pt x="262" y="601" on="0"/>
        <pt x="236" y="635" on="0"/>
        <pt x="203" y="653" on="0"/>
      </contour>
      <contour>
        <pt x="654" y="-14" on="1"/>
        <pt x="590" y="-14" on="0"/>
        <pt x="508" y="80" on="0"/>
        <pt x="508" y="168" on="1"/>
        <pt x="508" y="214" on="0"/>
        <pt x="532" y="285" on="0"/>
        <pt x="574" y="333" on="0"/>
        <pt x="629" y="358" on="0"/>
        <pt x="659" y="358" on="1"/>
        <pt x="690" y="358" on="0"/>
        <pt x="743" y="334" on="0"/>
        <pt x="782" y="288" on="0"/>
        <pt x="805" y="221" on="0"/>
        <pt x="805" y="177" on="1"/>
        <pt x="805" y="131" on="0"/>
        <pt x="782" y="60" on="0"/>
        <pt x="742" y="11" on="0"/>
        <pt x="687" y="-14" on="0"/>
      </contour>
      <contour>
        <pt x="658" y="306" on="1"/>
        <pt x="639" y="306" on="0"/>
        <pt x="605" y="287" on="0"/>
        <pt x="579" y="251" on="0"/>
        <pt x="564" y="199" on="0"/>
        <pt x="564" y="168" on="1"/>
        <pt x="564" y="108" on="0"/>
        <pt x="618" y="38" on="0"/>
        <pt x="655" y="38" on="1"/>
        <pt x="695" y="38" on="0"/>
        <pt x="749" y="113" on="0"/>
        <pt x="749" y="177" on="1"/>
        <pt x="749" y="206" on="0"/>
        <pt x="735" y="254" on="0"/>
        <pt x="709" y="288" on="0"/>
        <pt x="676" y="306" on="0"/>
      </contour>
    </TTGlyph>
    <TTGlyph name="period" xMin="57" yMin="0" xMax="147" yMax="86">
      <contour>
        <pt x="147" y="0" on="1"/>
        <pt x="57" y="0" on="1"/>
        <pt x="57" y="86" on="1"/>
        <pt x="147" y="86" on="1"/>
      </contour>
    </TTGlyph>
    <TTGlyph name="periodcentered" xMin="57" yMin="213" xMax="181" yMax="343">
      <contour>
        <pt x="181" y="213" on="1"/>
        <pt x="57" y="213" on="1"/>
        <pt x="57" y="343" on="1"/>
        <pt x="181" y="343" on="1"/>
      </contour>
    </TTGlyph>
    <TTGlyph name="perthousand" xMin="36" yMin="-14" xMax="1165" yMax="705">
      <contour>
        <pt x="238" y="-12" on="1"/>
        <pt x="163" y="-12" on="1"/>
        <pt x="584" y="700" on="1"/>
        <pt x="658" y="700" on="1"/>
      </contour>
      <contour>
        <pt x="182" y="333" on="1"/>
        <pt x="118" y="333" on="0"/>
        <pt x="36" y="427" on="0"/>
        <pt x="36" y="515" on="1"/>
        <pt x="36" y="561" on="0"/>
        <pt x="60" y="632" on="0"/>
        <pt x="102" y="680" on="0"/>
        <pt x="157" y="705" on="0"/>
        <pt x="187" y="705" on="1"/>
        <pt x="218" y="705" on="0"/>
        <pt x="271" y="681" on="0"/>
        <pt x="310" y="635" on="0"/>
        <pt x="333" y="568" on="0"/>
        <pt x="333" y="524" on="1"/>
        <pt x="333" y="478" on="0"/>
        <pt x="310" y="407" on="0"/>
        <pt x="270" y="358" on="0"/>
        <pt x="215" y="333" on="0"/>
      </contour>
      <contour>
        <pt x="186" y="653" on="1"/>
        <pt x="167" y="653" on="0"/>
        <pt x="133" y="634" on="0"/>
        <pt x="107" y="598" on="0"/>
        <pt x="92" y="546" on="0"/>
        <pt x="92" y="515" on="1"/>
        <pt x="92" y="455" on="0"/>
        <pt x="146" y="385" on="0"/>
        <pt x="183" y="385" on="1"/>
        <pt x="223" y="385" on="0"/>
        <pt x="277" y="460" on="0"/>
        <pt x="277" y="524" on="1"/>
        <pt x="277" y="553" on="0"/>
        <pt x="263" y="601" on="0"/>
        <pt x="237" y="635" on="0"/>
        <pt x="204" y="653" on="0"/>
      </contour>
      <contour>
        <pt x="655" y="-14" on="1"/>
        <pt x="591" y="-14" on="0"/>
        <pt x="509" y="80" on="0"/>
        <pt x="509" y="168" on="1"/>
        <pt x="509" y="214" on="0"/>
        <pt x="533" y="285" on="0"/>
        <pt x="575" y="333" on="0"/>
        <pt x="630" y="358" on="0"/>
        <pt x="660" y="358" on="1"/>
        <pt x="691" y="358" on="0"/>
        <pt x="744" y="334" on="0"/>
        <pt x="783" y="288" on="0"/>
        <pt x="806" y="221" on="0"/>
        <pt x="806" y="177" on="1"/>
        <pt x="806" y="131" on="0"/>
        <pt x="783" y="60" on="0"/>
        <pt x="743" y="11" on="0"/>
        <pt x="688" y="-14" on="0"/>
      </contour>
      <contour>
        <pt x="659" y="306" on="1"/>
        <pt x="640" y="306" on="0"/>
        <pt x="606" y="287" on="0"/>
        <pt x="580" y="251" on="0"/>
        <pt x="565" y="199" on="0"/>
        <pt x="565" y="168" on="1"/>
        <pt x="565" y="108" on="0"/>
        <pt x="619" y="38" on="0"/>
        <pt x="656" y="38" on="1"/>
        <pt x="696" y="38" on="0"/>
        <pt x="750" y="113" on="0"/>
        <pt x="750" y="177" on="1"/>
        <pt x="750" y="206" on="0"/>
        <pt x="736" y="254" on="0"/>
        <pt x="710" y="288" on="0"/>
        <pt x="677" y="306" on="0"/>
      </contour>
      <contour>
        <pt x="1014" y="-14" on="1"/>
        <pt x="950" y="-14" on="0"/>
        <pt x="868" y="80" on="0"/>
        <pt x="868" y="168" on="1"/>
        <pt x="868" y="214" on="0"/>
        <pt x="892" y="285" on="0"/>
        <pt x="934" y="333" on="0"/>
        <pt x="989" y="358" on="0"/>
        <pt x="1019" y="358" on="1"/>
        <pt x="1050" y="358" on="0"/>
        <pt x="1103" y="334" on="0"/>
        <pt x="1142" y="288" on="0"/>
        <pt x="1165" y="221" on="0"/>
        <pt x="1165" y="177" on="1"/>
        <pt x="1165" y="131" on="0"/>
        <pt x="1142" y="60" on="0"/>
        <pt x="1102" y="11" on="0"/>
        <pt x="1047" y="-14" on="0"/>
      </contour>
      <contour>
        <pt x="1018" y="306" on="1"/>
        <pt x="999" y="306" on="0"/>
        <pt x="965" y="287" on="0"/>
        <pt x="939" y="251" on="0"/>
        <pt x="924" y="199" on="0"/>
        <pt x="924" y="168" on="1"/>
        <pt x="924" y="108" on="0"/>
        <pt x="978" y="38" on="0"/>
        <pt x="1015" y="38" on="1"/>
        <pt x="1055" y="38" on="0"/>
        <pt x="1109" y="113" on="0"/>
        <pt x="1109" y="177" on="1"/>
        <pt x="1109" y="206" on="0"/>
        <pt x="1095" y="254" on="0"/>
        <pt x="1069" y="288" on="0"/>
        <pt x="1036" y="306" on="0"/>
      </contour>
    </TTGlyph>
    <TTGlyph name="plus" xMin="46" yMin="102" xMax="416" yMax="452">
      <contour>
        <pt x="416" y="238" on="1"/>
        <pt x="271" y="238" on="1"/>
        <pt x="271" y="102" on="1"/>
        <pt x="191" y="102" on="1"/>
        <pt x="191" y="238" on="1"/>
        <pt x="46" y="238" on="1"/>
        <pt x="46" y="324" on="1"/>
        <pt x="191" y="324" on="1"/>
        <pt x="191" y="452" on="1"/>
        <pt x="271" y="452" on="1"/>
        <pt x="271" y="324" on="1"/>
        <pt x="416" y="324" on="1"/>
      </contour>
    </TTGlyph>
    <TTGlyph name="plusminus" xMin="64" yMin="42" xMax="434" yMax="532">
      <contour>
        <pt x="434" y="327" on="1"/>
        <pt x="281" y="327" on="1"/>
        <pt x="281" y="183" on="1"/>
        <pt x="217" y="183" on="1"/>
        <pt x="217" y="327" on="1"/>
        <pt x="64" y="327" on="1"/>
        <pt x="64" y="394" on="1"/>
        <pt x="217" y="394" on="1"/>
        <pt x="217" y="532" on="1"/>
        <pt x="281" y="532" on="1"/>
        <pt x="281" y="394" on="1"/>
        <pt x="434" y="394" on="1"/>
      </contour>
      <contour>
        <pt x="434" y="42" on="1"/>
        <pt x="64" y="42" on="1"/>
        <pt x="64" y="109" on="1"/>
        <pt x="434" y="109" on="1"/>
      </contour>
    </TTGlyph>
    <TTGlyph name="q" xMin="33" yMin="-242" xMax="496" yMax="500">
      <contour>
        <pt x="252" y="-10" on="1"/>
        <pt x="199" y="-10" on="0"/>
        <pt x="117" y="28" on="0"/>
        <pt x="61" y="96" on="0"/>
        <pt x="33" y="190" on="0"/>
        <pt x="33" y="245" on="1"/>
        <pt x="33" y="297" on="0"/>
        <pt x="64" y="389" on="0"/>
        <pt x="121" y="459" on="0"/>
        <pt x="201" y="500" on="0"/>
        <pt x="251" y="500" on="1"/>
        <pt x="308" y="500" on="0"/>
        <pt x="382" y="461" on="0"/>
        <pt x="416" y="420" on="1"/>
        <pt x="426" y="490" on="1"/>
        <pt x="496" y="490" on="1"/>
        <pt x="496" y="-242" on="1"/>
        <pt x="406" y="-242" on="1"/>
        <pt x="406" y="62" on="1"/>
        <pt x="394" y="46" on="0"/>
        <pt x="356" y="19" on="0"/>
        <pt x="314" y="0" on="0"/>
        <pt x="271" y="-10" on="0"/>
      </contour>
      <contour>
        <pt x="262" y="420" on="1"/>
        <pt x="230" y="420" on="0"/>
        <pt x="180" y="394" on="0"/>
        <pt x="144" y="348" on="0"/>
        <pt x="125" y="284" on="0"/>
        <pt x="125" y="245" on="1"/>
        <pt x="125" y="207" on="0"/>
        <pt x="144" y="143" on="0"/>
        <pt x="180" y="97" on="0"/>
        <pt x="230" y="70" on="0"/>
        <pt x="262" y="70" on="1"/>
        <pt x="292" y="70" on="0"/>
        <pt x="347" y="93" on="0"/>
        <pt x="387" y="137" on="0"/>
        <pt x="411" y="203" on="0"/>
        <pt x="411" y="245" on="1"/>
        <pt x="411" y="286" on="0"/>
        <pt x="386" y="351" on="0"/>
        <pt x="345" y="396" on="0"/>
        <pt x="291" y="420" on="0"/>
      </contour>
    </TTGlyph>
    <TTGlyph name="question" xMin="30" yMin="0" xMax="397" yMax="750">
      <contour>
        <pt x="226" y="200" on="1"/>
        <pt x="167" y="200" on="1"/>
        <pt x="164" y="240" on="0"/>
        <pt x="164" y="245" on="1"/>
        <pt x="164" y="276" on="0"/>
        <pt x="186" y="329" on="0"/>
        <pt x="220" y="378" on="0"/>
        <pt x="258" y="425" on="0"/>
        <pt x="292" y="474" on="0"/>
        <pt x="314" y="529" on="0"/>
        <pt x="314" y="561" on="1"/>
        <pt x="314" y="591" on="0"/>
        <pt x="293" y="637" on="0"/>
        <pt x="258" y="668" on="0"/>
        <pt x="212" y="684" on="0"/>
        <pt x="186" y="684" on="1"/>
        <pt x="164" y="684" on="0"/>
        <pt x="121" y="671" on="0"/>
        <pt x="86" y="651" on="0"/>
        <pt x="60" y="627" on="0"/>
        <pt x="55" y="616" on="1"/>
        <pt x="30" y="683" on="1"/>
        <pt x="49" y="712" on="0"/>
        <pt x="135" y="750" on="0"/>
        <pt x="189" y="750" on="1"/>
        <pt x="237" y="750" on="0"/>
        <pt x="314" y="717" on="0"/>
        <pt x="368" y="663" on="0"/>
        <pt x="397" y="596" on="0"/>
        <pt x="397" y="563" on="1"/>
        <pt x="397" y="528" on="0"/>
        <pt x="362" y="452" on="0"/>
        <pt x="337" y="420" on="1"/>
        <pt x="286" y="355" on="1"/>
        <pt x="260" y="322" on="0"/>
        <pt x="225" y="256" on="0"/>
        <pt x="226" y="227" on="1"/>
      </contour>
      <contour>
        <pt x="244" y="0" on="1"/>
        <pt x="153" y="0" on="1"/>
        <pt x="153" y="86" on="1"/>
        <pt x="244" y="86" on="1"/>
      </contour>
    </TTGlyph>
    <TTGlyph name="questiondown" xMin="62" yMin="-250" xMax="429" yMax="500">
      <contour>
        <pt x="233" y="300" on="1"/>
        <pt x="292" y="300" on="1"/>
        <pt x="295" y="259" on="0"/>
        <pt x="295" y="255" on="1"/>
        <pt x="295" y="224" on="0"/>
        <pt x="273" y="171" on="0"/>
        <pt x="239" y="122" on="0"/>
        <pt x="201" y="75" on="0"/>
        <pt x="167" y="26" on="0"/>
        <pt x="145" y="-29" on="0"/>
        <pt x="145" y="-61" on="1"/>
        <pt x="145" y="-91" on="0"/>
        <pt x="166" y="-137" on="0"/>
        <pt x="201" y="-168" on="0"/>
        <pt x="247" y="-184" on="0"/>
        <pt x="273" y="-184" on="1"/>
        <pt x="295" y="-184" on="0"/>
        <pt x="337" y="-171" on="0"/>
        <pt x="373" y="-151" on="0"/>
        <pt x="399" y="-127" on="0"/>
        <pt x="404" y="-116" on="1"/>
        <pt x="429" y="-183" on="1"/>
        <pt x="410" y="-212" on="0"/>
        <pt x="324" y="-250" on="0"/>
        <pt x="270" y="-250" on="1"/>
        <pt x="223" y="-250" on="0"/>
        <pt x="146" y="-217" on="0"/>
        <pt x="92" y="-165" on="0"/>
        <pt x="62" y="-98" on="0"/>
        <pt x="62" y="-63" on="1"/>
        <pt x="62" y="-28" on="0"/>
        <pt x="97" y="48" on="0"/>
        <pt x="122" y="80" on="1"/>
        <pt x="172" y="145" on="1"/>
        <pt x="198" y="178" on="0"/>
        <pt x="234" y="243" on="0"/>
        <pt x="233" y="273" on="1"/>
      </contour>
      <contour>
        <pt x="215" y="500" on="1"/>
        <pt x="306" y="500" on="1"/>
        <pt x="306" y="414" on="1"/>
        <pt x="215" y="414" on="1"/>
      </contour>
    </TTGlyph>
    <TTGlyph name="quotedbl" xMin="40" yMin="450" xMax="362" yMax="750">
      <contour>
        <pt x="362" y="750" on="1"/>
        <pt x="342" y="450" on="1"/>
        <pt x="290" y="450" on="1"/>
        <pt x="270" y="750" on="1"/>
      </contour>
      <contour>
        <pt x="134" y="750" on="1"/>
        <pt x="114" y="450" on="1"/>
        <pt x="60" y="450" on="1"/>
        <pt x="40" y="750" on="1"/>
      </contour>
    </TTGlyph>
    <TTGlyph name="quotedblbase" xMin="57" yMin="-109" xMax="388" yMax="86">
      <contour>
        <pt x="158" y="0" on="1"/>
        <pt x="80" y="-109" on="1"/>
        <pt x="57" y="-96" on="1"/>
        <pt x="92" y="-9" on="1"/>
        <pt x="58" y="0" on="1"/>
        <pt x="58" y="86" on="1"/>
        <pt x="158" y="86" on="1"/>
      </contour>
      <contour>
        <pt x="388" y="0" on="1"/>
        <pt x="310" y="-109" on="1"/>
        <pt x="287" y="-96" on="1"/>
        <pt x="322" y="-9" on="1"/>
        <pt x="288" y="0" on="1"/>
        <pt x="288" y="86" on="1"/>
        <pt x="388" y="86" on="1"/>
      </contour>
    </TTGlyph>
    <TTGlyph name="quotedblleft" xMin="43" yMin="555" xMax="354" yMax="750">
      <contour>
        <pt x="43" y="641" on="1"/>
        <pt x="121" y="750" on="1"/>
        <pt x="144" y="737" on="1"/>
        <pt x="109" y="650" on="1"/>
        <pt x="143" y="641" on="1"/>
        <pt x="143" y="555" on="1"/>
        <pt x="43" y="555" on="1"/>
      </contour>
      <contour>
        <pt x="253" y="641" on="1"/>
        <pt x="331" y="750" on="1"/>
        <pt x="354" y="737" on="1"/>
        <pt x="319" y="650" on="1"/>
        <pt x="353" y="641" on="1"/>
        <pt x="353" y="555" on="1"/>
        <pt x="253" y="555" on="1"/>
      </contour>
    </TTGlyph>
    <TTGlyph name="quotedblright" xMin="42" yMin="555" xMax="353" yMax="750">
      <contour>
        <pt x="353" y="664" on="1"/>
        <pt x="275" y="555" on="1"/>
        <pt x="252" y="568" on="1"/>
        <pt x="287" y="655" on="1"/>
        <pt x="253" y="664" on="1"/>
        <pt x="253" y="750" on="1"/>
        <pt x="353" y="750" on="1"/>
      </contour>
      <contour>
        <pt x="143" y="664" on="1"/>
        <pt x="65" y="555" on="1"/>
        <pt x="42" y="568" on="1"/>
        <pt x="77" y="655" on="1"/>
        <pt x="43" y="664" on="1"/>
        <pt x="43" y="750" on="1"/>
        <pt x="143" y="750" on="1"/>
      </contour>
    </TTGlyph>
    <TTGlyph name="quoteleft" xMin="43" yMin="555" xMax="144" yMax="750">
      <contour>
        <pt x="43" y="641" on="1"/>
        <pt x="121" y="750" on="1"/>
        <pt x="144" y="737" on="1"/>
        <pt x="109" y="650" on="1"/>
        <pt x="143" y="641" on="1"/>
        <pt x="143" y="555" on="1"/>
        <pt x="43" y="555" on="1"/>
      </contour>
    </TTGlyph>
    <TTGlyph name="quoteright" xMin="42" yMin="555" xMax="143" yMax="750">
      <contour>
        <pt x="143" y="664" on="1"/>
        <pt x="65" y="555" on="1"/>
        <pt x="42" y="568" on="1"/>
        <pt x="77" y="655" on="1"/>
        <pt x="43" y="664" on="1"/>
        <pt x="43" y="750" on="1"/>
        <pt x="143" y="750" on="1"/>
      </contour>
    </TTGlyph>
    <TTGlyph name="quotesinglbase" xMin="57" yMin="-109" xMax="158" yMax="86">
      <contour>
        <pt x="158" y="0" on="1"/>
        <pt x="80" y="-109" on="1"/>
        <pt x="57" y="-96" on="1"/>
        <pt x="92" y="-9" on="1"/>
        <pt x="58" y="0" on="1"/>
        <pt x="58" y="86" on="1"/>
        <pt x="158" y="86" on="1"/>
      </contour>
    </TTGlyph>
    <TTGlyph name="quotesingle" xMin="41" yMin="450" xMax="141" yMax="750">
      <contour>
        <pt x="141" y="750" on="1"/>
        <pt x="123" y="450" on="1"/>
        <pt x="59" y="450" on="1"/>
        <pt x="41" y="750" on="1"/>
      </contour>
    </TTGlyph>
    <TTGlyph name="r" xMin="61" yMin="0" xMax="320" yMax="508">
      <contour>
        <pt x="320" y="508" on="1"/>
        <pt x="300" y="409" on="1"/>
        <pt x="269" y="409" on="1"/>
        <pt x="254" y="409" on="0"/>
        <pt x="220" y="398" on="0"/>
        <pt x="189" y="380" on="0"/>
        <pt x="163" y="358" on="0"/>
        <pt x="157" y="346" on="1"/>
        <pt x="157" y="0" on="1"/>
        <pt x="61" y="0" on="1"/>
        <pt x="61" y="490" on="1"/>
        <pt x="135" y="490" on="1"/>
        <pt x="146" y="409" on="1"/>
        <pt x="192" y="461" on="0"/>
        <pt x="267" y="508" on="0"/>
        <pt x="312" y="508" on="1"/>
      </contour>
    </TTGlyph>
    <TTGlyph name="registered" xMin="49" yMin="37" xMax="670" yMax="693">
      <contour>
        <pt x="49" y="365" on="1"/>
        <pt x="49" y="439" on="0"/>
        <pt x="95" y="560" on="0"/>
        <pt x="178" y="646" on="0"/>
        <pt x="292" y="693" on="0"/>
        <pt x="360" y="693" on="1"/>
        <pt x="428" y="693" on="0"/>
        <pt x="542" y="646" on="0"/>
        <pt x="624" y="559" on="0"/>
        <pt x="670" y="438" on="0"/>
        <pt x="670" y="365" on="1"/>
        <pt x="670" y="292" on="0"/>
        <pt x="624" y="172" on="0"/>
        <pt x="542" y="85" on="0"/>
        <pt x="428" y="37" on="0"/>
        <pt x="360" y="37" on="1"/>
        <pt x="292" y="37" on="0"/>
        <pt x="177" y="85" on="0"/>
        <pt x="95" y="171" on="0"/>
        <pt x="49" y="292" on="0"/>
      </contour>
      <contour>
        <pt x="360" y="649" on="1"/>
        <pt x="297" y="649" on="0"/>
        <pt x="200" y="607" on="0"/>
        <pt x="134" y="532" on="0"/>
        <pt x="100" y="427" on="0"/>
        <pt x="100" y="365" on="1"/>
        <pt x="100" y="303" on="0"/>
        <pt x="133" y="198" on="0"/>
        <pt x="199" y="122" on="0"/>
        <pt x="296" y="81" on="0"/>
        <pt x="360" y="81" on="1"/>
        <pt x="423" y="81" on="0"/>
        <pt x="520" y="122" on="0"/>
        <pt x="585" y="198" on="0"/>
        <pt x="619" y="303" on="0"/>
        <pt x="619" y="365" on="1"/>
        <pt x="619" y="427" on="0"/>
        <pt x="585" y="532" on="0"/>
        <pt x="519" y="607" on="0"/>
        <pt x="423" y="649" on="0"/>
      </contour>
      <contour>
        <pt x="489" y="210" on="1"/>
        <pt x="426" y="210" on="1"/>
        <pt x="361" y="327" on="1"/>
        <pt x="306" y="327" on="1"/>
        <pt x="306" y="210" on="1"/>
        <pt x="244" y="210" on="1"/>
        <pt x="244" y="531" on="1"/>
        <pt x="362" y="531" on="1"/>
        <pt x="416" y="531" on="0"/>
        <pt x="472" y="486" on="0"/>
        <pt x="472" y="431" on="1"/>
        <pt x="472" y="380" on="0"/>
        <pt x="418" y="344" on="1"/>
      </contour>
      <contour>
        <pt x="348" y="482" on="1"/>
        <pt x="306" y="482" on="1"/>
        <pt x="306" y="383" on="1"/>
        <pt x="346" y="383" on="1"/>
        <pt x="407" y="383" on="0"/>
        <pt x="407" y="433" on="1"/>
        <pt x="407" y="457" on="0"/>
        <pt x="381" y="482" on="0"/>
      </contour>
    </TTGlyph>
    <TTGlyph name="ring" xMin="42" yMin="576" xMax="249" yMax="755">
      <contour>
        <pt x="146" y="576" on="1"/>
        <pt x="97" y="576" on="0"/>
        <pt x="42" y="628" on="0"/>
        <pt x="42" y="665" on="1"/>
        <pt x="42" y="704" on="0"/>
        <pt x="100" y="755" on="0"/>
        <pt x="152" y="755" on="1"/>
        <pt x="176" y="755" on="0"/>
        <pt x="213" y="740" on="0"/>
        <pt x="237" y="714" on="0"/>
        <pt x="249" y="682" on="0"/>
        <pt x="249" y="665" on="1"/>
        <pt x="249" y="631" on="0"/>
        <pt x="201" y="576" on="0"/>
        <pt x="153" y="576" on="1"/>
      </contour>
      <contour>
        <pt x="86" y="665" on="1"/>
        <pt x="86" y="638" on="0"/>
        <pt x="122" y="605" on="0"/>
        <pt x="146" y="605" on="1"/>
        <pt x="170" y="605" on="0"/>
        <pt x="206" y="638" on="0"/>
        <pt x="206" y="665" on="1"/>
        <pt x="206" y="691" on="0"/>
        <pt x="171" y="724" on="0"/>
        <pt x="146" y="724" on="1"/>
        <pt x="121" y="724" on="0"/>
        <pt x="86" y="691" on="0"/>
      </contour>
    </TTGlyph>
    <TTGlyph name="s" xMin="32" yMin="-10" xMax="387" yMax="500">
      <contour>
        <pt x="200" y="-10" on="1"/>
        <pt x="93" y="-10" on="0"/>
        <pt x="32" y="33" on="1"/>
        <pt x="43" y="120" on="1"/>
        <pt x="63" y="102" on="0"/>
        <pt x="146" y="70" on="0"/>
        <pt x="196" y="70" on="1"/>
        <pt x="294" y="70" on="0"/>
        <pt x="294" y="131" on="1"/>
        <pt x="294" y="186" on="0"/>
        <pt x="196" y="212" on="1"/>
        <pt x="166" y="219" on="0"/>
        <pt x="113" y="238" on="0"/>
        <pt x="71" y="269" on="0"/>
        <pt x="44" y="317" on="0"/>
        <pt x="42" y="353" on="1"/>
        <pt x="42" y="416" on="0"/>
        <pt x="132" y="500" on="0"/>
        <pt x="226" y="500" on="1"/>
        <pt x="293" y="500" on="0"/>
        <pt x="359" y="468" on="1"/>
        <pt x="348" y="386" on="1"/>
        <pt x="296" y="429" on="0"/>
        <pt x="228" y="429" on="1"/>
        <pt x="133" y="429" on="0"/>
        <pt x="133" y="363" on="1"/>
        <pt x="133" y="347" on="0"/>
        <pt x="143" y="325" on="0"/>
        <pt x="169" y="308" on="0"/>
        <pt x="213" y="292" on="0"/>
        <pt x="247" y="282" on="1"/>
        <pt x="268" y="276" on="0"/>
        <pt x="317" y="255" on="0"/>
        <pt x="359" y="221" on="0"/>
        <pt x="387" y="171" on="0"/>
        <pt x="387" y="136" on="1"/>
        <pt x="387" y="112" on="0"/>
        <pt x="371" y="60" on="0"/>
        <pt x="329" y="18" on="0"/>
        <pt x="256" y="-10" on="0"/>
      </contour>
    </TTGlyph>
    <TTGlyph name="scaron" xMin="32" yMin="-10" xMax="387" yMax="740">
      <component glyphName="s" x="0" y="0" flags="0x204"/>
      <component glyphName="caron" x="-24" y="0" flags="0x4"/>
    </TTGlyph>
    <TTGlyph name="section" xMin="37" yMin="-84" xMax="419" yMax="750">
      <contour>
        <pt x="315" y="188" on="1"/>
        <pt x="336" y="172" on="0"/>
        <pt x="359" y="146" on="0"/>
        <pt x="371" y="119" on="0"/>
        <pt x="374" y="89" on="0"/>
        <pt x="374" y="69" on="1"/>
        <pt x="374" y="39" on="0"/>
        <pt x="354" y="-17" on="0"/>
        <pt x="313" y="-59" on="0"/>
        <pt x="249" y="-84" on="0"/>
        <pt x="206" y="-84" on="1"/>
        <pt x="163" y="-84" on="0"/>
        <pt x="83" y="-62" on="0"/>
        <pt x="63" y="-45" on="1"/>
        <pt x="76" y="18" on="1"/>
        <pt x="144" y="-23" on="0"/>
        <pt x="207" y="-23" on="1"/>
        <pt x="255" y="-23" on="0"/>
        <pt x="310" y="18" on="0"/>
        <pt x="310" y="60" on="1"/>
        <pt x="310" y="95" on="0"/>
        <pt x="270" y="134" on="0"/>
        <pt x="209" y="158" on="0"/>
        <pt x="138" y="179" on="0"/>
        <pt x="77" y="216" on="0"/>
        <pt x="37" y="277" on="0"/>
        <pt x="37" y="330" on="1"/>
        <pt x="37" y="446" on="0"/>
        <pt x="146" y="479" on="1"/>
        <pt x="107" y="507" on="0"/>
        <pt x="82" y="558" on="0"/>
        <pt x="82" y="587" on="1"/>
        <pt x="82" y="622" on="0"/>
        <pt x="101" y="682" on="0"/>
        <pt x="142" y="725" on="0"/>
        <pt x="204" y="750" on="0"/>
        <pt x="247" y="750" on="1"/>
        <pt x="333" y="750" on="0"/>
        <pt x="394" y="710" on="1"/>
        <pt x="381" y="647" on="1"/>
        <pt x="313" y="690" on="0"/>
        <pt x="251" y="690" on="1"/>
        <pt x="206" y="690" on="0"/>
        <pt x="154" y="640" on="0"/>
        <pt x="154" y="604" on="1"/>
        <pt x="154" y="573" on="0"/>
        <pt x="193" y="536" on="0"/>
        <pt x="252" y="510" on="0"/>
        <pt x="321" y="485" on="0"/>
        <pt x="380" y="445" on="0"/>
        <pt x="419" y="382" on="0"/>
        <pt x="419" y="331" on="1"/>
        <pt x="419" y="232" on="0"/>
      </contour>
      <contour>
        <pt x="204" y="438" on="1"/>
        <pt x="190" y="437" on="0"/>
        <pt x="155" y="426" on="0"/>
        <pt x="125" y="403" on="0"/>
        <pt x="105" y="367" on="0"/>
        <pt x="105" y="342" on="1"/>
        <pt x="105" y="261" on="0"/>
        <pt x="267" y="219" on="1"/>
        <pt x="303" y="229" on="0"/>
        <pt x="345" y="287" on="0"/>
        <pt x="345" y="324" on="1"/>
        <pt x="345" y="405" on="0"/>
      </contour>
    </TTGlyph>
    <TTGlyph name="semicolon" xMin="57" yMin="-109" xMax="158" yMax="440">
      <contour>
        <pt x="158" y="354" on="1"/>
        <pt x="58" y="354" on="1"/>
        <pt x="58" y="440" on="1"/>
        <pt x="158" y="440" on="1"/>
      </contour>
      <contour>
        <pt x="158" y="-1" on="1"/>
        <pt x="80" y="-109" on="1"/>
        <pt x="57" y="-96" on="1"/>
        <pt x="92" y="-9" on="1"/>
        <pt x="58" y="0" on="1"/>
        <pt x="58" y="86" on="1"/>
        <pt x="158" y="86" on="1"/>
      </contour>
    </TTGlyph>
    <TTGlyph name="seven" xMin="39" yMin="0" xMax="492" yMax="700">
      <contour>
        <pt x="492" y="700" on="1"/>
        <pt x="189" y="0" on="1"/>
        <pt x="89" y="0" on="1"/>
        <pt x="354" y="614" on="1"/>
        <pt x="39" y="614" on="1"/>
        <pt x="39" y="700" on="1"/>
      </contour>
    </TTGlyph>
    <TTGlyph name="six" xMin="62" yMin="-14" xMax="524" yMax="700">
      <contour>
        <pt x="281" y="-14" on="1"/>
        <pt x="231" y="-14" on="0"/>
        <pt x="151" y="16" on="0"/>
        <pt x="93" y="78" on="0"/>
        <pt x="62" y="174" on="0"/>
        <pt x="62" y="240" on="1"/>
        <pt x="62" y="338" on="0"/>
        <pt x="123" y="506" on="0"/>
        <pt x="214" y="629" on="0"/>
        <pt x="319" y="699" on="0"/>
        <pt x="362" y="700" on="1"/>
        <pt x="427" y="662" on="1"/>
        <pt x="387" y="644" on="0"/>
        <pt x="311" y="598" on="0"/>
        <pt x="245" y="529" on="0"/>
        <pt x="190" y="429" on="0"/>
        <pt x="171" y="357" on="1"/>
        <pt x="217" y="420" on="0"/>
        <pt x="312" y="420" on="1"/>
        <pt x="357" y="420" on="0"/>
        <pt x="435" y="393" on="0"/>
        <pt x="492" y="342" on="0"/>
        <pt x="524" y="266" on="0"/>
        <pt x="524" y="218" on="1"/>
        <pt x="524" y="169" on="0"/>
        <pt x="489" y="85" on="0"/>
        <pt x="425" y="22" on="0"/>
        <pt x="336" y="-14" on="0"/>
      </contour>
      <contour>
        <pt x="303" y="339" on="1"/>
        <pt x="274" y="339" on="0"/>
        <pt x="223" y="319" on="0"/>
        <pt x="185" y="283" on="0"/>
        <pt x="162" y="232" on="0"/>
        <pt x="162" y="201" on="1"/>
        <pt x="162" y="168" on="0"/>
        <pt x="182" y="119" on="0"/>
        <pt x="218" y="86" on="0"/>
        <pt x="266" y="69" on="0"/>
        <pt x="293" y="69" on="1"/>
        <pt x="326" y="69" on="0"/>
        <pt x="376" y="93" on="0"/>
        <pt x="410" y="133" on="0"/>
        <pt x="427" y="185" on="0"/>
        <pt x="427" y="214" on="1"/>
        <pt x="427" y="238" on="0"/>
        <pt x="414" y="283" on="0"/>
        <pt x="384" y="318" on="0"/>
        <pt x="337" y="339" on="0"/>
      </contour>
    </TTGlyph>
    <TTGlyph name="slash" xMin="19" yMin="-85" xMax="497" yMax="700">
      <contour>
        <pt x="497" y="700" on="1"/>
        <pt x="119" y="-85" on="1"/>
        <pt x="19" y="-85" on="1"/>
        <pt x="397" y="700" on="1"/>
      </contour>
    </TTGlyph>
    <TTGlyph name="sterling" xMin="34" yMin="0" xMax="480" yMax="714">
      <contour>
        <pt x="416" y="569" on="1"/>
        <pt x="402" y="598" on="0"/>
        <pt x="357" y="625" on="0"/>
        <pt x="330" y="625" on="1"/>
        <pt x="299" y="625" on="0"/>
        <pt x="264" y="609" on="0"/>
        <pt x="246" y="575" on="0"/>
        <pt x="242" y="524" on="0"/>
        <pt x="242" y="488" on="1"/>
        <pt x="242" y="395" on="1"/>
        <pt x="434" y="395" on="1"/>
        <pt x="419" y="309" on="1"/>
        <pt x="236" y="309" on="1"/>
        <pt x="233" y="271" on="0"/>
        <pt x="228" y="217" on="0"/>
        <pt x="218" y="168" on="0"/>
        <pt x="201" y="119" on="0"/>
        <pt x="188" y="86" on="1"/>
        <pt x="449" y="86" on="1"/>
        <pt x="449" y="0" on="1"/>
        <pt x="34" y="0" on="1"/>
        <pt x="59" y="35" on="0"/>
        <pt x="95" y="103" on="0"/>
        <pt x="119" y="176" on="0"/>
        <pt x="135" y="259" on="0"/>
        <pt x="140" y="309" on="1"/>
        <pt x="45" y="309" on="1"/>
        <pt x="59" y="395" on="1"/>
        <pt x="146" y="395" on="1"/>
        <pt x="146" y="510" on="1"/>
        <pt x="146" y="550" on="0"/>
        <pt x="159" y="623" on="0"/>
        <pt x="197" y="680" on="0"/>
        <pt x="266" y="714" on="0"/>
        <pt x="321" y="714" on="1"/>
        <pt x="390" y="714" on="0"/>
        <pt x="466" y="665" on="0"/>
        <pt x="480" y="628" on="1"/>
      </contour>
    </TTGlyph>
    <TTGlyph name="t" xMin="18" yMin="-10" xMax="321" yMax="620">
      <contour>
        <pt x="318" y="62" on="1"/>
        <pt x="311" y="-10" on="1"/>
        <pt x="230" y="-10" on="1"/>
        <pt x="165" y="-10" on="0"/>
        <pt x="102" y="58" on="0"/>
        <pt x="102" y="107" on="1"/>
        <pt x="102" y="420" on="1"/>
        <pt x="18" y="420" on="1"/>
        <pt x="26" y="490" on="1"/>
        <pt x="102" y="490" on="1"/>
        <pt x="102" y="611" on="1"/>
        <pt x="192" y="620" on="1"/>
        <pt x="192" y="490" on="1"/>
        <pt x="321" y="490" on="1"/>
        <pt x="321" y="420" on="1"/>
        <pt x="192" y="420" on="1"/>
        <pt x="192" y="162" on="1"/>
        <pt x="192" y="127" on="0"/>
        <pt x="196" y="87" on="0"/>
        <pt x="215" y="67" on="0"/>
        <pt x="257" y="62" on="0"/>
        <pt x="295" y="62" on="1"/>
      </contour>
    </TTGlyph>
    <TTGlyph name="thorn" xMin="60" yMin="-241" xMax="548" yMax="750">
      <contour>
        <pt x="302" y="-10" on="1"/>
        <pt x="199" y="-10" on="0"/>
        <pt x="150" y="56" on="1"/>
        <pt x="150" y="-241" on="1"/>
        <pt x="60" y="-241" on="1"/>
        <pt x="60" y="750" on="1"/>
        <pt x="150" y="750" on="1"/>
        <pt x="150" y="438" on="1"/>
        <pt x="212" y="500" on="0"/>
        <pt x="308" y="500" on="1"/>
        <pt x="363" y="500" on="0"/>
        <pt x="451" y="460" on="0"/>
        <pt x="514" y="391" on="0"/>
        <pt x="548" y="298" on="0"/>
        <pt x="548" y="245" on="1"/>
        <pt x="548" y="192" on="0"/>
        <pt x="515" y="99" on="0"/>
        <pt x="452" y="30" on="0"/>
        <pt x="360" y="-10" on="0"/>
      </contour>
      <contour>
        <pt x="143" y="245" on="1"/>
        <pt x="143" y="163" on="0"/>
        <pt x="217" y="62" on="0"/>
        <pt x="294" y="62" on="1"/>
        <pt x="372" y="62" on="0"/>
        <pt x="457" y="163" on="0"/>
        <pt x="457" y="245" on="1"/>
        <pt x="457" y="326" on="0"/>
        <pt x="372" y="420" on="0"/>
        <pt x="294" y="420" on="1"/>
        <pt x="216" y="420" on="0"/>
        <pt x="143" y="326" on="0"/>
      </contour>
    </TTGlyph>
    <TTGlyph name="three" xMin="40" yMin="-14" xMax="484" yMax="714">
      <contour>
        <pt x="230" y="-14" on="1"/>
        <pt x="200" y="-14" on="0"/>
        <pt x="139" y="-3" on="0"/>
        <pt x="86" y="14" on="0"/>
        <pt x="47" y="32" on="0"/>
        <pt x="40" y="39" on="1"/>
        <pt x="63" y="127" on="1"/>
        <pt x="91" y="112" on="0"/>
        <pt x="133" y="92" on="0"/>
        <pt x="170" y="78" on="0"/>
        <pt x="208" y="72" on="0"/>
        <pt x="231" y="72" on="1"/>
        <pt x="261" y="72" on="0"/>
        <pt x="316" y="87" on="0"/>
        <pt x="356" y="121" on="0"/>
        <pt x="380" y="175" on="0"/>
        <pt x="380" y="213" on="1"/>
        <pt x="380" y="243" on="0"/>
        <pt x="363" y="291" on="0"/>
        <pt x="324" y="325" on="0"/>
        <pt x="261" y="343" on="0"/>
        <pt x="214" y="343" on="1"/>
        <pt x="141" y="343" on="1"/>
        <pt x="151" y="419" on="1"/>
        <pt x="188" y="419" on="1"/>
        <pt x="279" y="419" on="0"/>
        <pt x="355" y="477" on="0"/>
        <pt x="355" y="534" on="1"/>
        <pt x="355" y="628" on="0"/>
        <pt x="236" y="628" on="1"/>
        <pt x="151" y="628" on="0"/>
        <pt x="101" y="587" on="1"/>
        <pt x="84" y="668" on="1"/>
        <pt x="100" y="684" on="0"/>
        <pt x="183" y="714" on="0"/>
        <pt x="246" y="714" on="1"/>
        <pt x="312" y="714" on="0"/>
        <pt x="395" y="679" on="0"/>
        <pt x="442" y="626" on="0"/>
        <pt x="459" y="563" on="0"/>
        <pt x="459" y="534" on="1"/>
        <pt x="459" y="492" on="0"/>
        <pt x="419" y="423" on="0"/>
        <pt x="368" y="388" on="1"/>
        <pt x="484" y="349" on="0"/>
        <pt x="484" y="214" on="1"/>
        <pt x="484" y="160" on="0"/>
        <pt x="444" y="75" on="0"/>
        <pt x="375" y="16" on="0"/>
        <pt x="282" y="-14" on="0"/>
      </contour>
    </TTGlyph>
    <TTGlyph name="threequarters" xMin="32" yMin="-85" xMax="851" yMax="706">
      <component glyphName="uni00B3" x="13" y="0" flags="0x4"/>
      <component glyphName="slash" x="212" y="0" flags="0x4"/>
      <component glyphName="uni2074" x="548" y="-319" flags="0x4"/>
    </TTGlyph>
    <TTGlyph name="tilde" xMin="92" yMin="599" xMax="438" yMax="702">
      <contour>
        <pt x="331" y="599" on="1"/>
        <pt x="319" y="599" on="0"/>
        <pt x="283" y="615" on="0"/>
        <pt x="242" y="634" on="0"/>
        <pt x="210" y="650" on="0"/>
        <pt x="199" y="650" on="1"/>
        <pt x="146" y="650" on="0"/>
        <pt x="128" y="601" on="1"/>
        <pt x="92" y="610" on="1"/>
        <pt x="98" y="632" on="0"/>
        <pt x="118" y="666" on="0"/>
        <pt x="148" y="689" on="0"/>
        <pt x="180" y="700" on="0"/>
        <pt x="195" y="700" on="1"/>
        <pt x="208" y="700" on="0"/>
        <pt x="244" y="685" on="0"/>
        <pt x="290" y="666" on="0"/>
        <pt x="325" y="651" on="0"/>
        <pt x="335" y="651" on="1"/>
        <pt x="377" y="651" on="0"/>
        <pt x="404" y="702" on="1"/>
        <pt x="438" y="693" on="1"/>
        <pt x="427" y="650" on="0"/>
        <pt x="369" y="599" on="0"/>
      </contour>
    </TTGlyph>
    <TTGlyph name="trademark" xMin="31" yMin="337" xMax="668" yMax="700">
      <contour>
        <pt x="489" y="443" on="1"/>
        <pt x="483" y="443" on="1"/>
        <pt x="391" y="606" on="1"/>
        <pt x="358" y="337" on="1"/>
        <pt x="306" y="337" on="1"/>
        <pt x="353" y="700" on="1"/>
        <pt x="382" y="700" on="1"/>
        <pt x="487" y="521" on="1"/>
        <pt x="591" y="700" on="1"/>
        <pt x="620" y="700" on="1"/>
        <pt x="668" y="337" on="1"/>
        <pt x="614" y="337" on="1"/>
        <pt x="583" y="605" on="1"/>
      </contour>
      <contour>
        <pt x="290" y="700" on="1"/>
        <pt x="284" y="650" on="1"/>
        <pt x="184" y="650" on="1"/>
        <pt x="184" y="337" on="1"/>
        <pt x="133" y="337" on="1"/>
        <pt x="133" y="650" on="1"/>
        <pt x="31" y="650" on="1"/>
        <pt x="31" y="700" on="1"/>
      </contour>
    </TTGlyph>
    <TTGlyph name="two" xMin="50" yMin="0" xMax="470" yMax="714">
      <contour>
        <pt x="470" y="0" on="1"/>
        <pt x="56" y="0" on="1"/>
        <pt x="147" y="129" on="0"/>
        <pt x="263" y="308" on="0"/>
        <pt x="291" y="360" on="1"/>
        <pt x="347" y="464" on="0"/>
        <pt x="347" y="512" on="1"/>
        <pt x="347" y="566" on="0"/>
        <pt x="282" y="625" on="0"/>
        <pt x="225" y="625" on="1"/>
        <pt x="132" y="625" on="0"/>
        <pt x="62" y="532" on="1"/>
        <pt x="50" y="617" on="1"/>
        <pt x="57" y="630" on="0"/>
        <pt x="92" y="664" on="0"/>
        <pt x="143" y="694" on="0"/>
        <pt x="210" y="714" on="0"/>
        <pt x="249" y="714" on="1"/>
        <pt x="304" y="714" on="0"/>
        <pt x="379" y="679" on="0"/>
        <pt x="424" y="624" on="0"/>
        <pt x="443" y="555" on="0"/>
        <pt x="443" y="522" on="1"/>
        <pt x="443" y="486" on="0"/>
        <pt x="420" y="403" on="0"/>
        <pt x="369" y="300" on="0"/>
        <pt x="287" y="170" on="0"/>
        <pt x="228" y="86" on="1"/>
        <pt x="470" y="86" on="1"/>
      </contour>
    </TTGlyph>
    <TTGlyph name="u" xMin="56" yMin="-10" xMax="463" yMax="490">
      <contour>
        <pt x="463" y="0" on="1"/>
        <pt x="383" y="0" on="1"/>
        <pt x="373" y="54" on="1"/>
        <pt x="327" y="-10" on="0"/>
        <pt x="237" y="-10" on="1"/>
        <pt x="56" y="-10" on="0"/>
        <pt x="56" y="205" on="1"/>
        <pt x="56" y="490" on="1"/>
        <pt x="146" y="490" on="1"/>
        <pt x="146" y="230" on="1"/>
        <pt x="146" y="70" on="0"/>
        <pt x="260" y="70" on="1"/>
        <pt x="338" y="70" on="0"/>
        <pt x="373" y="126" on="1"/>
        <pt x="373" y="490" on="1"/>
        <pt x="463" y="490" on="1"/>
      </contour>
    </TTGlyph>
    <TTGlyph name="uacute" xMin="56" yMin="-10" xMax="463" yMax="732">
      <component glyphName="u" x="0" y="0" flags="0x204"/>
      <component glyphName="acute" x="127" y="0" flags="0x4"/>
    </TTGlyph>
    <TTGlyph name="ucircumflex" xMin="56" yMin="-10" xMax="463" yMax="745">
      <component glyphName="u" x="0" y="0" flags="0x204"/>
      <component glyphName="circumflex" x="56" y="0" flags="0x4"/>
    </TTGlyph>
    <TTGlyph name="udieresis" xMin="56" yMin="-10" xMax="463" yMax="700">
      <component glyphName="u" x="0" y="0" flags="0x204"/>
      <component glyphName="dieresis" x="68" y="0" flags="0x4"/>
    </TTGlyph>
    <TTGlyph name="ugrave" xMin="56" yMin="-10" xMax="463" yMax="732">
      <component glyphName="u" x="0" y="0" flags="0x204"/>
      <component glyphName="grave" x="127" y="0" flags="0x4"/>
    </TTGlyph>
    <TTGlyph name="underscore" xMin="3" yMin="-122" xMax="563" yMax="-36">
      <contour>
        <pt x="563" y="-122" on="1"/>
        <pt x="3" y="-122" on="1"/>
        <pt x="3" y="-36" on="1"/>
        <pt x="563" y="-36" on="1"/>
      </contour>
    </TTGlyph>
    <TTGlyph name="uni00AD" xMin="57" yMin="230" xMax="367" yMax="324">
      <contour>
        <pt x="367" y="230" on="1"/>
        <pt x="57" y="230" on="1"/>
        <pt x="57" y="324" on="1"/>
        <pt x="367" y="324" on="1"/>
      </contour>
    </TTGlyph>
    <TTGlyph name="uni00B2" xMin="25" yMin="320" xMax="273" yMax="706">
      <contour>
        <pt x="273" y="320" on="1"/>
        <pt x="25" y="320" on="1"/>
        <pt x="82" y="397" on="0"/>
        <pt x="148" y="494" on="0"/>
        <pt x="181" y="554" on="0"/>
        <pt x="189" y="584" on="0"/>
        <pt x="189" y="593" on="1"/>
        <pt x="189" y="618" on="0"/>
        <pt x="159" y="646" on="0"/>
        <pt x="132" y="646" on="1"/>
        <pt x="81" y="646" on="0"/>
        <pt x="39" y="587" on="1"/>
        <pt x="30" y="652" on="1"/>
        <pt x="41" y="671" on="0"/>
        <pt x="102" y="706" on="0"/>
        <pt x="147" y="706" on="1"/>
        <pt x="177" y="706" on="0"/>
        <pt x="219" y="690" on="0"/>
        <pt x="246" y="662" on="0"/>
        <pt x="259" y="625" on="0"/>
        <pt x="259" y="604" on="1"/>
        <pt x="259" y="536" on="0"/>
        <pt x="153" y="390" on="1"/>
        <pt x="273" y="390" on="1"/>
      </contour>
    </TTGlyph>
    <TTGlyph name="uni00B3" xMin="19" yMin="312" xMax="277" yMax="706">
      <contour>
        <pt x="128" y="312" on="1"/>
        <pt x="111" y="312" on="0"/>
        <pt x="76" y="318" on="0"/>
        <pt x="46" y="327" on="0"/>
        <pt x="23" y="337" on="0"/>
        <pt x="19" y="342" on="1"/>
        <pt x="37" y="408" on="1"/>
        <pt x="69" y="382" on="0"/>
        <pt x="125" y="382" on="1"/>
        <pt x="203" y="382" on="0"/>
        <pt x="203" y="434" on="1"/>
        <pt x="203" y="464" on="0"/>
        <pt x="172" y="498" on="0"/>
        <pt x="129" y="498" on="1"/>
        <pt x="77" y="498" on="1"/>
        <pt x="83" y="553" on="1"/>
        <pt x="110" y="553" on="1"/>
        <pt x="187" y="553" on="0"/>
        <pt x="187" y="601" on="1"/>
        <pt x="187" y="645" on="0"/>
        <pt x="127" y="645" on="1"/>
        <pt x="78" y="645" on="0"/>
        <pt x="56" y="628" on="1"/>
        <pt x="45" y="681" on="1"/>
        <pt x="71" y="706" on="0"/>
        <pt x="136" y="706" on="1"/>
        <pt x="172" y="706" on="0"/>
        <pt x="220" y="688" on="0"/>
        <pt x="249" y="660" on="0"/>
        <pt x="262" y="624" on="0"/>
        <pt x="262" y="605" on="1"/>
        <pt x="262" y="552" on="0"/>
        <pt x="223" y="530" on="1"/>
        <pt x="277" y="498" on="0"/>
        <pt x="277" y="437" on="1"/>
        <pt x="277" y="407" on="0"/>
        <pt x="253" y="361" on="0"/>
        <pt x="212" y="329" on="0"/>
        <pt x="158" y="312" on="0"/>
      </contour>
    </TTGlyph>
    <TTGlyph name="uni00B5" xMin="73" yMin="-242" xMax="556" yMax="490">
      <contour>
        <pt x="556" y="62" on="1"/>
        <pt x="540" y="-10" on="1"/>
        <pt x="514" y="-10" on="1"/>
        <pt x="435" y="-10" on="0"/>
        <pt x="407" y="63" on="1"/>
        <pt x="374" y="25" on="0"/>
        <pt x="317" y="-11" on="0"/>
        <pt x="273" y="-11" on="1"/>
        <pt x="241" y="-11" on="0"/>
        <pt x="194" y="4" on="0"/>
        <pt x="161" y="27" on="1"/>
        <pt x="161" y="-242" on="1"/>
        <pt x="73" y="-242" on="1"/>
        <pt x="73" y="490" on="1"/>
        <pt x="162" y="490" on="1"/>
        <pt x="162" y="232" on="1"/>
        <pt x="162" y="148" on="0"/>
        <pt x="215" y="69" on="0"/>
        <pt x="284" y="69" on="1"/>
        <pt x="322" y="69" on="0"/>
        <pt x="372" y="95" on="0"/>
        <pt x="400" y="127" on="1"/>
        <pt x="400" y="490" on="1"/>
        <pt x="487" y="490" on="1"/>
        <pt x="487" y="170" on="1"/>
        <pt x="487" y="113" on="0"/>
        <pt x="506" y="62" on="0"/>
        <pt x="534" y="62" on="1"/>
      </contour>
    </TTGlyph>
    <TTGlyph name="uni00B9" xMin="23" yMin="320" xMax="155" yMax="698">
      <contour>
        <pt x="155" y="320" on="1"/>
        <pt x="80" y="320" on="1"/>
        <pt x="80" y="596" on="1"/>
        <pt x="48" y="582" on="0"/>
        <pt x="29" y="579" on="1"/>
        <pt x="23" y="639" on="1"/>
        <pt x="32" y="640" on="0"/>
        <pt x="56" y="653" on="0"/>
        <pt x="77" y="669" on="0"/>
        <pt x="95" y="689" on="0"/>
        <pt x="98" y="698" on="1"/>
        <pt x="155" y="698" on="1"/>
      </contour>
    </TTGlyph>
    <TTGlyph name="uni0237" xMin="-12" yMin="-242" xMax="151" yMax="490">
      <contour>
        <pt x="28" y="-237" on="1"/>
        <pt x="-2" y="-242" on="1"/>
        <pt x="-12" y="-173" on="1"/>
        <pt x="10" y="-171" on="0"/>
        <pt x="38" y="-161" on="0"/>
        <pt x="54" y="-140" on="0"/>
        <pt x="61" y="-103" on="0"/>
        <pt x="61" y="-73" on="1"/>
        <pt x="61" y="490" on="1"/>
        <pt x="151" y="490" on="1"/>
        <pt x="151" y="-107" on="1"/>
        <pt x="151" y="-139" on="0"/>
        <pt x="131" y="-184" on="0"/>
        <pt x="98" y="-215" on="0"/>
        <pt x="53" y="-233" on="0"/>
      </contour>
    </TTGlyph>
    <TTGlyph name="uni2070" xMin="33" yMin="312" xMax="374" yMax="706">
      <contour>
        <pt x="200" y="312" on="1"/>
        <pt x="162" y="312" on="0"/>
        <pt x="101" y="339" on="0"/>
        <pt x="57" y="389" on="0"/>
        <pt x="33" y="460" on="0"/>
        <pt x="33" y="503" on="1"/>
        <pt x="33" y="547" on="0"/>
        <pt x="60" y="621" on="0"/>
        <pt x="106" y="675" on="0"/>
        <pt x="170" y="706" on="0"/>
        <pt x="207" y="706" on="1"/>
        <pt x="243" y="706" on="0"/>
        <pt x="304" y="677" on="0"/>
        <pt x="349" y="625" on="0"/>
        <pt x="374" y="554" on="0"/>
        <pt x="374" y="512" on="1"/>
        <pt x="374" y="467" on="0"/>
        <pt x="349" y="393" on="0"/>
        <pt x="303" y="341" on="0"/>
        <pt x="239" y="312" on="0"/>
      </contour>
      <contour>
        <pt x="107" y="503" on="1"/>
        <pt x="107" y="439" on="0"/>
        <pt x="159" y="377" on="0"/>
        <pt x="201" y="377" on="1"/>
        <pt x="246" y="377" on="0"/>
        <pt x="301" y="443" on="0"/>
        <pt x="301" y="512" on="1"/>
        <pt x="301" y="575" on="0"/>
        <pt x="246" y="642" on="0"/>
        <pt x="206" y="642" on="1"/>
        <pt x="166" y="642" on="0"/>
        <pt x="107" y="570" on="0"/>
      </contour>
    </TTGlyph>
    <TTGlyph name="uni2074" xMin="5" yMin="320" xMax="303" yMax="698">
      <contour>
        <pt x="303" y="423" on="1"/>
        <pt x="254" y="423" on="1"/>
        <pt x="254" y="320" on="1"/>
        <pt x="180" y="320" on="1"/>
        <pt x="180" y="423" on="1"/>
        <pt x="5" y="423" on="1"/>
        <pt x="192" y="698" on="1"/>
        <pt x="254" y="698" on="1"/>
        <pt x="254" y="480" on="1"/>
        <pt x="303" y="480" on="1"/>
      </contour>
      <contour>
        <pt x="180" y="480" on="1"/>
        <pt x="180" y="590" on="1"/>
        <pt x="106" y="480" on="1"/>
      </contour>
    </TTGlyph>
    <TTGlyph name="uni2075" xMin="24" yMin="313" xMax="278" yMax="698">
      <contour>
        <pt x="130" y="313" on="1"/>
        <pt x="113" y="313" on="0"/>
        <pt x="77" y="320" on="0"/>
        <pt x="46" y="330" on="0"/>
        <pt x="24" y="345" on="1"/>
        <pt x="41" y="410" on="1"/>
        <pt x="76" y="381" on="0"/>
        <pt x="128" y="381" on="1"/>
        <pt x="206" y="381" on="0"/>
        <pt x="206" y="442" on="1"/>
        <pt x="206" y="497" on="0"/>
        <pt x="107" y="497" on="1"/>
        <pt x="45" y="497" on="1"/>
        <pt x="70" y="698" on="1"/>
        <pt x="257" y="698" on="1"/>
        <pt x="249" y="628" on="1"/>
        <pt x="126" y="628" on="1"/>
        <pt x="116" y="557" on="1"/>
        <pt x="201" y="556" on="0"/>
        <pt x="278" y="502" on="0"/>
        <pt x="278" y="444" on="1"/>
        <pt x="278" y="412" on="0"/>
        <pt x="254" y="364" on="0"/>
        <pt x="213" y="330" on="0"/>
        <pt x="160" y="313" on="0"/>
      </contour>
    </TTGlyph>
    <TTGlyph name="uni2076" xMin="32" yMin="312" xMax="300" yMax="698">
      <contour>
        <pt x="158" y="312" on="1"/>
        <pt x="101" y="312" on="0"/>
        <pt x="32" y="383" on="0"/>
        <pt x="32" y="458" on="1"/>
        <pt x="32" y="506" on="0"/>
        <pt x="68" y="593" on="0"/>
        <pt x="121" y="659" on="0"/>
        <pt x="182" y="698" on="0"/>
        <pt x="206" y="698" on="1"/>
        <pt x="255" y="670" on="1"/>
        <pt x="239" y="670" on="0"/>
        <pt x="190" y="641" on="0"/>
        <pt x="145" y="598" on="0"/>
        <pt x="113" y="549" on="0"/>
        <pt x="110" y="528" on="1"/>
        <pt x="128" y="547" on="0"/>
        <pt x="178" y="547" on="1"/>
        <pt x="232" y="547" on="0"/>
        <pt x="300" y="492" on="0"/>
        <pt x="300" y="438" on="1"/>
        <pt x="300" y="412" on="0"/>
        <pt x="279" y="367" on="0"/>
        <pt x="242" y="332" on="0"/>
        <pt x="189" y="312" on="0"/>
      </contour>
      <contour>
        <pt x="173" y="489" on="1"/>
        <pt x="142" y="489" on="0"/>
        <pt x="104" y="459" on="0"/>
        <pt x="104" y="430" on="1"/>
        <pt x="104" y="406" on="0"/>
        <pt x="143" y="377" on="0"/>
        <pt x="166" y="377" on="1"/>
        <pt x="195" y="377" on="0"/>
        <pt x="231" y="414" on="0"/>
        <pt x="231" y="440" on="1"/>
        <pt x="231" y="459" on="0"/>
        <pt x="201" y="489" on="0"/>
      </contour>
    </TTGlyph>
    <TTGlyph name="uni2077" xMin="23" yMin="320" xMax="290" yMax="698">
      <contour>
        <pt x="290" y="698" on="1"/>
        <pt x="120" y="320" on="1"/>
        <pt x="43" y="320" on="1"/>
        <pt x="182" y="628" on="1"/>
        <pt x="23" y="628" on="1"/>
        <pt x="23" y="698" on="1"/>
      </contour>
    </TTGlyph>
    <TTGlyph name="uni2078" xMin="31" yMin="312" xMax="315" yMax="706">
      <contour>
        <pt x="167" y="312" on="1"/>
        <pt x="100" y="312" on="0"/>
        <pt x="31" y="374" on="0"/>
        <pt x="31" y="420" on="1"/>
        <pt x="31" y="480" on="0"/>
        <pt x="94" y="524" on="1"/>
        <pt x="54" y="552" on="0"/>
        <pt x="54" y="610" on="1"/>
        <pt x="54" y="652" on="0"/>
        <pt x="111" y="706" on="0"/>
        <pt x="175" y="706" on="1"/>
        <pt x="238" y="706" on="0"/>
        <pt x="293" y="657" on="0"/>
        <pt x="293" y="618" on="1"/>
        <pt x="293" y="564" on="0"/>
        <pt x="243" y="528" on="1"/>
        <pt x="275" y="515" on="0"/>
        <pt x="315" y="463" on="0"/>
        <pt x="315" y="431" on="1"/>
        <pt x="315" y="408" on="0"/>
        <pt x="296" y="365" on="0"/>
        <pt x="259" y="332" on="0"/>
        <pt x="203" y="312" on="0"/>
      </contour>
      <contour>
        <pt x="173" y="650" on="1"/>
        <pt x="119" y="650" on="0"/>
        <pt x="119" y="603" on="1"/>
        <pt x="119" y="562" on="0"/>
        <pt x="170" y="550" on="1"/>
        <pt x="225" y="563" on="0"/>
        <pt x="225" y="605" on="1"/>
        <pt x="225" y="650" on="0"/>
      </contour>
      <contour>
        <pt x="175" y="499" on="1"/>
        <pt x="145" y="495" on="0"/>
        <pt x="102" y="456" on="0"/>
        <pt x="102" y="426" on="1"/>
        <pt x="102" y="399" on="0"/>
        <pt x="138" y="369" on="0"/>
        <pt x="170" y="369" on="1"/>
        <pt x="204" y="369" on="0"/>
        <pt x="242" y="401" on="0"/>
        <pt x="242" y="428" on="1"/>
        <pt x="242" y="457" on="0"/>
        <pt x="204" y="493" on="0"/>
      </contour>
    </TTGlyph>
    <TTGlyph name="uni2079" xMin="22" yMin="320" xMax="291" yMax="706">
      <contour>
        <pt x="164" y="706" on="1"/>
        <pt x="221" y="706" on="0"/>
        <pt x="291" y="634" on="0"/>
        <pt x="291" y="561" on="1"/>
        <pt x="291" y="514" on="0"/>
        <pt x="260" y="427" on="0"/>
        <pt x="207" y="360" on="0"/>
        <pt x="145" y="320" on="0"/>
        <pt x="116" y="320" on="1"/>
        <pt x="69" y="348" on="1"/>
        <pt x="85" y="348" on="0"/>
        <pt x="134" y="373" on="0"/>
        <pt x="180" y="413" on="0"/>
        <pt x="213" y="464" on="0"/>
        <pt x="215" y="490" on="1"/>
        <pt x="196" y="471" on="0"/>
        <pt x="144" y="471" on="1"/>
        <pt x="89" y="471" on="0"/>
        <pt x="22" y="526" on="0"/>
        <pt x="22" y="578" on="1"/>
        <pt x="22" y="605" on="0"/>
        <pt x="43" y="651" on="0"/>
        <pt x="81" y="686" on="0"/>
        <pt x="133" y="706" on="0"/>
      </contour>
      <contour>
        <pt x="151" y="529" on="1"/>
        <pt x="182" y="529" on="0"/>
        <pt x="220" y="558" on="0"/>
        <pt x="220" y="587" on="1"/>
        <pt x="220" y="641" on="0"/>
        <pt x="159" y="641" on="1"/>
        <pt x="129" y="641" on="0"/>
        <pt x="95" y="605" on="0"/>
        <pt x="95" y="581" on="1"/>
        <pt x="95" y="559" on="0"/>
        <pt x="122" y="529" on="0"/>
      </contour>
    </TTGlyph>
</ttFont>
